<svg width="45" height="45" viewBox="0 0 45 45" fill="none" xmlns="http://www.w3.org/2000/svg">
<g id="&#195;&#141;cone Ferramentas" clip-path="url(#clip0_17_1450)">
<g id="Group">
<path id="Vector" d="M34.4293 18.721C34.0617 16.146 33.0586 13.0989 30.7746 9.97793L34.0701 6.7557C34.5849 6.25237 34.5845 5.43562 34.0701 4.93271L30.076 1.02745C29.5612 0.524032 28.7264 0.524032 28.2115 1.02745L24.9161 4.24959C20.4938 1.15559 16.2163 0.464907 13.1673 0.501344C9.05298 0.552305 6.24118 1.89456 6.1235 1.95163C5.59598 2.20763 5.30611 2.77473 5.41325 3.34089C5.52048 3.90713 5.99869 4.3351 6.58501 4.38959C6.65392 4.39603 12.6139 5.00773 19.1078 9.92877L0.424844 28.1966C-0.0900195 28.6999 -0.0900195 29.5162 0.424844 30.0196L4.41895 33.925C4.9339 34.4285 5.76903 34.4279 6.28337 33.925L24.9664 15.6572C25.9165 16.8559 26.7093 18.0359 27.3708 19.1622C13.3754 24.1164 16.6465 44.2169 31.7176 44.5C47.7544 44.1032 49.9062 22.211 34.4293 18.721ZM29.1437 3.76198L31.2733 5.84425L29.1143 7.9553C28.4669 7.2452 27.7109 6.50597 26.9846 5.87304L29.1437 3.76198ZM5.3512 31.1904L3.22152 29.108L21.1319 11.5957C21.8553 12.2408 22.6017 12.9707 23.2616 13.6781L5.3512 31.1904ZM24.0852 10.7905C19.4642 6.27231 14.7433 4.11605 12.0337 3.13473C18.8162 2.04779 29.9062 8.52103 31.7136 18.4495C31.1504 18.4496 30.5955 18.4844 30.0506 18.5512C28.6989 16.1198 26.7866 13.4319 24.0852 10.7905ZM31.7174 41.9218C25.8259 41.9218 21.0329 37.2352 21.0329 31.4747C21.5701 17.6342 41.867 17.638 42.402 31.4748C42.402 37.2352 37.6089 41.9218 31.7174 41.9218Z" fill="url(#paint0_linear_17_1450)"/>
<path id="Vector_2" d="M35.8728 31.0182C37.3745 28.7425 35.7802 25.6028 33.0357 25.3715V24.5709C32.9709 22.8624 30.4633 22.8637 30.399 24.5709V25.353H28.8932C28.1651 25.353 27.5748 25.9301 27.5748 26.642V36.3071C27.5748 37.019 28.1651 37.5962 28.8932 37.5962H30.399V38.3782C30.4639 40.0867 32.9715 40.0854 33.0357 38.3782V37.5962H33.4825C37.0459 37.5928 38.6096 33.1771 35.8728 31.0182ZM30.2115 27.9311H32.6588C34.1864 27.988 34.1853 30.1292 32.6588 30.1855H30.2115V27.9311ZM33.4825 35.0181H30.2115V32.7637H33.4825C35.0102 32.8205 35.0091 34.9617 33.4825 35.0181Z" fill="url(#paint1_linear_17_1450)"/>
</g>
</g>
<defs>
<linearGradient id="paint0_linear_17_1450" x1="0.0386963" y1="0.5" x2="44.0292" y2="45.4129" gradientUnits="userSpaceOnUse">
<stop stop-color="#FD5309"/>
<stop offset="1" stop-color="#FF9101"/>
</linearGradient>
<linearGradient id="paint1_linear_17_1450" x1="27.5748" y1="23.29" x2="41.9257" y2="31.7852" gradientUnits="userSpaceOnUse">
<stop stop-color="#FD5309"/>
<stop offset="1" stop-color="#FF9101"/>
</linearGradient>
<clipPath id="clip0_17_1450">
<rect width="45" height="44" fill="white" transform="translate(0 0.5)"/>
</clipPath>
</defs>
</svg>
