<svg width="45" height="45" viewBox="0 0 45 45" fill="none" xmlns="http://www.w3.org/2000/svg">
<g id="&#195;&#141;cone Live">
<path id="Vector" d="M40.4269 19.0725C40.1731 18.9008 39.8811 18.794 39.5765 18.7613C39.2718 18.7286 38.9638 18.7711 38.6794 18.885L31.7888 21.6412C31.5843 20.3174 30.914 19.11 29.8987 18.2363C28.8834 17.3626 27.5895 16.8798 26.25 16.875H9.375C7.88316 16.875 6.45242 17.4676 5.39752 18.5225C4.34263 19.5774 3.75 21.0082 3.75 22.5V35.625C3.75 37.1168 4.34263 38.5476 5.39752 39.6025C6.45242 40.6574 7.88316 41.25 9.375 41.25H26.25C27.5892 41.2452 28.8829 40.7628 29.8982 39.8894C30.9135 39.0161 31.5839 37.8091 31.7888 36.4856L38.6794 39.2419C38.9639 39.3556 39.272 39.3978 39.5766 39.3648C39.8812 39.3319 40.1731 39.2248 40.4268 39.0529C40.6805 38.881 40.8881 38.6496 41.0316 38.3789C41.1751 38.1082 41.2501 37.8064 41.25 37.5V20.625C41.2501 20.3187 41.1751 20.017 41.0316 19.7464C40.8881 19.4757 40.6805 19.2443 40.4269 19.0725ZM26.25 37.5H9.375C8.87772 37.5 8.40081 37.3025 8.04918 36.9508C7.69755 36.5992 7.5 36.1223 7.5 35.625V22.5C7.5 22.0027 7.69755 21.5258 8.04918 21.1742C8.40081 20.8225 8.87772 20.625 9.375 20.625H26.25C26.7473 20.625 27.2242 20.8225 27.5758 21.1742C27.9275 21.5258 28.125 22.0027 28.125 22.5V35.625C28.125 36.1223 27.9275 36.5992 27.5758 36.9508C27.2242 37.3025 26.7473 37.5 26.25 37.5ZM37.5 34.7306L31.875 32.4806V25.6444L37.5 23.3944V34.7306Z" fill="url(#paint0_linear_17_1454)"/>
<path id="Vector_2" d="M11.6249 10.02C13.2772 8.40025 15.4987 7.49299 17.8124 7.49299C20.1262 7.49299 22.3477 8.40025 23.9999 10.02C24.3594 10.3404 24.8284 10.5103 25.3097 10.4944C25.791 10.4785 26.2477 10.278 26.5852 9.93446C26.9227 9.59095 27.1151 9.13074 27.1225 8.64923C27.1299 8.16772 26.9517 7.70183 26.6249 7.3481C24.2701 5.04439 21.1068 3.75439 17.8124 3.75439C14.5181 3.75439 11.3548 5.04439 8.99995 7.3481C8.67317 7.70183 8.49502 8.16772 8.50242 8.64923C8.50982 9.13074 8.7022 9.59095 9.03969 9.93446C9.37718 10.278 9.83391 10.4785 10.3152 10.4944C10.7965 10.5103 11.2655 10.3404 11.6249 10.02Z" fill="url(#paint1_linear_17_1454)"/>
<path id="Vector_3" d="M13.5001 11.7881C13.3106 11.9571 13.1573 12.1628 13.0497 12.3927C12.9421 12.6226 12.8822 12.872 12.8738 13.1257C12.8654 13.3794 12.9087 13.6322 13.0009 13.8688C13.0931 14.1053 13.2324 14.3206 13.4103 14.5017C13.5882 14.6828 13.8011 14.8259 14.0359 14.9223C14.2708 15.0187 14.5228 15.0664 14.7766 15.0625C15.0305 15.0586 15.2809 15.0032 15.5126 14.8996C15.7444 14.7961 15.9528 14.6465 16.1251 14.46C16.5751 14.0171 17.1811 13.7689 17.8126 13.7689C18.444 13.7689 19.0501 14.0171 19.5001 14.46C19.6723 14.6465 19.8807 14.7961 20.1125 14.8996C20.3442 15.0032 20.5947 15.0586 20.8485 15.0625C21.1023 15.0664 21.3543 15.0187 21.5892 14.9223C21.8241 14.8259 22.0369 14.6828 22.2148 14.5017C22.3927 14.3206 22.532 14.1053 22.6242 13.8688C22.7165 13.6322 22.7597 13.3794 22.7513 13.1257C22.7429 12.872 22.6831 12.6226 22.5754 12.3927C22.4678 12.1628 22.3146 11.9571 22.1251 11.7881C20.9724 10.6612 19.4245 10.0303 17.8126 10.0303C16.2006 10.0303 14.6527 10.6612 13.5001 11.7881Z" fill="url(#paint2_linear_17_1454)"/>
</g>
<defs>
<linearGradient id="paint0_linear_17_1454" x1="3.75" y1="16.875" x2="26.0259" y2="51.1457" gradientUnits="userSpaceOnUse">
<stop stop-color="#FD5309"/>
<stop offset="1" stop-color="#FF9101"/>
</linearGradient>
<linearGradient id="paint1_linear_17_1454" x1="8.5022" y1="3.75439" x2="12.8174" y2="15.6742" gradientUnits="userSpaceOnUse">
<stop stop-color="#FD5309"/>
<stop offset="1" stop-color="#FF9101"/>
</linearGradient>
<linearGradient id="paint2_linear_17_1454" x1="12.8728" y1="10.0303" x2="16.9434" y2="18.0216" gradientUnits="userSpaceOnUse">
<stop stop-color="#FD5309"/>
<stop offset="1" stop-color="#FF9101"/>
</linearGradient>
</defs>
</svg>
