<svg width="45" height="45" viewBox="0 0 45 45" fill="none" xmlns="http://www.w3.org/2000/svg">
<g id="Icone suporte">
<g id="Line">
<path id="Vector" d="M37.5 7.96875H31.2563C30.9357 6.38054 30.075 4.95234 28.8205 3.9269C27.5661 2.90146 25.9952 2.34205 24.375 2.34375H9.375C7.5102 2.34375 5.72177 3.08454 4.40316 4.40316C3.08454 5.72177 2.34375 7.5102 2.34375 9.375V35.625C2.34375 37.4898 3.08454 39.2782 4.40316 40.5968C5.72177 41.9155 7.5102 42.6562 9.375 42.6562H24.375C26.2398 42.6562 28.0282 41.9155 29.3468 40.5968C30.6655 39.2782 31.4062 37.4898 31.4062 35.625V31.0312H37.5C38.8675 31.0312 40.179 30.488 41.146 29.521C42.113 28.554 42.6562 27.2425 42.6562 25.875V13.125C42.6562 11.7575 42.113 10.446 41.146 9.47898C40.179 8.512 38.8675 7.96875 37.5 7.96875ZM28.5938 35.625C28.5938 36.7439 28.1493 37.8169 27.3581 38.6081C26.5669 39.3993 25.4939 39.8438 24.375 39.8438H9.375C8.25612 39.8438 7.18306 39.3993 6.39189 38.6081C5.60072 37.8169 5.15625 36.7439 5.15625 35.625V9.375C5.15625 8.25612 5.60072 7.18307 6.39189 6.3919C7.18306 5.60073 8.25612 5.15625 9.375 5.15625H24.375C25.2444 5.1579 26.0919 5.42933 26.8006 5.93309C27.5092 6.43686 28.044 7.14812 28.3312 7.96875H18.75C17.3825 7.96875 16.071 8.512 15.104 9.47898C14.137 10.446 13.5938 11.7575 13.5938 13.125V25.875C13.5938 27.2425 14.137 28.554 15.104 29.521C16.071 30.488 17.3825 31.0312 18.75 31.0312H19.8563V34.6875C19.8556 34.9547 19.9312 35.2165 20.0739 35.4423C20.2167 35.6681 20.4209 35.8485 20.6625 35.9625C20.8495 36.0524 21.055 36.0974 21.2625 36.0938C21.599 36.0933 21.9245 35.9737 22.1812 35.7563L27.6187 31.0312H28.5938V35.625ZM39.8438 25.875C39.8438 26.4966 39.5968 27.0927 39.1573 27.5323C38.7177 27.9718 38.1216 28.2188 37.5 28.2188H27.0938C26.7584 28.2254 26.4349 28.3442 26.175 28.5563L22.6688 31.6125V29.625C22.6639 29.2536 22.5142 28.8987 22.2515 28.636C21.9888 28.3733 21.634 28.2236 21.2625 28.2188H18.75C18.1284 28.2188 17.5323 27.9718 17.0927 27.5323C16.6532 27.0927 16.4062 26.4966 16.4062 25.875V13.125C16.4062 12.5034 16.6532 11.9073 17.0927 11.4677C17.5323 11.0282 18.1284 10.7813 18.75 10.7813H37.5C38.1216 10.7813 38.7177 11.0282 39.1573 11.4677C39.5968 11.9073 39.8438 12.5034 39.8438 13.125V25.875ZM35.1562 15.9375C35.1514 16.309 35.0017 16.6638 34.739 16.9265C34.4763 17.1892 34.1215 17.3389 33.75 17.3438H22.5C22.127 17.3438 21.7694 17.1956 21.5056 16.9319C21.2419 16.6681 21.0938 16.3105 21.0938 15.9375C21.0938 15.5645 21.2419 15.2069 21.5056 14.9431C21.7694 14.6794 22.127 14.5313 22.5 14.5313H33.75C34.1215 14.5361 34.4763 14.6858 34.739 14.9485C35.0017 15.2112 35.1514 15.5661 35.1562 15.9375ZM35.1562 23.4375C35.1514 23.809 35.0017 24.1638 34.739 24.4265C34.4763 24.6892 34.1215 24.8389 33.75 24.8438H22.5C22.127 24.8438 21.7694 24.6956 21.5056 24.4319C21.2419 24.1681 21.0938 23.8105 21.0938 23.4375C21.0938 23.0645 21.2419 22.7069 21.5056 22.4431C21.7694 22.1794 22.127 22.0313 22.5 22.0313H33.75C34.1215 22.0361 34.4763 22.1858 34.739 22.4485C35.0017 22.7112 35.1514 23.0661 35.1562 23.4375Z" fill="url(#paint0_linear_17_1401)"/>
</g>
</g>
<defs>
<linearGradient id="paint0_linear_17_1401" x1="2.34375" y1="2.34375" x2="42.6562" y2="42.6562" gradientUnits="userSpaceOnUse">
<stop stop-color="#FD5309"/>
<stop offset="1" stop-color="#FF9101"/>
</linearGradient>
</defs>
</svg>
