<svg width="44" height="44" viewBox="0 0 44 44" fill="none" xmlns="http://www.w3.org/2000/svg">
<g id="Icon Acesso" clip-path="url(#clip0_17_1416)">
<path id="Vector" d="M25.5413 7.73438C26.2532 7.73438 26.8303 7.15722 26.8303 6.44531C26.8303 5.73341 26.2532 5.15625 25.5413 5.15625H18.4944C17.7825 5.15625 17.2053 5.73341 17.2053 6.44531C17.2053 7.15722 17.7825 7.73438 18.4944 7.73438H25.5413Z" fill="url(#paint0_linear_17_1416)"/>
<path id="Vector_2" d="M30.7217 22.3575H35.2784C35.9903 22.3575 36.5675 21.7803 36.5675 21.0684C36.5675 20.3565 35.9903 19.7794 35.2784 19.7794H30.7217C30.0098 19.7794 29.4326 20.3565 29.4326 21.0684C29.4326 21.7803 30.0098 22.3575 30.7217 22.3575Z" fill="url(#paint1_linear_17_1416)"/>
<path id="Vector_3" d="M44 19.3497C44 16.9818 42.2496 15.0153 39.9749 14.6755L39.9788 4.72656C39.9788 2.12034 37.8585 0 35.2523 0H8.78352C6.17729 0 4.05696 2.12034 4.05696 4.72656V24.237L0.597716 28.8837C-0.0855734 29.8017 -0.191019 31.0071 0.32263 32.0297C0.836278 33.0522 1.86615 33.6875 3.01041 33.6875H22V39.2734C22 41.8797 24.1204 44 26.7266 44H39.2735C41.8797 44 44 41.8797 44 39.2734V19.3497ZM39.2735 41.4219H26.7266C25.5419 41.4219 24.5781 40.4581 24.5781 39.2734V38.8438H41.4219V39.2734C41.4219 40.4581 40.4581 41.4219 39.2735 41.4219ZM24.5781 19.3497C24.5781 18.165 25.5419 17.2013 26.7266 17.2013H39.2735C40.4581 17.2013 41.4219 18.165 41.4219 19.3497V36.2656H24.5781V19.3497ZM6.63508 4.72656C6.63508 3.54191 7.59887 2.57812 8.78352 2.57812H35.2523C36.4369 2.57812 37.4007 3.54191 37.4007 4.72656L37.3968 14.6231H26.7266C24.1204 14.6231 22 16.7435 22 19.3497V23.375H6.63508V4.72656ZM3.01041 31.1094C2.77975 31.1094 2.67087 30.961 2.62644 30.8725C2.58193 30.7841 2.52796 30.608 2.66572 30.4231L5.99339 25.9531H22V31.1094H3.01041Z" fill="url(#paint2_linear_17_1416)"/>
</g>
<defs>
<linearGradient id="paint0_linear_17_1416" x1="17.2053" y1="5.15625" x2="18.494" y2="9.96732" gradientUnits="userSpaceOnUse">
<stop stop-color="#FD5309"/>
<stop offset="1" stop-color="#FF9101"/>
</linearGradient>
<linearGradient id="paint1_linear_17_1416" x1="29.4326" y1="19.7794" x2="31.0806" y2="24.3401" gradientUnits="userSpaceOnUse">
<stop stop-color="#FD5309"/>
<stop offset="1" stop-color="#FF9101"/>
</linearGradient>
<linearGradient id="paint2_linear_17_1416" x1="0" y1="0" x2="44" y2="44" gradientUnits="userSpaceOnUse">
<stop stop-color="#FD5309"/>
<stop offset="1" stop-color="#FF9101"/>
</linearGradient>
<clipPath id="clip0_17_1416">
<rect width="44" height="44" fill="white"/>
</clipPath>
</defs>
</svg>
