<svg width="46" height="45" viewBox="0 0 46 45" fill="none" xmlns="http://www.w3.org/2000/svg">
<g id="Icone Workshop">
<path id="Vector" d="M40.25 15.4688V11.25C40.25 10.1311 39.7957 9.05806 38.9869 8.26689C38.1781 7.47572 37.0812 7.03125 35.9375 7.03125V5.625C35.9375 4.50612 35.4832 3.43306 34.6744 2.64189C33.8656 1.85072 32.7687 1.40625 31.625 1.40625H14.375C13.2313 1.40625 12.1344 1.85072 11.3256 2.64189C10.5169 3.43306 10.0625 4.50612 10.0625 5.625V7.03125C8.91875 7.03125 7.82185 7.47572 7.0131 8.26689C6.20435 9.05806 5.75 10.1311 5.75 11.25V15.4688C4.60625 15.4688 3.50935 15.9132 2.7006 16.7044C1.89185 17.4956 1.4375 18.5686 1.4375 19.6875V39.375C1.4375 40.4939 1.89185 41.5669 2.7006 42.3581C3.50935 43.1493 4.60625 43.5938 5.75 43.5938H40.25C41.3937 43.5938 42.4906 43.1493 43.2994 42.3581C44.1082 41.5669 44.5625 40.4939 44.5625 39.375V19.6875C44.5625 18.5686 44.1082 17.4956 43.2994 16.7044C42.4906 15.9132 41.3937 15.4688 40.25 15.4688ZM12.9375 5.625C12.9375 5.25204 13.089 4.89435 13.3585 4.63063C13.6281 4.36691 13.9938 4.21875 14.375 4.21875H31.625C32.0062 4.21875 32.3719 4.36691 32.6415 4.63063C32.9111 4.89435 33.0625 5.25204 33.0625 5.625V7.03125H12.9375V5.625ZM8.625 11.25C8.625 10.877 8.77645 10.5194 9.04603 10.2556C9.31562 9.99191 9.68125 9.84375 10.0625 9.84375H35.9375C36.3187 9.84375 36.6844 9.99191 36.954 10.2556C37.2235 10.5194 37.375 10.877 37.375 11.25V15.4688H8.625V11.25ZM41.6875 39.375C41.6875 39.748 41.536 40.1056 41.2665 40.3694C40.9969 40.6331 40.6312 40.7812 40.25 40.7812H5.75C5.36875 40.7812 5.00312 40.6331 4.73353 40.3694C4.46395 40.1056 4.3125 39.748 4.3125 39.375V19.6875C4.3125 19.3145 4.46395 18.9569 4.73353 18.6931C5.00312 18.4294 5.36875 18.2812 5.75 18.2812H40.25C40.6312 18.2812 40.9969 18.4294 41.2665 18.6931C41.536 18.9569 41.6875 19.3145 41.6875 19.6875V39.375Z" fill="url(#paint0_linear_17_1447)"/>
<path id="Vector_2" d="M30.1875 27L21.9219 21.9375C21.4583 21.6571 20.9265 21.5029 20.3816 21.4908C19.8367 21.4786 19.2983 21.609 18.8221 21.8684C18.3459 22.1279 17.9492 22.507 17.6728 22.9666C17.3964 23.4262 17.2505 23.9496 17.25 24.4828V34.5797C17.2482 35.1129 17.3926 35.6368 17.6682 36.0969C17.9438 36.5569 18.3405 36.9363 18.8169 37.1953C19.2938 37.4555 19.8332 37.5862 20.3792 37.5739C20.9251 37.5615 21.4578 37.4065 21.9219 37.125L30.1875 32.0625C30.6272 31.7948 30.99 31.422 31.2415 30.9791C31.493 30.5362 31.625 30.0379 31.625 29.5313C31.625 29.0246 31.493 28.5263 31.2415 28.0834C30.99 27.6405 30.6272 27.2677 30.1875 27ZM28.6638 29.6859L20.3981 34.7344C20.3702 34.7486 20.3391 34.7557 20.3076 34.7551C20.2761 34.7544 20.2454 34.7459 20.2181 34.7305C20.1909 34.7151 20.168 34.6931 20.1518 34.6668C20.1355 34.6404 20.1263 34.6105 20.125 34.5797V24.4828C20.1216 24.4515 20.128 24.4199 20.1434 24.3923C20.1588 24.3646 20.1825 24.3423 20.2113 24.3281C20.2439 24.3174 20.2792 24.3174 20.3119 24.3281H20.3981L28.6638 29.3766C28.6905 29.393 28.7125 29.4159 28.7278 29.4429C28.743 29.47 28.751 29.5004 28.751 29.5313C28.751 29.5622 28.743 29.5925 28.7278 29.6196C28.7125 29.6467 28.6905 29.6695 28.6638 29.6859Z" fill="url(#paint1_linear_17_1447)"/>
</g>
<defs>
<linearGradient id="paint0_linear_17_1447" x1="1.4375" y1="1.40625" x2="43.6148" y2="44.5208" gradientUnits="userSpaceOnUse">
<stop stop-color="#FD5309"/>
<stop offset="1" stop-color="#FF9101"/>
</linearGradient>
<linearGradient id="paint1_linear_17_1447" x1="17.25" y1="21.49" x2="33.2337" y2="35.7747" gradientUnits="userSpaceOnUse">
<stop stop-color="#FD5309"/>
<stop offset="1" stop-color="#FF9101"/>
</linearGradient>
</defs>
</svg>
