<svg width="45" height="45" viewBox="0 0 45 45" fill="none" xmlns="http://www.w3.org/2000/svg">
<g id="Icone biblioteca" clip-path="url(#clip0_17_1420)">
<g id="Group">
<path id="Vector" d="M43.846 37.769L32.7172 3.53471C32.0267 1.41248 29.6994 0.234367 27.5293 0.908633L23.5077 2.15834C23.2279 2.24539 22.9626 2.36046 22.7141 2.49908C21.9958 1.30429 20.668 0.5 19.151 0.5H14.9323C13.8465 0.5 12.8578 0.912328 12.1198 1.58453C11.3816 0.912328 10.3931 0.5 9.30725 0.5H5.0885C2.81073 0.5 0.957642 2.31191 0.957642 4.53906V40.4609C0.957642 42.6881 2.81073 44.5 5.0885 44.5H9.30725C10.3931 44.5 11.3817 44.0877 12.1198 43.4155C12.8578 44.0876 13.8465 44.5 14.9323 44.5H19.151C21.4288 44.5 23.2819 42.6881 23.2819 40.4609V14.7949L31.9518 41.4653C32.5104 43.1823 34.1405 44.2814 35.8921 44.2814C36.3054 44.2814 36.7255 44.2202 37.1398 44.0915L41.1614 42.8418C42.2126 42.5146 43.071 41.8069 43.5781 40.8491C44.0854 39.8907 44.1805 38.7967 43.846 37.769ZM37.0732 25.4458L30.2048 27.5805L25.8918 14.3126L32.7602 12.178L37.0732 25.4458ZM37.872 27.9027L38.7772 30.6874L31.9088 32.822L31.0036 30.0374L37.872 27.9027ZM13.4381 12.7891H20.6451V26.7109H13.4381V12.7891ZM10.8014 26.7109H3.59436V12.7891H10.8014V26.7109ZM3.59436 29.2891H10.8014V32.2109H3.59436V29.2891ZM13.4381 29.2891H20.6451V32.2109H13.4381V29.2891ZM14.9323 3.07812H19.151C19.9749 3.07812 20.6451 3.73348 20.6451 4.53906V10.2109H13.4381V4.53906C13.4381 3.73348 14.1084 3.07812 14.9323 3.07812ZM5.0885 3.07812H9.30725C10.1311 3.07812 10.8014 3.73348 10.8014 4.53906V10.2109H3.59436V4.53906C3.59436 3.73348 4.26461 3.07812 5.0885 3.07812ZM9.30725 41.9219H5.0885C4.26461 41.9219 3.59436 41.2665 3.59436 40.4609V34.7891H10.8014V40.4609C10.8014 41.2665 10.1311 41.9219 9.30725 41.9219ZM19.151 41.9219H14.9323C14.1084 41.9219 13.4381 41.2665 13.4381 40.4609V34.7891H20.6451V40.4609C20.6451 41.2665 19.9749 41.9219 19.151 41.9219ZM23.2819 5.80071C23.3629 5.2477 23.7599 4.78536 24.3069 4.61512L28.3278 3.36559C29.113 3.1217 29.9548 3.5482 30.2046 4.31588L31.9616 9.72092L25.0932 11.8556L23.3362 6.45074C23.3102 6.37091 23.2819 5.80071 23.2819 5.80071ZM41.2364 39.6638C41.0529 40.0105 40.7421 40.2665 40.3621 40.3849L36.3412 41.6344C35.5564 41.8783 34.7142 41.4519 34.4645 40.6841L32.7074 35.2791L39.5758 33.1444L41.3332 38.5505C41.4542 38.9221 41.4198 39.3174 41.2364 39.6638Z" fill="url(#paint0_linear_17_1420)"/>
</g>
</g>
<defs>
<linearGradient id="paint0_linear_17_1420" x1="0.957642" y1="0.5" x2="44.9479" y2="43.5752" gradientUnits="userSpaceOnUse">
<stop stop-color="#FD5309"/>
<stop offset="1" stop-color="#FF9101"/>
</linearGradient>
<clipPath id="clip0_17_1420">
<rect width="45" height="44" fill="white" transform="translate(0 0.5)"/>
</clipPath>
</defs>
</svg>
