<svg width="71" height="70" viewBox="0 0 71 70" fill="none" xmlns="http://www.w3.org/2000/svg">
<g id="Rocket" clip-path="url(#clip0_107_360)">
<g id="Group">
<path id="Vector" d="M35.8744 30.8985C39.6437 30.8985 42.7102 27.832 42.7102 24.0627C42.7102 20.2934 39.6437 17.2269 35.8744 17.2269C32.1051 17.2269 29.0386 20.2934 29.0386 24.0627C29.0386 27.832 32.1051 30.8985 35.8744 30.8985ZM35.8744 19.9612C38.136 19.9612 39.9759 21.8011 39.9759 24.0627C39.9759 26.3243 38.136 28.1642 35.8744 28.1642C33.6128 28.1642 31.7729 26.3243 31.7729 24.0627C31.7729 21.8011 33.6128 19.9612 35.8744 19.9612Z" fill="url(#paint0_linear_107_360)"/>
<path id="Vector_2" d="M25.857 61.6281C25.1876 58.7239 22.6628 56.5212 19.6031 56.3402C17.8186 52.6515 13.6493 50.3486 9.3368 50.9576C4.82912 51.5939 0.875 56.02 0.875 60.4296C0.875 65.3827 5.19032 69.9998 10.7186 69.9998H29.7222C30.4772 69.9998 31.0894 69.3877 31.0894 68.6326C31.0894 67.8775 30.4772 67.2655 29.7222 67.2655H10.7186C6.93141 67.2655 3.60933 64.0712 3.60933 60.4296C3.60933 57.3957 6.57854 54.1084 9.71893 53.6652C12.4956 53.2728 15.2681 54.5721 16.7233 56.7926C15.844 57.1339 15.0365 57.6552 14.3611 58.3317C13.8277 58.866 13.8284 59.7317 14.3626 60.2653C14.6295 60.5318 14.9791 60.6649 15.3285 60.6649C15.6788 60.6649 16.0289 60.5311 16.296 60.2638C16.9855 59.5731 17.8869 59.1087 19.1949 59.0626C21.4565 59.0626 23.2964 60.9025 23.2964 63.1641C23.2964 63.9192 23.9086 64.5313 24.6636 64.5313C28.5172 64.5313 31.7728 61.4009 31.7728 57.6954V52.7736H39.9758V57.6954C39.9758 61.4009 43.2314 64.5313 47.0851 64.5313C47.84 64.5313 48.4522 63.9192 48.4522 63.1641C48.4522 60.9025 50.2922 59.0626 52.5511 59.0626C53.7841 59.1009 54.7249 59.535 55.4527 60.2638C55.984 60.7959 56.8494 60.8009 57.3861 60.2653C57.9204 59.7318 57.9211 58.8661 57.3876 58.3317C56.7123 57.6552 55.9048 57.1339 55.0253 56.7926C56.4802 54.5724 59.2522 53.2732 62.0301 53.6652C65.2296 54.1163 68.1986 57.4574 68.1397 60.5398C68.0688 64.1855 64.8131 67.2655 61.0302 67.2655H42.0267C41.2718 67.2655 40.6595 67.8775 40.6595 68.6326C40.6595 69.3877 41.2718 69.9998 42.0267 69.9998H61.0303C66.267 69.9998 70.7745 65.692 70.8736 60.5925C70.9594 56.1076 67.0054 51.6054 62.4122 50.9576C58.0977 50.3487 53.9298 52.6528 52.1458 56.3402C49.0861 56.521 46.5613 58.7239 45.892 61.6281C44.0991 61.1144 42.7103 59.496 42.7103 57.6953V52.7735H44.0774C44.7628 52.7735 45.3421 52.2661 45.4326 51.5869L46.0037 47.3048H52.0207C54.4255 47.3048 56.3819 45.3484 56.3819 42.9436C56.3819 41.9038 56.0093 40.8961 55.3324 40.1056L48.0902 31.6567L48.7943 26.3762C50.186 15.9312 45.1041 5.31301 36.578 0.195839C36.1449 -0.064059 35.6039 -0.064059 35.1708 0.195839C26.6428 5.3141 21.5632 15.9334 22.9545 26.3767L23.6586 31.6568L16.4161 40.1062C15.7397 40.8962 15.367 41.9038 15.367 42.9436C15.367 45.3484 17.3235 47.3048 19.7282 47.3048H25.7453L26.3163 51.5869C26.4068 52.2661 26.9861 52.7735 27.6715 52.7735H29.0386V57.6953C29.0386 59.496 27.6499 61.1144 25.857 61.6281ZM53.2559 41.8847C53.5086 42.1797 53.6476 42.5557 53.6476 42.9437C53.6476 43.8408 52.9177 44.5706 52.0207 44.5706H46.3683L47.6054 35.2928L53.2559 41.8847ZM35.8745 2.98253C37.9571 4.35148 39.8249 6.12551 41.3825 8.20388H30.3664C31.9239 6.12551 33.7919 4.35148 35.8745 2.98253ZM28.5968 10.9382H43.1523C45.7263 15.565 46.7671 20.8883 46.0842 26.015L43.6093 44.5705H28.1393L25.6649 26.0153C24.9818 20.8884 26.0227 15.5652 28.5968 10.9382ZM19.7282 44.5705C18.8311 44.5705 18.1013 43.8407 18.1013 42.9436C18.1013 42.5557 18.2405 42.1796 18.4926 41.8851L24.1435 35.2928L25.3806 44.5705H19.7282ZM28.5039 47.3048H43.2448L42.8805 50.0392H28.8685L28.5039 47.3048Z" fill="url(#paint1_linear_107_360)"/>
<path id="Vector_3" d="M35.8745 69.9995C36.6296 69.9995 37.2417 69.3874 37.2417 68.6323C37.2417 67.8772 36.6296 67.2651 35.8745 67.2651C35.1194 67.2651 34.5073 67.8772 34.5073 68.6323C34.5073 69.3874 35.1194 69.9995 35.8745 69.9995Z" fill="url(#paint2_linear_107_360)"/>
</g>
</g>
<defs>
<linearGradient id="paint0_linear_107_360" x1="35.8744" y1="17.2269" x2="35.8744" y2="30.8985" gradientUnits="userSpaceOnUse">
<stop stop-color="#FF5900"/>
<stop offset="0.0001" stop-color="#FF5900"/>
<stop offset="1" stop-color="#FF9100"/>
</linearGradient>
<linearGradient id="paint1_linear_107_360" x1="35.875" y1="0.000915527" x2="35.875" y2="69.9998" gradientUnits="userSpaceOnUse">
<stop stop-color="#FF5900"/>
<stop offset="0.0001" stop-color="#FF5900"/>
<stop offset="1" stop-color="#FF9100"/>
</linearGradient>
<linearGradient id="paint2_linear_107_360" x1="35.8745" y1="67.2651" x2="35.8745" y2="69.9995" gradientUnits="userSpaceOnUse">
<stop stop-color="#FF5900"/>
<stop offset="0.0001" stop-color="#FF5900"/>
<stop offset="1" stop-color="#FF9100"/>
</linearGradient>
<clipPath id="clip0_107_360">
<rect width="70" height="70" fill="white" transform="translate(0.875)"/>
</clipPath>
</defs>
</svg>
