<svg width="71" height="70" viewBox="0 0 71 70" fill="none" xmlns="http://www.w3.org/2000/svg">
<g id="ways" clip-path="url(#clip0_109_543)">
<g id="Group">
<path id="Vector" d="M70.0345 23.1322C69.8722 22.6046 69.5043 22.1645 69.0136 21.9117L54.9629 14.6705C53.4167 13.8076 51.4783 15.4436 52.0683 17.1126L53.2746 20.9238C50.2846 22.3982 45.8324 25.3692 42.1656 29.3072V15.3082H45.5152C47.2513 15.3659 48.2414 13.0969 47.0194 11.8632L36.6288 0.651265C35.8585 -0.216763 34.3907 -0.216763 33.6204 0.651265L23.2296 11.8632C22.0077 13.0973 22.998 15.3658 24.734 15.3082C24.7338 15.3082 28.0836 15.3082 28.0836 15.3082V29.3072C24.4139 25.3671 19.9674 22.4003 16.9746 20.9238L18.181 17.1127C18.7711 15.4434 16.8323 13.8076 15.2864 14.6707L1.23543 21.9117C0.230276 22.4042 -0.181384 23.7433 0.373694 24.7154L7.70059 38.1751C8.47633 39.7192 10.9263 39.5173 11.4389 37.8676L12.5679 34.6181C14.0866 35.5859 15.9898 37.0126 17.8547 38.9868C20.7627 42.066 23.0905 45.8715 24.7737 50.2982C26.3694 54.4888 27.4247 59.1475 27.9105 64.1448C28.027 65.3417 28.0836 66.5861 28.0836 67.949C28.0836 69.0817 29.0018 69.9999 30.1344 69.9999H40.0726H40.115C41.2475 69.9999 42.1657 69.0817 42.1657 67.949V55.7316C44.226 49.2503 49.4858 42.0669 52.3944 38.9869C54.2592 37.0126 56.1626 35.5858 57.6811 34.6181L58.8102 37.8676C59.3228 39.5178 61.7734 39.7185 62.5486 38.1751L69.8754 24.7154C70.1392 24.2306 70.1966 23.6598 70.0345 23.1322ZM35.1245 5.06249L40.8182 11.2062H40.1147C38.9821 11.2062 38.0639 12.1244 38.0639 13.2571V45.6293C36.5783 41.6445 34.6238 37.8293 32.1849 34.3433V13.2571C32.1849 12.1244 31.2667 11.2062 30.1341 11.2062H29.4305L35.1245 5.06249ZM31.9928 63.7482C31.4716 58.387 30.3325 53.3708 28.6072 48.8397C26.7314 43.9066 24.1171 39.6441 20.8364 36.1705C17.7054 32.8558 14.5048 30.8671 12.371 29.7823C11.3074 29.2103 9.87455 29.7884 9.50459 30.9375L9.08609 32.1418L4.97906 24.597L12.7824 20.5754L12.5244 21.3903C12.2088 22.3878 12.6942 23.4629 13.6513 23.8855C16.3732 25.0876 20.4845 27.4043 24.612 31.6149C25.9949 33.0253 27.2935 34.5676 28.4721 36.2003C30.645 39.2058 32.478 42.596 33.9204 46.2764C36.3575 52.5288 37.5583 59.2116 37.9284 65.8984H32.1423C32.1106 65.1616 32.0609 64.4487 31.9928 63.7482ZM61.1628 32.1417L60.7443 30.9373C60.3745 29.7881 58.9411 29.2104 57.8779 29.7822C55.7441 30.8669 52.5435 32.8556 49.4124 36.1705C47.4935 38.2024 44.6293 41.8908 42.1655 46.0744V35.672C43.2386 34.2351 44.4038 32.8723 45.637 31.6146C49.7643 27.4043 53.8756 25.0876 56.5975 23.8854C57.5545 23.4628 58.04 22.3876 57.7243 21.3903L57.4663 20.5753L65.2697 24.5969L61.1628 32.1417Z" fill="url(#paint0_linear_109_543)"/>
</g>
</g>
<defs>
<linearGradient id="paint0_linear_109_543" x1="35.125" y1="0.000244141" x2="35.125" y2="69.9999" gradientUnits="userSpaceOnUse">
<stop stop-color="#FF5900"/>
<stop offset="0.0001" stop-color="#FF5900"/>
<stop offset="1" stop-color="#FF9100"/>
</linearGradient>
<clipPath id="clip0_109_543">
<rect width="70" height="70" fill="white" transform="translate(0.125)"/>
</clipPath>
</defs>
</svg>
