<svg width="29" height="30" viewBox="0 0 29 30" fill="none" xmlns="http://www.w3.org/2000/svg">
<g id="Icone" clip-path="url(#clip0_120_945)">
<path id="Vector" d="M14.5 29.5C22.5081 29.5 29 23.0081 29 15C29 6.99187 22.5081 0.5 14.5 0.5C6.49187 0.5 0 6.99187 0 15C0 23.0081 6.49187 29.5 14.5 29.5Z" fill="#32BA7C"/>
<path id="Vector_2" d="M10.7949 21.5411L18.2508 28.9969C24.4258 27.3502 29 21.724 29 15.0001C29 14.8628 29 14.7256 29 14.5884L23.1451 9.19092L10.7949 21.5411Z" fill="#0AA06E"/>
<g id="Group">
<path id="Vector_3" d="M14.8658 18.2478C15.5062 18.8881 15.5062 19.9859 14.8658 20.6263L13.5393 21.9528C12.8989 22.5932 11.8011 22.5932 11.1608 21.9528L5.35162 16.0979C4.71124 15.4575 4.71124 14.3598 5.35162 13.7194L6.67812 12.3929C7.3185 11.7525 8.41629 11.7525 9.05667 12.3929L14.8658 18.2478Z" fill="white"/>
<path id="Vector_4" d="M19.943 8.13898C20.5834 7.4986 21.6812 7.4986 22.3216 8.13898L23.6481 9.46547C24.2885 10.1059 24.2885 11.2036 23.6481 11.844L13.585 21.8614C12.9446 22.5017 11.8468 22.5017 11.2064 21.8614L9.87994 20.5349C9.23956 19.8945 9.23956 18.7967 9.87994 18.1563L19.943 8.13898Z" fill="white"/>
</g>
</g>
<defs>
<clipPath id="clip0_120_945">
<rect width="29" height="29" fill="white" transform="translate(0 0.5)"/>
</clipPath>
</defs>
</svg>
