<svg width="30" height="30" viewBox="0 0 30 30" fill="none" xmlns="http://www.w3.org/2000/svg">
<g id="cross 1" clip-path="url(#clip0_120_856)">
<g id="Group">
<path id="Vector" d="M15 29.0625C22.7665 29.0625 29.0625 22.7665 29.0625 15C29.0625 7.2335 22.7665 0.9375 15 0.9375C7.2335 0.9375 0.9375 7.2335 0.9375 15C0.9375 22.7665 7.2335 29.0625 15 29.0625Z" fill="#FF5A54"/>
<path id="Vector_2" fill-rule="evenodd" clip-rule="evenodd" d="M29.059 15.2739C28.9147 22.8228 22.8227 28.9149 15.2738 29.0591C12.885 26.6704 10.4899 24.287 8.10147 21.8986C7.47651 21.2736 7.47645 20.251 8.10141 19.626L12.7273 15.0001L8.10141 10.3742C7.47645 9.74919 7.47645 8.72655 8.10141 8.10159C8.72637 7.47663 9.74901 7.47657 10.374 8.10153L14.9999 12.7275L19.6259 8.10153C20.2508 7.47657 21.2735 7.47657 21.8985 8.10153C24.2869 10.4899 26.6702 12.8851 29.059 15.2739Z" fill="#DB3A3C"/>
<path id="Vector_3" fill-rule="evenodd" clip-rule="evenodd" d="M8.10141 21.8986C8.72637 22.5236 9.74907 22.5236 10.374 21.8986L14.9999 17.2727L19.6259 21.8986C20.2508 22.5236 21.2735 22.5236 21.8984 21.8986C22.5234 21.2736 22.5234 20.251 21.8984 19.626L17.2726 15.0001L21.8985 10.3742C22.5234 9.74919 22.5234 8.72655 21.8985 8.10159C21.2735 7.47663 20.2509 7.47663 19.6259 8.10159L14.9999 12.7275L10.374 8.10153C9.74907 7.47657 8.72643 7.47657 8.10147 8.10153C7.47651 8.72649 7.47651 9.74913 8.10147 10.3741L12.7273 15.0001L8.10141 19.626C7.47645 20.2509 7.47645 21.2736 8.10141 21.8986Z" fill="white"/>
</g>
</g>
<defs>
<clipPath id="clip0_120_856">
<rect width="30" height="30" fill="white"/>
</clipPath>
</defs>
</svg>
