<svg width="1999" height="23" viewBox="0 0 1999 23" fill="none" xmlns="http://www.w3.org/2000/svg">
<path d="M10.712 13.288C12.184 14.136 12.92 15.416 12.92 17.128C12.92 18.552 12.416 19.72 11.408 20.632C10.4 21.544 9.16 22 7.688 22H0.56V5.2H7.184C8.624 5.2 9.832 5.648 10.808 6.544C11.8 7.424 12.296 8.552 12.296 9.928C12.296 11.32 11.768 12.44 10.712 13.288ZM7.184 8.296H3.872V11.992H7.184C7.696 11.992 8.12 11.816 8.456 11.464C8.808 11.112 8.984 10.672 8.984 10.144C8.984 9.616 8.816 9.176 8.48 8.824C8.144 8.472 7.712 8.296 7.184 8.296ZM7.688 18.904C8.248 18.904 8.712 18.72 9.08 18.352C9.448 17.968 9.632 17.488 9.632 16.912C9.632 16.352 9.448 15.888 9.08 15.52C8.712 15.136 8.248 14.944 7.688 14.944H3.872V18.904H7.688ZM22.9633 2.128L21.9073 3.688H18.8353L21.3793 0.207999H24.5233L27.0673 3.688H23.9953L22.9633 2.128ZM16.8433 7.408C18.5393 5.712 20.6033 4.864 23.0353 4.864C25.4673 4.864 27.5313 5.712 29.2273 7.408C30.9233 9.088 31.7713 11.152 31.7713 13.6C31.7713 16.048 30.9233 18.12 29.2273 19.816C27.5313 21.496 25.4673 22.336 23.0353 22.336C20.6033 22.336 18.5393 21.496 16.8433 19.816C15.1633 18.12 14.3232 16.048 14.3232 13.6C14.3232 11.152 15.1633 9.088 16.8433 7.408ZM19.1713 17.56C20.2113 18.584 21.4993 19.096 23.0353 19.096C24.5713 19.096 25.8593 18.584 26.8993 17.56C27.9393 16.52 28.4593 15.2 28.4593 13.6C28.4593 12 27.9393 10.68 26.8993 9.64C25.8593 8.6 24.5713 8.08 23.0353 8.08C21.4993 8.08 20.2113 8.6 19.1713 9.64C18.1313 10.68 17.6113 12 17.6113 13.6C17.6113 15.2 18.1313 16.52 19.1713 17.56ZM43.8191 5.2H47.1311V22H44.6111L37.4111 11.728V22H34.0991V5.2H36.6191L43.8191 15.448V5.2ZM56.5115 22.336C54.6395 22.336 53.1035 21.808 51.9035 20.752C50.7035 19.696 50.1035 18.28 50.1035 16.504V5.2H53.3915V16.24C53.3915 17.12 53.6395 17.816 54.1355 18.328C54.6475 18.84 55.4395 19.096 56.5115 19.096C57.5835 19.096 58.3675 18.84 58.8635 18.328C59.3755 17.816 59.6315 17.12 59.6315 16.24V5.2H62.9435V16.504C62.9435 18.28 62.3435 19.696 61.1435 20.752C59.9435 21.808 58.3995 22.336 56.5115 22.336ZM71.6632 22.336C69.9992 22.336 68.5992 21.968 67.4632 21.232C66.3272 20.48 65.5272 19.464 65.0632 18.184L67.8952 16.528C68.5512 18.24 69.8392 19.096 71.7592 19.096C72.6872 19.096 73.3672 18.928 73.7992 18.592C74.2312 18.256 74.4472 17.832 74.4472 17.32C74.4472 16.728 74.1832 16.272 73.6552 15.952C73.1272 15.616 72.1832 15.256 70.8232 14.872C70.0712 14.648 69.4312 14.424 68.9032 14.2C68.3912 13.976 67.8712 13.68 67.3432 13.312C66.8312 12.928 66.4392 12.448 66.1672 11.872C65.8952 11.296 65.7592 10.624 65.7592 9.856C65.7592 8.336 66.2952 7.128 67.3672 6.232C68.4552 5.32 69.7592 4.864 71.2792 4.864C72.6392 4.864 73.8312 5.2 74.8552 5.872C75.8952 6.528 76.7032 7.448 77.2792 8.632L74.4952 10.24C73.8232 8.8 72.7512 8.08 71.2792 8.08C70.5912 8.08 70.0472 8.24 69.6472 8.56C69.2632 8.864 69.0712 9.264 69.0712 9.76C69.0712 10.288 69.2872 10.72 69.7192 11.056C70.1672 11.376 71.0152 11.728 72.2632 12.112C72.7752 12.272 73.1592 12.4 73.4152 12.496C73.6872 12.576 74.0472 12.712 74.4952 12.904C74.9592 13.08 75.3112 13.248 75.5512 13.408C75.8072 13.568 76.0952 13.784 76.4152 14.056C76.7352 14.328 76.9752 14.608 77.1352 14.896C77.3112 15.184 77.4552 15.536 77.5672 15.952C77.6952 16.352 77.7592 16.792 77.7592 17.272C77.7592 18.824 77.1912 20.056 76.0552 20.968C74.9352 21.88 73.4712 22.336 71.6632 22.336ZM88.7274 16.888C87.7994 16.888 87.0074 16.568 86.3514 15.928C85.7114 15.272 85.3914 14.48 85.3914 13.552C85.3914 12.656 85.7114 11.888 86.3514 11.248C87.0074 10.608 87.7994 10.288 88.7274 10.288C89.6234 10.288 90.3914 10.608 91.0314 11.248C91.6714 11.888 91.9914 12.656 91.9914 13.552C91.9914 14.48 91.6714 15.272 91.0314 15.928C90.3914 16.568 89.6234 16.888 88.7274 16.888ZM110.72 13.288C112.192 14.136 112.928 15.416 112.928 17.128C112.928 18.552 112.424 19.72 111.416 20.632C110.408 21.544 109.168 22 107.696 22H100.568V5.2H107.192C108.632 5.2 109.84 5.648 110.816 6.544C111.808 7.424 112.304 8.552 112.304 9.928C112.304 11.32 111.776 12.44 110.72 13.288ZM107.192 8.296H103.88V11.992H107.192C107.704 11.992 108.128 11.816 108.464 11.464C108.816 11.112 108.992 10.672 108.992 10.144C108.992 9.616 108.824 9.176 108.488 8.824C108.152 8.472 107.72 8.296 107.192 8.296ZM107.696 18.904C108.256 18.904 108.72 18.72 109.088 18.352C109.456 17.968 109.64 17.488 109.64 16.912C109.64 16.352 109.456 15.888 109.088 15.52C108.72 15.136 108.256 14.944 107.696 14.944H103.88V18.904H107.696ZM122.971 2.128L121.915 3.688H118.843L121.387 0.207999H124.531L127.075 3.688H124.003L122.971 2.128ZM116.851 7.408C118.547 5.712 120.611 4.864 123.043 4.864C125.475 4.864 127.539 5.712 129.235 7.408C130.931 9.088 131.779 11.152 131.779 13.6C131.779 16.048 130.931 18.12 129.235 19.816C127.539 21.496 125.475 22.336 123.043 22.336C120.611 22.336 118.547 21.496 116.851 19.816C115.171 18.12 114.331 16.048 114.331 13.6C114.331 11.152 115.171 9.088 116.851 7.408ZM119.179 17.56C120.219 18.584 121.507 19.096 123.043 19.096C124.579 19.096 125.867 18.584 126.907 17.56C127.947 16.52 128.467 15.2 128.467 13.6C128.467 12 127.947 10.68 126.907 9.64C125.867 8.6 124.579 8.08 123.043 8.08C121.507 8.08 120.219 8.6 119.179 9.64C118.139 10.68 117.619 12 117.619 13.6C117.619 15.2 118.139 16.52 119.179 17.56ZM143.827 5.2H147.139V22H144.619L137.419 11.728V22H134.107V5.2H136.627L143.827 15.448V5.2ZM156.519 22.336C154.647 22.336 153.111 21.808 151.911 20.752C150.711 19.696 150.111 18.28 150.111 16.504V5.2H153.399V16.24C153.399 17.12 153.647 17.816 154.143 18.328C154.655 18.84 155.447 19.096 156.519 19.096C157.591 19.096 158.375 18.84 158.871 18.328C159.383 17.816 159.639 17.12 159.639 16.24V5.2H162.951V16.504C162.951 18.28 162.351 19.696 161.151 20.752C159.951 21.808 158.407 22.336 156.519 22.336ZM171.671 22.336C170.007 22.336 168.607 21.968 167.471 21.232C166.335 20.48 165.535 19.464 165.071 18.184L167.903 16.528C168.559 18.24 169.847 19.096 171.767 19.096C172.695 19.096 173.375 18.928 173.807 18.592C174.239 18.256 174.455 17.832 174.455 17.32C174.455 16.728 174.191 16.272 173.663 15.952C173.135 15.616 172.191 15.256 170.831 14.872C170.079 14.648 169.439 14.424 168.911 14.2C168.399 13.976 167.879 13.68 167.351 13.312C166.839 12.928 166.447 12.448 166.175 11.872C165.903 11.296 165.767 10.624 165.767 9.856C165.767 8.336 166.303 7.128 167.375 6.232C168.463 5.32 169.767 4.864 171.287 4.864C172.647 4.864 173.839 5.2 174.863 5.872C175.903 6.528 176.711 7.448 177.287 8.632L174.503 10.24C173.831 8.8 172.759 8.08 171.287 8.08C170.599 8.08 170.055 8.24 169.655 8.56C169.271 8.864 169.079 9.264 169.079 9.76C169.079 10.288 169.295 10.72 169.727 11.056C170.175 11.376 171.023 11.728 172.271 12.112C172.783 12.272 173.167 12.4 173.423 12.496C173.695 12.576 174.055 12.712 174.503 12.904C174.967 13.08 175.319 13.248 175.559 13.408C175.815 13.568 176.103 13.784 176.423 14.056C176.743 14.328 176.983 14.608 177.143 14.896C177.319 15.184 177.463 15.536 177.575 15.952C177.703 16.352 177.767 16.792 177.767 17.272C177.767 18.824 177.199 20.056 176.063 20.968C174.943 21.88 173.479 22.336 171.671 22.336ZM188.735 16.888C187.807 16.888 187.015 16.568 186.359 15.928C185.719 15.272 185.399 14.48 185.399 13.552C185.399 12.656 185.719 11.888 186.359 11.248C187.015 10.608 187.807 10.288 188.735 10.288C189.631 10.288 190.399 10.608 191.039 11.248C191.679 11.888 191.999 12.656 191.999 13.552C191.999 14.48 191.679 15.272 191.039 15.928C190.399 16.568 189.631 16.888 188.735 16.888ZM210.728 13.288C212.2 14.136 212.936 15.416 212.936 17.128C212.936 18.552 212.432 19.72 211.424 20.632C210.416 21.544 209.176 22 207.704 22H200.576V5.2H207.2C208.64 5.2 209.848 5.648 210.824 6.544C211.816 7.424 212.312 8.552 212.312 9.928C212.312 11.32 211.784 12.44 210.728 13.288ZM207.2 8.296H203.888V11.992H207.2C207.712 11.992 208.136 11.816 208.472 11.464C208.824 11.112 209 10.672 209 10.144C209 9.616 208.832 9.176 208.496 8.824C208.16 8.472 207.728 8.296 207.2 8.296ZM207.704 18.904C208.264 18.904 208.728 18.72 209.096 18.352C209.464 17.968 209.648 17.488 209.648 16.912C209.648 16.352 209.464 15.888 209.096 15.52C208.728 15.136 208.264 14.944 207.704 14.944H203.888V18.904H207.704ZM222.979 2.128L221.923 3.688H218.851L221.395 0.207999H224.539L227.083 3.688H224.011L222.979 2.128ZM216.859 7.408C218.555 5.712 220.619 4.864 223.051 4.864C225.483 4.864 227.547 5.712 229.243 7.408C230.939 9.088 231.787 11.152 231.787 13.6C231.787 16.048 230.939 18.12 229.243 19.816C227.547 21.496 225.483 22.336 223.051 22.336C220.619 22.336 218.555 21.496 216.859 19.816C215.179 18.12 214.339 16.048 214.339 13.6C214.339 11.152 215.179 9.088 216.859 7.408ZM219.187 17.56C220.227 18.584 221.515 19.096 223.051 19.096C224.587 19.096 225.875 18.584 226.915 17.56C227.955 16.52 228.475 15.2 228.475 13.6C228.475 12 227.955 10.68 226.915 9.64C225.875 8.6 224.587 8.08 223.051 8.08C221.515 8.08 220.227 8.6 219.187 9.64C218.147 10.68 217.627 12 217.627 13.6C217.627 15.2 218.147 16.52 219.187 17.56ZM243.835 5.2H247.147V22H244.627L237.427 11.728V22H234.115V5.2H236.635L243.835 15.448V5.2ZM256.527 22.336C254.655 22.336 253.119 21.808 251.919 20.752C250.719 19.696 250.119 18.28 250.119 16.504V5.2H253.407V16.24C253.407 17.12 253.655 17.816 254.151 18.328C254.663 18.84 255.455 19.096 256.527 19.096C257.599 19.096 258.383 18.84 258.879 18.328C259.391 17.816 259.647 17.12 259.647 16.24V5.2H262.959V16.504C262.959 18.28 262.359 19.696 261.159 20.752C259.959 21.808 258.415 22.336 256.527 22.336ZM271.679 22.336C270.015 22.336 268.615 21.968 267.479 21.232C266.343 20.48 265.543 19.464 265.079 18.184L267.911 16.528C268.567 18.24 269.855 19.096 271.775 19.096C272.703 19.096 273.383 18.928 273.815 18.592C274.247 18.256 274.463 17.832 274.463 17.32C274.463 16.728 274.199 16.272 273.671 15.952C273.143 15.616 272.199 15.256 270.839 14.872C270.087 14.648 269.447 14.424 268.919 14.2C268.407 13.976 267.887 13.68 267.359 13.312C266.847 12.928 266.455 12.448 266.183 11.872C265.911 11.296 265.775 10.624 265.775 9.856C265.775 8.336 266.311 7.128 267.383 6.232C268.471 5.32 269.775 4.864 271.295 4.864C272.655 4.864 273.847 5.2 274.871 5.872C275.911 6.528 276.719 7.448 277.295 8.632L274.511 10.24C273.839 8.8 272.767 8.08 271.295 8.08C270.607 8.08 270.063 8.24 269.663 8.56C269.279 8.864 269.087 9.264 269.087 9.76C269.087 10.288 269.303 10.72 269.735 11.056C270.183 11.376 271.031 11.728 272.279 12.112C272.791 12.272 273.175 12.4 273.431 12.496C273.703 12.576 274.063 12.712 274.511 12.904C274.975 13.08 275.327 13.248 275.567 13.408C275.823 13.568 276.111 13.784 276.431 14.056C276.751 14.328 276.991 14.608 277.151 14.896C277.327 15.184 277.471 15.536 277.583 15.952C277.711 16.352 277.775 16.792 277.775 17.272C277.775 18.824 277.207 20.056 276.071 20.968C274.951 21.88 273.487 22.336 271.679 22.336ZM288.743 16.888C287.815 16.888 287.023 16.568 286.367 15.928C285.727 15.272 285.407 14.48 285.407 13.552C285.407 12.656 285.727 11.888 286.367 11.248C287.023 10.608 287.815 10.288 288.743 10.288C289.639 10.288 290.407 10.608 291.047 11.248C291.687 11.888 292.007 12.656 292.007 13.552C292.007 14.48 291.687 15.272 291.047 15.928C290.407 16.568 289.639 16.888 288.743 16.888ZM310.735 13.288C312.207 14.136 312.943 15.416 312.943 17.128C312.943 18.552 312.439 19.72 311.431 20.632C310.423 21.544 309.183 22 307.711 22H300.583V5.2H307.207C308.647 5.2 309.855 5.648 310.831 6.544C311.823 7.424 312.319 8.552 312.319 9.928C312.319 11.32 311.791 12.44 310.735 13.288ZM307.207 8.296H303.895V11.992H307.207C307.719 11.992 308.143 11.816 308.479 11.464C308.831 11.112 309.007 10.672 309.007 10.144C309.007 9.616 308.839 9.176 308.503 8.824C308.167 8.472 307.735 8.296 307.207 8.296ZM307.711 18.904C308.271 18.904 308.735 18.72 309.103 18.352C309.471 17.968 309.655 17.488 309.655 16.912C309.655 16.352 309.471 15.888 309.103 15.52C308.735 15.136 308.271 14.944 307.711 14.944H303.895V18.904H307.711ZM322.987 2.128L321.931 3.688H318.859L321.403 0.207999H324.547L327.091 3.688H324.019L322.987 2.128ZM316.867 7.408C318.563 5.712 320.627 4.864 323.059 4.864C325.491 4.864 327.555 5.712 329.251 7.408C330.947 9.088 331.795 11.152 331.795 13.6C331.795 16.048 330.947 18.12 329.251 19.816C327.555 21.496 325.491 22.336 323.059 22.336C320.627 22.336 318.563 21.496 316.867 19.816C315.187 18.12 314.347 16.048 314.347 13.6C314.347 11.152 315.187 9.088 316.867 7.408ZM319.195 17.56C320.235 18.584 321.523 19.096 323.059 19.096C324.595 19.096 325.883 18.584 326.923 17.56C327.963 16.52 328.483 15.2 328.483 13.6C328.483 12 327.963 10.68 326.923 9.64C325.883 8.6 324.595 8.08 323.059 8.08C321.523 8.08 320.235 8.6 319.195 9.64C318.155 10.68 317.635 12 317.635 13.6C317.635 15.2 318.155 16.52 319.195 17.56ZM343.843 5.2H347.155V22H344.635L337.435 11.728V22H334.123V5.2H336.643L343.843 15.448V5.2ZM356.535 22.336C354.663 22.336 353.127 21.808 351.927 20.752C350.727 19.696 350.127 18.28 350.127 16.504V5.2H353.415V16.24C353.415 17.12 353.663 17.816 354.159 18.328C354.671 18.84 355.463 19.096 356.535 19.096C357.607 19.096 358.391 18.84 358.887 18.328C359.399 17.816 359.655 17.12 359.655 16.24V5.2H362.967V16.504C362.967 18.28 362.367 19.696 361.167 20.752C359.967 21.808 358.423 22.336 356.535 22.336ZM371.687 22.336C370.023 22.336 368.623 21.968 367.487 21.232C366.351 20.48 365.551 19.464 365.087 18.184L367.919 16.528C368.575 18.24 369.863 19.096 371.783 19.096C372.711 19.096 373.391 18.928 373.823 18.592C374.255 18.256 374.471 17.832 374.471 17.32C374.471 16.728 374.207 16.272 373.679 15.952C373.151 15.616 372.207 15.256 370.847 14.872C370.095 14.648 369.455 14.424 368.927 14.2C368.415 13.976 367.895 13.68 367.367 13.312C366.855 12.928 366.463 12.448 366.191 11.872C365.919 11.296 365.783 10.624 365.783 9.856C365.783 8.336 366.319 7.128 367.391 6.232C368.479 5.32 369.783 4.864 371.303 4.864C372.663 4.864 373.855 5.2 374.879 5.872C375.919 6.528 376.727 7.448 377.303 8.632L374.519 10.24C373.847 8.8 372.775 8.08 371.303 8.08C370.615 8.08 370.071 8.24 369.671 8.56C369.287 8.864 369.095 9.264 369.095 9.76C369.095 10.288 369.311 10.72 369.743 11.056C370.191 11.376 371.039 11.728 372.287 12.112C372.799 12.272 373.183 12.4 373.439 12.496C373.711 12.576 374.071 12.712 374.519 12.904C374.983 13.08 375.335 13.248 375.575 13.408C375.831 13.568 376.119 13.784 376.439 14.056C376.759 14.328 376.999 14.608 377.159 14.896C377.335 15.184 377.479 15.536 377.591 15.952C377.719 16.352 377.783 16.792 377.783 17.272C377.783 18.824 377.215 20.056 376.079 20.968C374.959 21.88 373.495 22.336 371.687 22.336ZM388.751 16.888C387.823 16.888 387.031 16.568 386.375 15.928C385.735 15.272 385.415 14.48 385.415 13.552C385.415 12.656 385.735 11.888 386.375 11.248C387.031 10.608 387.823 10.288 388.751 10.288C389.647 10.288 390.415 10.608 391.055 11.248C391.695 11.888 392.015 12.656 392.015 13.552C392.015 14.48 391.695 15.272 391.055 15.928C390.415 16.568 389.647 16.888 388.751 16.888ZM410.743 13.288C412.215 14.136 412.951 15.416 412.951 17.128C412.951 18.552 412.447 19.72 411.439 20.632C410.431 21.544 409.191 22 407.719 22H400.591V5.2H407.215C408.655 5.2 409.863 5.648 410.839 6.544C411.831 7.424 412.327 8.552 412.327 9.928C412.327 11.32 411.799 12.44 410.743 13.288ZM407.215 8.296H403.903V11.992H407.215C407.727 11.992 408.151 11.816 408.487 11.464C408.839 11.112 409.015 10.672 409.015 10.144C409.015 9.616 408.847 9.176 408.511 8.824C408.175 8.472 407.743 8.296 407.215 8.296ZM407.719 18.904C408.279 18.904 408.743 18.72 409.111 18.352C409.479 17.968 409.663 17.488 409.663 16.912C409.663 16.352 409.479 15.888 409.111 15.52C408.743 15.136 408.279 14.944 407.719 14.944H403.903V18.904H407.719ZM422.995 2.128L421.939 3.688H418.867L421.411 0.207999H424.555L427.099 3.688H424.027L422.995 2.128ZM416.875 7.408C418.571 5.712 420.635 4.864 423.067 4.864C425.499 4.864 427.563 5.712 429.259 7.408C430.955 9.088 431.803 11.152 431.803 13.6C431.803 16.048 430.955 18.12 429.259 19.816C427.563 21.496 425.499 22.336 423.067 22.336C420.635 22.336 418.571 21.496 416.875 19.816C415.195 18.12 414.354 16.048 414.354 13.6C414.354 11.152 415.195 9.088 416.875 7.408ZM419.203 17.56C420.243 18.584 421.531 19.096 423.067 19.096C424.603 19.096 425.891 18.584 426.931 17.56C427.971 16.52 428.491 15.2 428.491 13.6C428.491 12 427.971 10.68 426.931 9.64C425.891 8.6 424.603 8.08 423.067 8.08C421.531 8.08 420.243 8.6 419.203 9.64C418.163 10.68 417.643 12 417.643 13.6C417.643 15.2 418.163 16.52 419.203 17.56ZM443.85 5.2H447.162V22H444.642L437.442 11.728V22H434.13V5.2H436.65L443.85 15.448V5.2ZM456.543 22.336C454.671 22.336 453.135 21.808 451.935 20.752C450.735 19.696 450.135 18.28 450.135 16.504V5.2H453.423V16.24C453.423 17.12 453.671 17.816 454.167 18.328C454.679 18.84 455.471 19.096 456.543 19.096C457.615 19.096 458.399 18.84 458.895 18.328C459.407 17.816 459.663 17.12 459.663 16.24V5.2H462.975V16.504C462.975 18.28 462.375 19.696 461.175 20.752C459.975 21.808 458.431 22.336 456.543 22.336ZM471.694 22.336C470.03 22.336 468.63 21.968 467.494 21.232C466.358 20.48 465.558 19.464 465.094 18.184L467.926 16.528C468.582 18.24 469.87 19.096 471.79 19.096C472.718 19.096 473.398 18.928 473.83 18.592C474.262 18.256 474.478 17.832 474.478 17.32C474.478 16.728 474.214 16.272 473.686 15.952C473.158 15.616 472.214 15.256 470.854 14.872C470.102 14.648 469.462 14.424 468.934 14.2C468.422 13.976 467.902 13.68 467.374 13.312C466.862 12.928 466.47 12.448 466.198 11.872C465.926 11.296 465.79 10.624 465.79 9.856C465.79 8.336 466.326 7.128 467.398 6.232C468.486 5.32 469.79 4.864 471.31 4.864C472.67 4.864 473.862 5.2 474.886 5.872C475.926 6.528 476.734 7.448 477.31 8.632L474.526 10.24C473.854 8.8 472.782 8.08 471.31 8.08C470.622 8.08 470.078 8.24 469.678 8.56C469.294 8.864 469.102 9.264 469.102 9.76C469.102 10.288 469.318 10.72 469.75 11.056C470.198 11.376 471.046 11.728 472.294 12.112C472.806 12.272 473.19 12.4 473.446 12.496C473.718 12.576 474.078 12.712 474.526 12.904C474.99 13.08 475.342 13.248 475.582 13.408C475.838 13.568 476.126 13.784 476.446 14.056C476.766 14.328 477.006 14.608 477.166 14.896C477.342 15.184 477.486 15.536 477.598 15.952C477.726 16.352 477.79 16.792 477.79 17.272C477.79 18.824 477.222 20.056 476.086 20.968C474.966 21.88 473.502 22.336 471.694 22.336ZM488.759 16.888C487.831 16.888 487.039 16.568 486.383 15.928C485.743 15.272 485.423 14.48 485.423 13.552C485.423 12.656 485.743 11.888 486.383 11.248C487.039 10.608 487.831 10.288 488.759 10.288C489.655 10.288 490.423 10.608 491.063 11.248C491.703 11.888 492.023 12.656 492.023 13.552C492.023 14.48 491.703 15.272 491.063 15.928C490.423 16.568 489.655 16.888 488.759 16.888ZM510.751 13.288C512.223 14.136 512.959 15.416 512.959 17.128C512.959 18.552 512.455 19.72 511.447 20.632C510.439 21.544 509.199 22 507.727 22H500.599V5.2H507.223C508.663 5.2 509.871 5.648 510.847 6.544C511.839 7.424 512.335 8.552 512.335 9.928C512.335 11.32 511.807 12.44 510.751 13.288ZM507.223 8.296H503.911V11.992H507.223C507.735 11.992 508.159 11.816 508.495 11.464C508.847 11.112 509.023 10.672 509.023 10.144C509.023 9.616 508.855 9.176 508.519 8.824C508.183 8.472 507.751 8.296 507.223 8.296ZM507.727 18.904C508.287 18.904 508.751 18.72 509.119 18.352C509.487 17.968 509.671 17.488 509.671 16.912C509.671 16.352 509.487 15.888 509.119 15.52C508.751 15.136 508.287 14.944 507.727 14.944H503.911V18.904H507.727ZM523.002 2.128L521.946 3.688H518.874L521.418 0.207999H524.562L527.106 3.688H524.034L523.002 2.128ZM516.882 7.408C518.578 5.712 520.642 4.864 523.074 4.864C525.506 4.864 527.57 5.712 529.266 7.408C530.962 9.088 531.81 11.152 531.81 13.6C531.81 16.048 530.962 18.12 529.266 19.816C527.57 21.496 525.506 22.336 523.074 22.336C520.642 22.336 518.578 21.496 516.882 19.816C515.202 18.12 514.362 16.048 514.362 13.6C514.362 11.152 515.202 9.088 516.882 7.408ZM519.21 17.56C520.25 18.584 521.538 19.096 523.074 19.096C524.61 19.096 525.898 18.584 526.938 17.56C527.978 16.52 528.498 15.2 528.498 13.6C528.498 12 527.978 10.68 526.938 9.64C525.898 8.6 524.61 8.08 523.074 8.08C521.538 8.08 520.25 8.6 519.21 9.64C518.17 10.68 517.65 12 517.65 13.6C517.65 15.2 518.17 16.52 519.21 17.56ZM543.858 5.2H547.17V22H544.65L537.45 11.728V22H534.138V5.2H536.658L543.858 15.448V5.2ZM556.551 22.336C554.679 22.336 553.143 21.808 551.943 20.752C550.743 19.696 550.143 18.28 550.143 16.504V5.2H553.431V16.24C553.431 17.12 553.679 17.816 554.175 18.328C554.687 18.84 555.479 19.096 556.551 19.096C557.623 19.096 558.407 18.84 558.903 18.328C559.415 17.816 559.671 17.12 559.671 16.24V5.2H562.983V16.504C562.983 18.28 562.383 19.696 561.183 20.752C559.983 21.808 558.439 22.336 556.551 22.336ZM571.702 22.336C570.038 22.336 568.638 21.968 567.502 21.232C566.366 20.48 565.566 19.464 565.102 18.184L567.934 16.528C568.59 18.24 569.878 19.096 571.798 19.096C572.726 19.096 573.406 18.928 573.838 18.592C574.27 18.256 574.486 17.832 574.486 17.32C574.486 16.728 574.222 16.272 573.694 15.952C573.166 15.616 572.222 15.256 570.862 14.872C570.11 14.648 569.47 14.424 568.942 14.2C568.43 13.976 567.91 13.68 567.382 13.312C566.87 12.928 566.478 12.448 566.206 11.872C565.934 11.296 565.798 10.624 565.798 9.856C565.798 8.336 566.334 7.128 567.406 6.232C568.494 5.32 569.798 4.864 571.318 4.864C572.678 4.864 573.87 5.2 574.894 5.872C575.934 6.528 576.742 7.448 577.318 8.632L574.534 10.24C573.862 8.8 572.79 8.08 571.318 8.08C570.63 8.08 570.086 8.24 569.686 8.56C569.302 8.864 569.11 9.264 569.11 9.76C569.11 10.288 569.326 10.72 569.758 11.056C570.206 11.376 571.054 11.728 572.302 12.112C572.814 12.272 573.198 12.4 573.454 12.496C573.726 12.576 574.086 12.712 574.534 12.904C574.998 13.08 575.35 13.248 575.59 13.408C575.846 13.568 576.134 13.784 576.454 14.056C576.774 14.328 577.014 14.608 577.174 14.896C577.35 15.184 577.494 15.536 577.606 15.952C577.734 16.352 577.798 16.792 577.798 17.272C577.798 18.824 577.23 20.056 576.094 20.968C574.974 21.88 573.51 22.336 571.702 22.336ZM588.766 16.888C587.838 16.888 587.046 16.568 586.39 15.928C585.75 15.272 585.43 14.48 585.43 13.552C585.43 12.656 585.75 11.888 586.39 11.248C587.046 10.608 587.838 10.288 588.766 10.288C589.662 10.288 590.43 10.608 591.07 11.248C591.71 11.888 592.03 12.656 592.03 13.552C592.03 14.48 591.71 15.272 591.07 15.928C590.43 16.568 589.662 16.888 588.766 16.888ZM610.759 13.288C612.231 14.136 612.967 15.416 612.967 17.128C612.967 18.552 612.463 19.72 611.455 20.632C610.447 21.544 609.207 22 607.735 22H600.607V5.2H607.231C608.671 5.2 609.879 5.648 610.855 6.544C611.847 7.424 612.343 8.552 612.343 9.928C612.343 11.32 611.815 12.44 610.759 13.288ZM607.231 8.296H603.919V11.992H607.231C607.743 11.992 608.167 11.816 608.503 11.464C608.855 11.112 609.031 10.672 609.031 10.144C609.031 9.616 608.863 9.176 608.527 8.824C608.191 8.472 607.759 8.296 607.231 8.296ZM607.735 18.904C608.295 18.904 608.759 18.72 609.127 18.352C609.495 17.968 609.679 17.488 609.679 16.912C609.679 16.352 609.495 15.888 609.127 15.52C608.759 15.136 608.295 14.944 607.735 14.944H603.919V18.904H607.735ZM623.01 2.128L621.954 3.688H618.882L621.426 0.207999H624.57L627.114 3.688H624.042L623.01 2.128ZM616.89 7.408C618.586 5.712 620.65 4.864 623.082 4.864C625.514 4.864 627.578 5.712 629.274 7.408C630.97 9.088 631.818 11.152 631.818 13.6C631.818 16.048 630.97 18.12 629.274 19.816C627.578 21.496 625.514 22.336 623.082 22.336C620.65 22.336 618.586 21.496 616.89 19.816C615.21 18.12 614.37 16.048 614.37 13.6C614.37 11.152 615.21 9.088 616.89 7.408ZM619.218 17.56C620.258 18.584 621.546 19.096 623.082 19.096C624.618 19.096 625.906 18.584 626.946 17.56C627.986 16.52 628.506 15.2 628.506 13.6C628.506 12 627.986 10.68 626.946 9.64C625.906 8.6 624.618 8.08 623.082 8.08C621.546 8.08 620.258 8.6 619.218 9.64C618.178 10.68 617.658 12 617.658 13.6C617.658 15.2 618.178 16.52 619.218 17.56ZM643.866 5.2H647.178V22H644.658L637.458 11.728V22H634.146V5.2H636.666L643.866 15.448V5.2ZM656.558 22.336C654.686 22.336 653.15 21.808 651.95 20.752C650.75 19.696 650.15 18.28 650.15 16.504V5.2H653.438V16.24C653.438 17.12 653.686 17.816 654.182 18.328C654.694 18.84 655.486 19.096 656.558 19.096C657.63 19.096 658.414 18.84 658.91 18.328C659.422 17.816 659.678 17.12 659.678 16.24V5.2H662.99V16.504C662.99 18.28 662.39 19.696 661.19 20.752C659.99 21.808 658.446 22.336 656.558 22.336ZM671.71 22.336C670.046 22.336 668.646 21.968 667.51 21.232C666.374 20.48 665.574 19.464 665.11 18.184L667.942 16.528C668.598 18.24 669.886 19.096 671.806 19.096C672.734 19.096 673.414 18.928 673.846 18.592C674.278 18.256 674.494 17.832 674.494 17.32C674.494 16.728 674.23 16.272 673.702 15.952C673.174 15.616 672.23 15.256 670.87 14.872C670.118 14.648 669.478 14.424 668.95 14.2C668.438 13.976 667.918 13.68 667.39 13.312C666.878 12.928 666.486 12.448 666.214 11.872C665.942 11.296 665.806 10.624 665.806 9.856C665.806 8.336 666.342 7.128 667.414 6.232C668.502 5.32 669.806 4.864 671.326 4.864C672.686 4.864 673.878 5.2 674.902 5.872C675.942 6.528 676.75 7.448 677.326 8.632L674.542 10.24C673.87 8.8 672.798 8.08 671.326 8.08C670.638 8.08 670.094 8.24 669.694 8.56C669.31 8.864 669.118 9.264 669.118 9.76C669.118 10.288 669.334 10.72 669.766 11.056C670.214 11.376 671.062 11.728 672.31 12.112C672.822 12.272 673.206 12.4 673.462 12.496C673.734 12.576 674.094 12.712 674.542 12.904C675.006 13.08 675.358 13.248 675.598 13.408C675.854 13.568 676.142 13.784 676.462 14.056C676.782 14.328 677.022 14.608 677.182 14.896C677.358 15.184 677.502 15.536 677.614 15.952C677.742 16.352 677.806 16.792 677.806 17.272C677.806 18.824 677.238 20.056 676.102 20.968C674.982 21.88 673.518 22.336 671.71 22.336ZM688.774 16.888C687.846 16.888 687.054 16.568 686.398 15.928C685.758 15.272 685.438 14.48 685.438 13.552C685.438 12.656 685.758 11.888 686.398 11.248C687.054 10.608 687.846 10.288 688.774 10.288C689.67 10.288 690.438 10.608 691.078 11.248C691.718 11.888 692.038 12.656 692.038 13.552C692.038 14.48 691.718 15.272 691.078 15.928C690.438 16.568 689.67 16.888 688.774 16.888ZM710.767 13.288C712.239 14.136 712.975 15.416 712.975 17.128C712.975 18.552 712.471 19.72 711.463 20.632C710.455 21.544 709.215 22 707.743 22H700.615V5.2H707.239C708.679 5.2 709.887 5.648 710.863 6.544C711.855 7.424 712.351 8.552 712.351 9.928C712.351 11.32 711.823 12.44 710.767 13.288ZM707.239 8.296H703.927V11.992H707.239C707.751 11.992 708.175 11.816 708.511 11.464C708.863 11.112 709.039 10.672 709.039 10.144C709.039 9.616 708.871 9.176 708.535 8.824C708.199 8.472 707.767 8.296 707.239 8.296ZM707.743 18.904C708.303 18.904 708.767 18.72 709.135 18.352C709.503 17.968 709.687 17.488 709.687 16.912C709.687 16.352 709.503 15.888 709.135 15.52C708.767 15.136 708.303 14.944 707.743 14.944H703.927V18.904H707.743ZM723.018 2.128L721.962 3.688H718.89L721.434 0.207999H724.578L727.122 3.688H724.05L723.018 2.128ZM716.898 7.408C718.594 5.712 720.658 4.864 723.09 4.864C725.522 4.864 727.586 5.712 729.282 7.408C730.978 9.088 731.826 11.152 731.826 13.6C731.826 16.048 730.978 18.12 729.282 19.816C727.586 21.496 725.522 22.336 723.09 22.336C720.658 22.336 718.594 21.496 716.898 19.816C715.218 18.12 714.378 16.048 714.378 13.6C714.378 11.152 715.218 9.088 716.898 7.408ZM719.226 17.56C720.266 18.584 721.554 19.096 723.09 19.096C724.626 19.096 725.914 18.584 726.954 17.56C727.994 16.52 728.514 15.2 728.514 13.6C728.514 12 727.994 10.68 726.954 9.64C725.914 8.6 724.626 8.08 723.09 8.08C721.554 8.08 720.266 8.6 719.226 9.64C718.186 10.68 717.666 12 717.666 13.6C717.666 15.2 718.186 16.52 719.226 17.56ZM743.874 5.2H747.186V22H744.666L737.466 11.728V22H734.154V5.2H736.674L743.874 15.448V5.2ZM756.566 22.336C754.694 22.336 753.158 21.808 751.958 20.752C750.758 19.696 750.158 18.28 750.158 16.504V5.2H753.446V16.24C753.446 17.12 753.694 17.816 754.19 18.328C754.702 18.84 755.494 19.096 756.566 19.096C757.638 19.096 758.422 18.84 758.918 18.328C759.43 17.816 759.686 17.12 759.686 16.24V5.2H762.998V16.504C762.998 18.28 762.398 19.696 761.198 20.752C759.998 21.808 758.454 22.336 756.566 22.336ZM771.718 22.336C770.054 22.336 768.654 21.968 767.518 21.232C766.382 20.48 765.582 19.464 765.118 18.184L767.95 16.528C768.606 18.24 769.894 19.096 771.814 19.096C772.742 19.096 773.422 18.928 773.854 18.592C774.286 18.256 774.502 17.832 774.502 17.32C774.502 16.728 774.238 16.272 773.71 15.952C773.182 15.616 772.238 15.256 770.878 14.872C770.126 14.648 769.486 14.424 768.958 14.2C768.446 13.976 767.926 13.68 767.398 13.312C766.886 12.928 766.494 12.448 766.222 11.872C765.95 11.296 765.814 10.624 765.814 9.856C765.814 8.336 766.35 7.128 767.422 6.232C768.51 5.32 769.814 4.864 771.334 4.864C772.694 4.864 773.886 5.2 774.91 5.872C775.95 6.528 776.758 7.448 777.334 8.632L774.55 10.24C773.878 8.8 772.806 8.08 771.334 8.08C770.646 8.08 770.102 8.24 769.702 8.56C769.318 8.864 769.126 9.264 769.126 9.76C769.126 10.288 769.342 10.72 769.774 11.056C770.222 11.376 771.07 11.728 772.318 12.112C772.83 12.272 773.214 12.4 773.47 12.496C773.742 12.576 774.102 12.712 774.55 12.904C775.014 13.08 775.366 13.248 775.606 13.408C775.862 13.568 776.15 13.784 776.47 14.056C776.79 14.328 777.03 14.608 777.19 14.896C777.366 15.184 777.51 15.536 777.622 15.952C777.75 16.352 777.814 16.792 777.814 17.272C777.814 18.824 777.246 20.056 776.11 20.968C774.99 21.88 773.526 22.336 771.718 22.336ZM788.782 16.888C787.854 16.888 787.062 16.568 786.406 15.928C785.766 15.272 785.446 14.48 785.446 13.552C785.446 12.656 785.766 11.888 786.406 11.248C787.062 10.608 787.854 10.288 788.782 10.288C789.678 10.288 790.446 10.608 791.086 11.248C791.726 11.888 792.046 12.656 792.046 13.552C792.046 14.48 791.726 15.272 791.086 15.928C790.446 16.568 789.678 16.888 788.782 16.888ZM810.775 13.288C812.247 14.136 812.983 15.416 812.983 17.128C812.983 18.552 812.479 19.72 811.471 20.632C810.463 21.544 809.223 22 807.751 22H800.623V5.2H807.247C808.687 5.2 809.895 5.648 810.871 6.544C811.863 7.424 812.359 8.552 812.359 9.928C812.359 11.32 811.831 12.44 810.775 13.288ZM807.247 8.296H803.935V11.992H807.247C807.759 11.992 808.183 11.816 808.519 11.464C808.871 11.112 809.047 10.672 809.047 10.144C809.047 9.616 808.879 9.176 808.543 8.824C808.207 8.472 807.775 8.296 807.247 8.296ZM807.751 18.904C808.311 18.904 808.775 18.72 809.143 18.352C809.511 17.968 809.695 17.488 809.695 16.912C809.695 16.352 809.511 15.888 809.143 15.52C808.775 15.136 808.311 14.944 807.751 14.944H803.935V18.904H807.751ZM823.026 2.128L821.97 3.688H818.898L821.442 0.207999H824.586L827.13 3.688H824.058L823.026 2.128ZM816.906 7.408C818.602 5.712 820.666 4.864 823.098 4.864C825.53 4.864 827.594 5.712 829.29 7.408C830.986 9.088 831.834 11.152 831.834 13.6C831.834 16.048 830.986 18.12 829.29 19.816C827.594 21.496 825.53 22.336 823.098 22.336C820.666 22.336 818.602 21.496 816.906 19.816C815.226 18.12 814.386 16.048 814.386 13.6C814.386 11.152 815.226 9.088 816.906 7.408ZM819.234 17.56C820.274 18.584 821.562 19.096 823.098 19.096C824.634 19.096 825.922 18.584 826.962 17.56C828.002 16.52 828.522 15.2 828.522 13.6C828.522 12 828.002 10.68 826.962 9.64C825.922 8.6 824.634 8.08 823.098 8.08C821.562 8.08 820.274 8.6 819.234 9.64C818.194 10.68 817.674 12 817.674 13.6C817.674 15.2 818.194 16.52 819.234 17.56ZM843.882 5.2H847.194V22H844.674L837.474 11.728V22H834.162V5.2H836.682L843.882 15.448V5.2ZM856.574 22.336C854.702 22.336 853.166 21.808 851.966 20.752C850.766 19.696 850.166 18.28 850.166 16.504V5.2H853.454V16.24C853.454 17.12 853.702 17.816 854.198 18.328C854.71 18.84 855.502 19.096 856.574 19.096C857.646 19.096 858.43 18.84 858.926 18.328C859.438 17.816 859.694 17.12 859.694 16.24V5.2H863.006V16.504C863.006 18.28 862.406 19.696 861.206 20.752C860.006 21.808 858.462 22.336 856.574 22.336ZM871.726 22.336C870.062 22.336 868.662 21.968 867.526 21.232C866.39 20.48 865.59 19.464 865.126 18.184L867.958 16.528C868.614 18.24 869.902 19.096 871.822 19.096C872.75 19.096 873.43 18.928 873.862 18.592C874.294 18.256 874.51 17.832 874.51 17.32C874.51 16.728 874.246 16.272 873.718 15.952C873.19 15.616 872.246 15.256 870.886 14.872C870.134 14.648 869.494 14.424 868.966 14.2C868.454 13.976 867.934 13.68 867.406 13.312C866.894 12.928 866.502 12.448 866.23 11.872C865.958 11.296 865.822 10.624 865.822 9.856C865.822 8.336 866.358 7.128 867.43 6.232C868.518 5.32 869.822 4.864 871.342 4.864C872.702 4.864 873.894 5.2 874.918 5.872C875.958 6.528 876.766 7.448 877.342 8.632L874.558 10.24C873.886 8.8 872.814 8.08 871.342 8.08C870.654 8.08 870.11 8.24 869.71 8.56C869.326 8.864 869.134 9.264 869.134 9.76C869.134 10.288 869.35 10.72 869.782 11.056C870.23 11.376 871.078 11.728 872.326 12.112C872.838 12.272 873.222 12.4 873.478 12.496C873.75 12.576 874.11 12.712 874.558 12.904C875.022 13.08 875.374 13.248 875.614 13.408C875.87 13.568 876.158 13.784 876.478 14.056C876.798 14.328 877.038 14.608 877.198 14.896C877.374 15.184 877.518 15.536 877.63 15.952C877.758 16.352 877.822 16.792 877.822 17.272C877.822 18.824 877.254 20.056 876.118 20.968C874.998 21.88 873.534 22.336 871.726 22.336ZM888.79 16.888C887.862 16.888 887.07 16.568 886.414 15.928C885.774 15.272 885.454 14.48 885.454 13.552C885.454 12.656 885.774 11.888 886.414 11.248C887.07 10.608 887.862 10.288 888.79 10.288C889.686 10.288 890.454 10.608 891.094 11.248C891.734 11.888 892.054 12.656 892.054 13.552C892.054 14.48 891.734 15.272 891.094 15.928C890.454 16.568 889.686 16.888 888.79 16.888ZM910.782 13.288C912.254 14.136 912.99 15.416 912.99 17.128C912.99 18.552 912.486 19.72 911.478 20.632C910.47 21.544 909.23 22 907.758 22H900.63V5.2H907.254C908.694 5.2 909.902 5.648 910.878 6.544C911.87 7.424 912.366 8.552 912.366 9.928C912.366 11.32 911.838 12.44 910.782 13.288ZM907.254 8.296H903.942V11.992H907.254C907.766 11.992 908.19 11.816 908.526 11.464C908.878 11.112 909.054 10.672 909.054 10.144C909.054 9.616 908.886 9.176 908.55 8.824C908.214 8.472 907.782 8.296 907.254 8.296ZM907.758 18.904C908.318 18.904 908.782 18.72 909.15 18.352C909.518 17.968 909.702 17.488 909.702 16.912C909.702 16.352 909.518 15.888 909.15 15.52C908.782 15.136 908.318 14.944 907.758 14.944H903.942V18.904H907.758ZM923.034 2.128L921.978 3.688H918.906L921.45 0.207999H924.594L927.138 3.688H924.066L923.034 2.128ZM916.914 7.408C918.61 5.712 920.674 4.864 923.106 4.864C925.538 4.864 927.602 5.712 929.298 7.408C930.994 9.088 931.842 11.152 931.842 13.6C931.842 16.048 930.994 18.12 929.298 19.816C927.602 21.496 925.538 22.336 923.106 22.336C920.674 22.336 918.61 21.496 916.914 19.816C915.234 18.12 914.394 16.048 914.394 13.6C914.394 11.152 915.234 9.088 916.914 7.408ZM919.242 17.56C920.282 18.584 921.57 19.096 923.106 19.096C924.642 19.096 925.93 18.584 926.97 17.56C928.01 16.52 928.53 15.2 928.53 13.6C928.53 12 928.01 10.68 926.97 9.64C925.93 8.6 924.642 8.08 923.106 8.08C921.57 8.08 920.282 8.6 919.242 9.64C918.202 10.68 917.682 12 917.682 13.6C917.682 15.2 918.202 16.52 919.242 17.56ZM943.889 5.2H947.201V22H944.681L937.481 11.728V22H934.169V5.2H936.689L943.889 15.448V5.2ZM956.582 22.336C954.71 22.336 953.174 21.808 951.974 20.752C950.774 19.696 950.174 18.28 950.174 16.504V5.2H953.462V16.24C953.462 17.12 953.71 17.816 954.206 18.328C954.718 18.84 955.51 19.096 956.582 19.096C957.654 19.096 958.438 18.84 958.934 18.328C959.446 17.816 959.702 17.12 959.702 16.24V5.2H963.014V16.504C963.014 18.28 962.414 19.696 961.214 20.752C960.014 21.808 958.47 22.336 956.582 22.336ZM971.734 22.336C970.07 22.336 968.67 21.968 967.534 21.232C966.398 20.48 965.598 19.464 965.134 18.184L967.965 16.528C968.622 18.24 969.91 19.096 971.83 19.096C972.758 19.096 973.438 18.928 973.87 18.592C974.302 18.256 974.518 17.832 974.518 17.32C974.518 16.728 974.254 16.272 973.726 15.952C973.198 15.616 972.254 15.256 970.894 14.872C970.142 14.648 969.502 14.424 968.974 14.2C968.462 13.976 967.942 13.68 967.414 13.312C966.902 12.928 966.51 12.448 966.238 11.872C965.966 11.296 965.83 10.624 965.83 9.856C965.83 8.336 966.366 7.128 967.438 6.232C968.526 5.32 969.83 4.864 971.35 4.864C972.71 4.864 973.902 5.2 974.926 5.872C975.966 6.528 976.774 7.448 977.35 8.632L974.566 10.24C973.894 8.8 972.822 8.08 971.35 8.08C970.662 8.08 970.118 8.24 969.718 8.56C969.334 8.864 969.142 9.264 969.142 9.76C969.142 10.288 969.358 10.72 969.79 11.056C970.238 11.376 971.086 11.728 972.334 12.112C972.846 12.272 973.23 12.4 973.486 12.496C973.758 12.576 974.118 12.712 974.566 12.904C975.03 13.08 975.382 13.248 975.622 13.408C975.878 13.568 976.166 13.784 976.486 14.056C976.806 14.328 977.046 14.608 977.206 14.896C977.382 15.184 977.526 15.536 977.638 15.952C977.766 16.352 977.83 16.792 977.83 17.272C977.83 18.824 977.262 20.056 976.126 20.968C975.006 21.88 973.542 22.336 971.734 22.336ZM988.798 16.888C987.87 16.888 987.078 16.568 986.422 15.928C985.782 15.272 985.462 14.48 985.462 13.552C985.462 12.656 985.782 11.888 986.422 11.248C987.078 10.608 987.87 10.288 988.798 10.288C989.694 10.288 990.462 10.608 991.102 11.248C991.742 11.888 992.062 12.656 992.062 13.552C992.062 14.48 991.742 15.272 991.102 15.928C990.462 16.568 989.694 16.888 988.798 16.888ZM1010.79 13.288C1012.26 14.136 1013 15.416 1013 17.128C1013 18.552 1012.49 19.72 1011.49 20.632C1010.48 21.544 1009.24 22 1007.77 22H1000.64V5.2H1007.26C1008.7 5.2 1009.91 5.648 1010.89 6.544C1011.88 7.424 1012.37 8.552 1012.37 9.928C1012.37 11.32 1011.85 12.44 1010.79 13.288ZM1007.26 8.296H1003.95V11.992H1007.26C1007.77 11.992 1008.2 11.816 1008.53 11.464C1008.89 11.112 1009.06 10.672 1009.06 10.144C1009.06 9.616 1008.89 9.176 1008.56 8.824C1008.22 8.472 1007.79 8.296 1007.26 8.296ZM1007.77 18.904C1008.33 18.904 1008.79 18.72 1009.16 18.352C1009.53 17.968 1009.71 17.488 1009.71 16.912C1009.71 16.352 1009.53 15.888 1009.16 15.52C1008.79 15.136 1008.33 14.944 1007.77 14.944H1003.95V18.904H1007.77ZM1023.04 2.128L1021.99 3.688H1018.91L1021.46 0.207999H1024.6L1027.15 3.688H1024.07L1023.04 2.128ZM1016.92 7.408C1018.62 5.712 1020.68 4.864 1023.11 4.864C1025.55 4.864 1027.61 5.712 1029.31 7.408C1031 9.088 1031.85 11.152 1031.85 13.6C1031.85 16.048 1031 18.12 1029.31 19.816C1027.61 21.496 1025.55 22.336 1023.11 22.336C1020.68 22.336 1018.62 21.496 1016.92 19.816C1015.24 18.12 1014.4 16.048 1014.4 13.6C1014.4 11.152 1015.24 9.088 1016.92 7.408ZM1019.25 17.56C1020.29 18.584 1021.58 19.096 1023.11 19.096C1024.65 19.096 1025.94 18.584 1026.98 17.56C1028.02 16.52 1028.54 15.2 1028.54 13.6C1028.54 12 1028.02 10.68 1026.98 9.64C1025.94 8.6 1024.65 8.08 1023.11 8.08C1021.58 8.08 1020.29 8.6 1019.25 9.64C1018.21 10.68 1017.69 12 1017.69 13.6C1017.69 15.2 1018.21 16.52 1019.25 17.56ZM1043.9 5.2H1047.21V22H1044.69L1037.49 11.728V22H1034.18V5.2H1036.7L1043.9 15.448V5.2ZM1056.59 22.336C1054.72 22.336 1053.18 21.808 1051.98 20.752C1050.78 19.696 1050.18 18.28 1050.18 16.504V5.2H1053.47V16.24C1053.47 17.12 1053.72 17.816 1054.21 18.328C1054.73 18.84 1055.52 19.096 1056.59 19.096C1057.66 19.096 1058.45 18.84 1058.94 18.328C1059.45 17.816 1059.71 17.12 1059.71 16.24V5.2H1063.02V16.504C1063.02 18.28 1062.42 19.696 1061.22 20.752C1060.02 21.808 1058.48 22.336 1056.59 22.336ZM1071.74 22.336C1070.08 22.336 1068.68 21.968 1067.54 21.232C1066.41 20.48 1065.61 19.464 1065.14 18.184L1067.97 16.528C1068.63 18.24 1069.92 19.096 1071.84 19.096C1072.77 19.096 1073.45 18.928 1073.88 18.592C1074.31 18.256 1074.53 17.832 1074.53 17.32C1074.53 16.728 1074.26 16.272 1073.73 15.952C1073.21 15.616 1072.26 15.256 1070.9 14.872C1070.15 14.648 1069.51 14.424 1068.98 14.2C1068.47 13.976 1067.95 13.68 1067.42 13.312C1066.91 12.928 1066.52 12.448 1066.25 11.872C1065.97 11.296 1065.84 10.624 1065.84 9.856C1065.84 8.336 1066.37 7.128 1067.45 6.232C1068.53 5.32 1069.84 4.864 1071.36 4.864C1072.72 4.864 1073.91 5.2 1074.93 5.872C1075.97 6.528 1076.78 7.448 1077.36 8.632L1074.57 10.24C1073.9 8.8 1072.83 8.08 1071.36 8.08C1070.67 8.08 1070.13 8.24 1069.73 8.56C1069.34 8.864 1069.15 9.264 1069.15 9.76C1069.15 10.288 1069.37 10.72 1069.8 11.056C1070.25 11.376 1071.09 11.728 1072.34 12.112C1072.85 12.272 1073.24 12.4 1073.49 12.496C1073.77 12.576 1074.13 12.712 1074.57 12.904C1075.04 13.08 1075.39 13.248 1075.63 13.408C1075.89 13.568 1076.17 13.784 1076.49 14.056C1076.81 14.328 1077.05 14.608 1077.21 14.896C1077.39 15.184 1077.53 15.536 1077.65 15.952C1077.77 16.352 1077.84 16.792 1077.84 17.272C1077.84 18.824 1077.27 20.056 1076.13 20.968C1075.01 21.88 1073.55 22.336 1071.74 22.336ZM1088.81 16.888C1087.88 16.888 1087.09 16.568 1086.43 15.928C1085.79 15.272 1085.47 14.48 1085.47 13.552C1085.47 12.656 1085.79 11.888 1086.43 11.248C1087.09 10.608 1087.88 10.288 1088.81 10.288C1089.7 10.288 1090.47 10.608 1091.11 11.248C1091.75 11.888 1092.07 12.656 1092.07 13.552C1092.07 14.48 1091.75 15.272 1091.11 15.928C1090.47 16.568 1089.7 16.888 1088.81 16.888ZM1110.8 13.288C1112.27 14.136 1113.01 15.416 1113.01 17.128C1113.01 18.552 1112.5 19.72 1111.49 20.632C1110.49 21.544 1109.25 22 1107.77 22H1100.65V5.2H1107.27C1108.71 5.2 1109.92 5.648 1110.89 6.544C1111.89 7.424 1112.38 8.552 1112.38 9.928C1112.38 11.32 1111.85 12.44 1110.8 13.288ZM1107.27 8.296H1103.96V11.992H1107.27C1107.78 11.992 1108.21 11.816 1108.54 11.464C1108.89 11.112 1109.07 10.672 1109.07 10.144C1109.07 9.616 1108.9 9.176 1108.57 8.824C1108.23 8.472 1107.8 8.296 1107.27 8.296ZM1107.77 18.904C1108.33 18.904 1108.8 18.72 1109.17 18.352C1109.53 17.968 1109.72 17.488 1109.72 16.912C1109.72 16.352 1109.53 15.888 1109.17 15.52C1108.8 15.136 1108.33 14.944 1107.77 14.944H1103.96V18.904H1107.77ZM1123.05 2.128L1121.99 3.688H1118.92L1121.47 0.207999H1124.61L1127.15 3.688H1124.08L1123.05 2.128ZM1116.93 7.408C1118.63 5.712 1120.69 4.864 1123.12 4.864C1125.55 4.864 1127.62 5.712 1129.31 7.408C1131.01 9.088 1131.86 11.152 1131.86 13.6C1131.86 16.048 1131.01 18.12 1129.31 19.816C1127.62 21.496 1125.55 22.336 1123.12 22.336C1120.69 22.336 1118.63 21.496 1116.93 19.816C1115.25 18.12 1114.41 16.048 1114.41 13.6C1114.41 11.152 1115.25 9.088 1116.93 7.408ZM1119.26 17.56C1120.3 18.584 1121.59 19.096 1123.12 19.096C1124.66 19.096 1125.95 18.584 1126.99 17.56C1128.03 16.52 1128.55 15.2 1128.55 13.6C1128.55 12 1128.03 10.68 1126.99 9.64C1125.95 8.6 1124.66 8.08 1123.12 8.08C1121.59 8.08 1120.3 8.6 1119.26 9.64C1118.22 10.68 1117.7 12 1117.7 13.6C1117.7 15.2 1118.22 16.52 1119.26 17.56ZM1143.91 5.2H1147.22V22H1144.7L1137.5 11.728V22H1134.19V5.2H1136.71L1143.91 15.448V5.2ZM1156.6 22.336C1154.73 22.336 1153.19 21.808 1151.99 20.752C1150.79 19.696 1150.19 18.28 1150.19 16.504V5.2H1153.48V16.24C1153.48 17.12 1153.73 17.816 1154.22 18.328C1154.73 18.84 1155.53 19.096 1156.6 19.096C1157.67 19.096 1158.45 18.84 1158.95 18.328C1159.46 17.816 1159.72 17.12 1159.72 16.24V5.2H1163.03V16.504C1163.03 18.28 1162.43 19.696 1161.23 20.752C1160.03 21.808 1158.49 22.336 1156.6 22.336ZM1171.75 22.336C1170.09 22.336 1168.69 21.968 1167.55 21.232C1166.41 20.48 1165.61 19.464 1165.15 18.184L1167.98 16.528C1168.64 18.24 1169.93 19.096 1171.85 19.096C1172.77 19.096 1173.45 18.928 1173.89 18.592C1174.32 18.256 1174.53 17.832 1174.53 17.32C1174.53 16.728 1174.27 16.272 1173.74 15.952C1173.21 15.616 1172.27 15.256 1170.91 14.872C1170.16 14.648 1169.52 14.424 1168.99 14.2C1168.48 13.976 1167.96 13.68 1167.43 13.312C1166.92 12.928 1166.53 12.448 1166.25 11.872C1165.98 11.296 1165.85 10.624 1165.85 9.856C1165.85 8.336 1166.38 7.128 1167.45 6.232C1168.54 5.32 1169.85 4.864 1171.37 4.864C1172.73 4.864 1173.92 5.2 1174.94 5.872C1175.98 6.528 1176.79 7.448 1177.37 8.632L1174.58 10.24C1173.91 8.8 1172.84 8.08 1171.37 8.08C1170.68 8.08 1170.13 8.24 1169.73 8.56C1169.35 8.864 1169.16 9.264 1169.16 9.76C1169.16 10.288 1169.37 10.72 1169.81 11.056C1170.25 11.376 1171.1 11.728 1172.35 12.112C1172.86 12.272 1173.25 12.4 1173.5 12.496C1173.77 12.576 1174.13 12.712 1174.58 12.904C1175.05 13.08 1175.4 13.248 1175.64 13.408C1175.89 13.568 1176.18 13.784 1176.5 14.056C1176.82 14.328 1177.06 14.608 1177.22 14.896C1177.4 15.184 1177.54 15.536 1177.65 15.952C1177.78 16.352 1177.85 16.792 1177.85 17.272C1177.85 18.824 1177.28 20.056 1176.14 20.968C1175.02 21.88 1173.56 22.336 1171.75 22.336ZM1188.81 16.888C1187.89 16.888 1187.09 16.568 1186.44 15.928C1185.8 15.272 1185.48 14.48 1185.48 13.552C1185.48 12.656 1185.8 11.888 1186.44 11.248C1187.09 10.608 1187.89 10.288 1188.81 10.288C1189.71 10.288 1190.48 10.608 1191.12 11.248C1191.76 11.888 1192.08 12.656 1192.08 13.552C1192.08 14.48 1191.76 15.272 1191.12 15.928C1190.48 16.568 1189.71 16.888 1188.81 16.888ZM1210.81 13.288C1212.28 14.136 1213.01 15.416 1213.01 17.128C1213.01 18.552 1212.51 19.72 1211.5 20.632C1210.49 21.544 1209.25 22 1207.78 22H1200.65V5.2H1207.28C1208.72 5.2 1209.93 5.648 1210.9 6.544C1211.89 7.424 1212.39 8.552 1212.39 9.928C1212.39 11.32 1211.86 12.44 1210.81 13.288ZM1207.28 8.296H1203.97V11.992H1207.28C1207.79 11.992 1208.21 11.816 1208.55 11.464C1208.9 11.112 1209.08 10.672 1209.08 10.144C1209.08 9.616 1208.91 9.176 1208.57 8.824C1208.24 8.472 1207.81 8.296 1207.28 8.296ZM1207.78 18.904C1208.34 18.904 1208.81 18.72 1209.17 18.352C1209.54 17.968 1209.73 17.488 1209.73 16.912C1209.73 16.352 1209.54 15.888 1209.17 15.52C1208.81 15.136 1208.34 14.944 1207.78 14.944H1203.97V18.904H1207.78ZM1223.06 2.128L1222 3.688H1218.93L1221.47 0.207999H1224.62L1227.16 3.688H1224.09L1223.06 2.128ZM1216.94 7.408C1218.63 5.712 1220.7 4.864 1223.13 4.864C1225.56 4.864 1227.63 5.712 1229.32 7.408C1231.02 9.088 1231.87 11.152 1231.87 13.6C1231.87 16.048 1231.02 18.12 1229.32 19.816C1227.63 21.496 1225.56 22.336 1223.13 22.336C1220.7 22.336 1218.63 21.496 1216.94 19.816C1215.26 18.12 1214.42 16.048 1214.42 13.6C1214.42 11.152 1215.26 9.088 1216.94 7.408ZM1219.27 17.56C1220.31 18.584 1221.59 19.096 1223.13 19.096C1224.67 19.096 1225.95 18.584 1226.99 17.56C1228.03 16.52 1228.55 15.2 1228.55 13.6C1228.55 12 1228.03 10.68 1226.99 9.64C1225.95 8.6 1224.67 8.08 1223.13 8.08C1221.59 8.08 1220.31 8.6 1219.27 9.64C1218.23 10.68 1217.71 12 1217.71 13.6C1217.71 15.2 1218.23 16.52 1219.27 17.56ZM1243.91 5.2H1247.22V22H1244.7L1237.5 11.728V22H1234.19V5.2H1236.71L1243.91 15.448V5.2ZM1256.61 22.336C1254.73 22.336 1253.2 21.808 1252 20.752C1250.8 19.696 1250.2 18.28 1250.2 16.504V5.2H1253.49V16.24C1253.49 17.12 1253.73 17.816 1254.23 18.328C1254.74 18.84 1255.53 19.096 1256.61 19.096C1257.68 19.096 1258.46 18.84 1258.96 18.328C1259.47 17.816 1259.73 17.12 1259.73 16.24V5.2H1263.04V16.504C1263.04 18.28 1262.44 19.696 1261.24 20.752C1260.04 21.808 1258.49 22.336 1256.61 22.336ZM1271.76 22.336C1270.09 22.336 1268.69 21.968 1267.56 21.232C1266.42 20.48 1265.62 19.464 1265.16 18.184L1267.99 16.528C1268.64 18.24 1269.93 19.096 1271.85 19.096C1272.78 19.096 1273.46 18.928 1273.89 18.592C1274.32 18.256 1274.54 17.832 1274.54 17.32C1274.54 16.728 1274.28 16.272 1273.75 15.952C1273.22 15.616 1272.28 15.256 1270.92 14.872C1270.16 14.648 1269.52 14.424 1269 14.2C1268.48 13.976 1267.96 13.68 1267.44 13.312C1266.92 12.928 1266.53 12.448 1266.26 11.872C1265.99 11.296 1265.85 10.624 1265.85 9.856C1265.85 8.336 1266.39 7.128 1267.46 6.232C1268.55 5.32 1269.85 4.864 1271.37 4.864C1272.73 4.864 1273.92 5.2 1274.95 5.872C1275.99 6.528 1276.8 7.448 1277.37 8.632L1274.59 10.24C1273.92 8.8 1272.84 8.08 1271.37 8.08C1270.68 8.08 1270.14 8.24 1269.74 8.56C1269.36 8.864 1269.16 9.264 1269.16 9.76C1269.16 10.288 1269.38 10.72 1269.81 11.056C1270.26 11.376 1271.11 11.728 1272.36 12.112C1272.87 12.272 1273.25 12.4 1273.51 12.496C1273.78 12.576 1274.14 12.712 1274.59 12.904C1275.05 13.08 1275.4 13.248 1275.64 13.408C1275.9 13.568 1276.19 13.784 1276.51 14.056C1276.83 14.328 1277.07 14.608 1277.23 14.896C1277.4 15.184 1277.55 15.536 1277.66 15.952C1277.79 16.352 1277.85 16.792 1277.85 17.272C1277.85 18.824 1277.28 20.056 1276.15 20.968C1275.03 21.88 1273.56 22.336 1271.76 22.336ZM1288.82 16.888C1287.89 16.888 1287.1 16.568 1286.45 15.928C1285.81 15.272 1285.49 14.48 1285.49 13.552C1285.49 12.656 1285.81 11.888 1286.45 11.248C1287.1 10.608 1287.89 10.288 1288.82 10.288C1289.72 10.288 1290.49 10.608 1291.13 11.248C1291.77 11.888 1292.09 12.656 1292.09 13.552C1292.09 14.48 1291.77 15.272 1291.13 15.928C1290.49 16.568 1289.72 16.888 1288.82 16.888ZM1310.81 13.288C1312.29 14.136 1313.02 15.416 1313.02 17.128C1313.02 18.552 1312.52 19.72 1311.51 20.632C1310.5 21.544 1309.26 22 1307.79 22H1300.66V5.2H1307.29C1308.73 5.2 1309.93 5.648 1310.91 6.544C1311.9 7.424 1312.4 8.552 1312.4 9.928C1312.4 11.32 1311.87 12.44 1310.81 13.288ZM1307.29 8.296H1303.97V11.992H1307.29C1307.8 11.992 1308.22 11.816 1308.56 11.464C1308.91 11.112 1309.09 10.672 1309.09 10.144C1309.09 9.616 1308.92 9.176 1308.58 8.824C1308.25 8.472 1307.81 8.296 1307.29 8.296ZM1307.79 18.904C1308.35 18.904 1308.81 18.72 1309.18 18.352C1309.55 17.968 1309.73 17.488 1309.73 16.912C1309.73 16.352 1309.55 15.888 1309.18 15.52C1308.81 15.136 1308.35 14.944 1307.79 14.944H1303.97V18.904H1307.79ZM1323.06 2.128L1322.01 3.688H1318.94L1321.48 0.207999H1324.62L1327.17 3.688H1324.1L1323.06 2.128ZM1316.94 7.408C1318.64 5.712 1320.7 4.864 1323.14 4.864C1325.57 4.864 1327.63 5.712 1329.33 7.408C1331.02 9.088 1331.87 11.152 1331.87 13.6C1331.87 16.048 1331.02 18.12 1329.33 19.816C1327.63 21.496 1325.57 22.336 1323.14 22.336C1320.7 22.336 1318.64 21.496 1316.94 19.816C1315.26 18.12 1314.42 16.048 1314.42 13.6C1314.42 11.152 1315.26 9.088 1316.94 7.408ZM1319.27 17.56C1320.31 18.584 1321.6 19.096 1323.14 19.096C1324.67 19.096 1325.96 18.584 1327 17.56C1328.04 16.52 1328.56 15.2 1328.56 13.6C1328.56 12 1328.04 10.68 1327 9.64C1325.96 8.6 1324.67 8.08 1323.14 8.08C1321.6 8.08 1320.31 8.6 1319.27 9.64C1318.23 10.68 1317.71 12 1317.71 13.6C1317.71 15.2 1318.23 16.52 1319.27 17.56ZM1343.92 5.2H1347.23V22H1344.71L1337.51 11.728V22H1334.2V5.2H1336.72L1343.92 15.448V5.2ZM1356.61 22.336C1354.74 22.336 1353.21 21.808 1352.01 20.752C1350.81 19.696 1350.21 18.28 1350.21 16.504V5.2H1353.49V16.24C1353.49 17.12 1353.74 17.816 1354.24 18.328C1354.75 18.84 1355.54 19.096 1356.61 19.096C1357.69 19.096 1358.47 18.84 1358.97 18.328C1359.48 17.816 1359.73 17.12 1359.73 16.24V5.2H1363.05V16.504C1363.05 18.28 1362.45 19.696 1361.25 20.752C1360.05 21.808 1358.5 22.336 1356.61 22.336ZM1371.76 22.336C1370.1 22.336 1368.7 21.968 1367.56 21.232C1366.43 20.48 1365.63 19.464 1365.16 18.184L1368 16.528C1368.65 18.24 1369.94 19.096 1371.86 19.096C1372.79 19.096 1373.47 18.928 1373.9 18.592C1374.33 18.256 1374.55 17.832 1374.55 17.32C1374.55 16.728 1374.28 16.272 1373.76 15.952C1373.23 15.616 1372.28 15.256 1370.92 14.872C1370.17 14.648 1369.53 14.424 1369 14.2C1368.49 13.976 1367.97 13.68 1367.44 13.312C1366.93 12.928 1366.54 12.448 1366.27 11.872C1366 11.296 1365.86 10.624 1365.86 9.856C1365.86 8.336 1366.4 7.128 1367.47 6.232C1368.56 5.32 1369.86 4.864 1371.38 4.864C1372.74 4.864 1373.93 5.2 1374.96 5.872C1376 6.528 1376.8 7.448 1377.38 8.632L1374.6 10.24C1373.92 8.8 1372.85 8.08 1371.38 8.08C1370.69 8.08 1370.15 8.24 1369.75 8.56C1369.36 8.864 1369.17 9.264 1369.17 9.76C1369.17 10.288 1369.39 10.72 1369.82 11.056C1370.27 11.376 1371.12 11.728 1372.36 12.112C1372.88 12.272 1373.26 12.4 1373.52 12.496C1373.79 12.576 1374.15 12.712 1374.6 12.904C1375.06 13.08 1375.41 13.248 1375.65 13.408C1375.91 13.568 1376.2 13.784 1376.52 14.056C1376.84 14.328 1377.08 14.608 1377.24 14.896C1377.41 15.184 1377.56 15.536 1377.67 15.952C1377.8 16.352 1377.86 16.792 1377.86 17.272C1377.86 18.824 1377.29 20.056 1376.16 20.968C1375.04 21.88 1373.57 22.336 1371.76 22.336ZM1388.83 16.888C1387.9 16.888 1387.11 16.568 1386.45 15.928C1385.81 15.272 1385.49 14.48 1385.49 13.552C1385.49 12.656 1385.81 11.888 1386.45 11.248C1387.11 10.608 1387.9 10.288 1388.83 10.288C1389.72 10.288 1390.49 10.608 1391.13 11.248C1391.77 11.888 1392.09 12.656 1392.09 13.552C1392.09 14.48 1391.77 15.272 1391.13 15.928C1390.49 16.568 1389.72 16.888 1388.83 16.888ZM1410.82 13.288C1412.29 14.136 1413.03 15.416 1413.03 17.128C1413.03 18.552 1412.53 19.72 1411.52 20.632C1410.51 21.544 1409.27 22 1407.8 22H1400.67V5.2H1407.29C1408.73 5.2 1409.94 5.648 1410.92 6.544C1411.91 7.424 1412.41 8.552 1412.41 9.928C1412.41 11.32 1411.88 12.44 1410.82 13.288ZM1407.29 8.296H1403.98V11.992H1407.29C1407.81 11.992 1408.23 11.816 1408.57 11.464C1408.92 11.112 1409.09 10.672 1409.09 10.144C1409.09 9.616 1408.93 9.176 1408.59 8.824C1408.25 8.472 1407.82 8.296 1407.29 8.296ZM1407.8 18.904C1408.36 18.904 1408.82 18.72 1409.19 18.352C1409.56 17.968 1409.74 17.488 1409.74 16.912C1409.74 16.352 1409.56 15.888 1409.19 15.52C1408.82 15.136 1408.36 14.944 1407.8 14.944H1403.98V18.904H1407.8ZM1423.07 2.128L1422.02 3.688H1418.94L1421.49 0.207999H1424.63L1427.18 3.688H1424.1L1423.07 2.128ZM1416.95 7.408C1418.65 5.712 1420.71 4.864 1423.14 4.864C1425.58 4.864 1427.64 5.712 1429.34 7.408C1431.03 9.088 1431.88 11.152 1431.88 13.6C1431.88 16.048 1431.03 18.12 1429.34 19.816C1427.64 21.496 1425.58 22.336 1423.14 22.336C1420.71 22.336 1418.65 21.496 1416.95 19.816C1415.27 18.12 1414.43 16.048 1414.43 13.6C1414.43 11.152 1415.27 9.088 1416.95 7.408ZM1419.28 17.56C1420.32 18.584 1421.61 19.096 1423.14 19.096C1424.68 19.096 1425.97 18.584 1427.01 17.56C1428.05 16.52 1428.57 15.2 1428.57 13.6C1428.57 12 1428.05 10.68 1427.01 9.64C1425.97 8.6 1424.68 8.08 1423.14 8.08C1421.61 8.08 1420.32 8.6 1419.28 9.64C1418.24 10.68 1417.72 12 1417.72 13.6C1417.72 15.2 1418.24 16.52 1419.28 17.56ZM1443.93 5.2H1447.24V22H1444.72L1437.52 11.728V22H1434.21V5.2H1436.73L1443.93 15.448V5.2ZM1456.62 22.336C1454.75 22.336 1453.21 21.808 1452.01 20.752C1450.81 19.696 1450.21 18.28 1450.21 16.504V5.2H1453.5V16.24C1453.5 17.12 1453.75 17.816 1454.24 18.328C1454.76 18.84 1455.55 19.096 1456.62 19.096C1457.69 19.096 1458.48 18.84 1458.97 18.328C1459.48 17.816 1459.74 17.12 1459.74 16.24V5.2H1463.05V16.504C1463.05 18.28 1462.45 19.696 1461.25 20.752C1460.05 21.808 1458.51 22.336 1456.62 22.336ZM1471.77 22.336C1470.11 22.336 1468.71 21.968 1467.57 21.232C1466.44 20.48 1465.64 19.464 1465.17 18.184L1468 16.528C1468.66 18.24 1469.95 19.096 1471.87 19.096C1472.8 19.096 1473.48 18.928 1473.91 18.592C1474.34 18.256 1474.56 17.832 1474.56 17.32C1474.56 16.728 1474.29 16.272 1473.76 15.952C1473.24 15.616 1472.29 15.256 1470.93 14.872C1470.18 14.648 1469.54 14.424 1469.01 14.2C1468.5 13.976 1467.98 13.68 1467.45 13.312C1466.94 12.928 1466.55 12.448 1466.28 11.872C1466 11.296 1465.87 10.624 1465.87 9.856C1465.87 8.336 1466.4 7.128 1467.48 6.232C1468.56 5.32 1469.87 4.864 1471.39 4.864C1472.75 4.864 1473.94 5.2 1474.96 5.872C1476 6.528 1476.81 7.448 1477.39 8.632L1474.6 10.24C1473.93 8.8 1472.86 8.08 1471.39 8.08C1470.7 8.08 1470.16 8.24 1469.76 8.56C1469.37 8.864 1469.18 9.264 1469.18 9.76C1469.18 10.288 1469.4 10.72 1469.83 11.056C1470.28 11.376 1471.12 11.728 1472.37 12.112C1472.88 12.272 1473.27 12.4 1473.52 12.496C1473.8 12.576 1474.16 12.712 1474.6 12.904C1475.07 13.08 1475.42 13.248 1475.66 13.408C1475.92 13.568 1476.2 13.784 1476.52 14.056C1476.84 14.328 1477.08 14.608 1477.24 14.896C1477.42 15.184 1477.56 15.536 1477.68 15.952C1477.8 16.352 1477.87 16.792 1477.87 17.272C1477.87 18.824 1477.3 20.056 1476.16 20.968C1475.04 21.88 1473.58 22.336 1471.77 22.336ZM1488.84 16.888C1487.91 16.888 1487.12 16.568 1486.46 15.928C1485.82 15.272 1485.5 14.48 1485.5 13.552C1485.5 12.656 1485.82 11.888 1486.46 11.248C1487.12 10.608 1487.91 10.288 1488.84 10.288C1489.73 10.288 1490.5 10.608 1491.14 11.248C1491.78 11.888 1492.1 12.656 1492.1 13.552C1492.1 14.48 1491.78 15.272 1491.14 15.928C1490.5 16.568 1489.73 16.888 1488.84 16.888ZM1510.83 13.288C1512.3 14.136 1513.04 15.416 1513.04 17.128C1513.04 18.552 1512.53 19.72 1511.53 20.632C1510.52 21.544 1509.28 22 1507.81 22H1500.68V5.2H1507.3C1508.74 5.2 1509.95 5.648 1510.93 6.544C1511.92 7.424 1512.41 8.552 1512.41 9.928C1512.41 11.32 1511.89 12.44 1510.83 13.288ZM1507.3 8.296H1503.99V11.992H1507.3C1507.81 11.992 1508.24 11.816 1508.57 11.464C1508.93 11.112 1509.1 10.672 1509.1 10.144C1509.1 9.616 1508.93 9.176 1508.6 8.824C1508.26 8.472 1507.83 8.296 1507.3 8.296ZM1507.81 18.904C1508.37 18.904 1508.83 18.72 1509.2 18.352C1509.57 17.968 1509.75 17.488 1509.75 16.912C1509.75 16.352 1509.57 15.888 1509.2 15.52C1508.83 15.136 1508.37 14.944 1507.81 14.944H1503.99V18.904H1507.81ZM1523.08 2.128L1522.02 3.688H1518.95L1521.5 0.207999H1524.64L1527.18 3.688H1524.11L1523.08 2.128ZM1516.96 7.408C1518.66 5.712 1520.72 4.864 1523.15 4.864C1525.58 4.864 1527.65 5.712 1529.34 7.408C1531.04 9.088 1531.89 11.152 1531.89 13.6C1531.89 16.048 1531.04 18.12 1529.34 19.816C1527.65 21.496 1525.58 22.336 1523.15 22.336C1520.72 22.336 1518.66 21.496 1516.96 19.816C1515.28 18.12 1514.44 16.048 1514.44 13.6C1514.44 11.152 1515.28 9.088 1516.96 7.408ZM1519.29 17.56C1520.33 18.584 1521.62 19.096 1523.15 19.096C1524.69 19.096 1525.98 18.584 1527.02 17.56C1528.06 16.52 1528.58 15.2 1528.58 13.6C1528.58 12 1528.06 10.68 1527.02 9.64C1525.98 8.6 1524.69 8.08 1523.15 8.08C1521.62 8.08 1520.33 8.6 1519.29 9.64C1518.25 10.68 1517.73 12 1517.73 13.6C1517.73 15.2 1518.25 16.52 1519.29 17.56ZM1543.94 5.2H1547.25V22H1544.73L1537.53 11.728V22H1534.22V5.2H1536.74L1543.94 15.448V5.2ZM1556.63 22.336C1554.76 22.336 1553.22 21.808 1552.02 20.752C1550.82 19.696 1550.22 18.28 1550.22 16.504V5.2H1553.51V16.24C1553.51 17.12 1553.76 17.816 1554.25 18.328C1554.76 18.84 1555.56 19.096 1556.63 19.096C1557.7 19.096 1558.48 18.84 1558.98 18.328C1559.49 17.816 1559.75 17.12 1559.75 16.24V5.2H1563.06V16.504C1563.06 18.28 1562.46 19.696 1561.26 20.752C1560.06 21.808 1558.52 22.336 1556.63 22.336ZM1571.78 22.336C1570.12 22.336 1568.72 21.968 1567.58 21.232C1566.44 20.48 1565.64 19.464 1565.18 18.184L1568.01 16.528C1568.67 18.24 1569.96 19.096 1571.88 19.096C1572.8 19.096 1573.48 18.928 1573.92 18.592C1574.35 18.256 1574.56 17.832 1574.56 17.32C1574.56 16.728 1574.3 16.272 1573.77 15.952C1573.24 15.616 1572.3 15.256 1570.94 14.872C1570.19 14.648 1569.55 14.424 1569.02 14.2C1568.51 13.976 1567.99 13.68 1567.46 13.312C1566.95 12.928 1566.56 12.448 1566.28 11.872C1566.01 11.296 1565.88 10.624 1565.88 9.856C1565.88 8.336 1566.41 7.128 1567.48 6.232C1568.57 5.32 1569.88 4.864 1571.4 4.864C1572.76 4.864 1573.95 5.2 1574.97 5.872C1576.01 6.528 1576.82 7.448 1577.4 8.632L1574.61 10.24C1573.94 8.8 1572.87 8.08 1571.4 8.08C1570.71 8.08 1570.16 8.24 1569.76 8.56C1569.38 8.864 1569.19 9.264 1569.19 9.76C1569.19 10.288 1569.4 10.72 1569.84 11.056C1570.28 11.376 1571.13 11.728 1572.38 12.112C1572.89 12.272 1573.28 12.4 1573.53 12.496C1573.8 12.576 1574.16 12.712 1574.61 12.904C1575.08 13.08 1575.43 13.248 1575.67 13.408C1575.92 13.568 1576.21 13.784 1576.53 14.056C1576.85 14.328 1577.09 14.608 1577.25 14.896C1577.43 15.184 1577.57 15.536 1577.68 15.952C1577.81 16.352 1577.88 16.792 1577.88 17.272C1577.88 18.824 1577.31 20.056 1576.17 20.968C1575.05 21.88 1573.59 22.336 1571.78 22.336ZM1588.84 16.888C1587.92 16.888 1587.12 16.568 1586.47 15.928C1585.83 15.272 1585.51 14.48 1585.51 13.552C1585.51 12.656 1585.83 11.888 1586.47 11.248C1587.12 10.608 1587.92 10.288 1588.84 10.288C1589.74 10.288 1590.51 10.608 1591.15 11.248C1591.79 11.888 1592.11 12.656 1592.11 13.552C1592.11 14.48 1591.79 15.272 1591.15 15.928C1590.51 16.568 1589.74 16.888 1588.84 16.888ZM1610.84 13.288C1612.31 14.136 1613.05 15.416 1613.05 17.128C1613.05 18.552 1612.54 19.72 1611.53 20.632C1610.53 21.544 1609.29 22 1607.81 22H1600.69V5.2H1607.31C1608.75 5.2 1609.96 5.648 1610.93 6.544C1611.93 7.424 1612.42 8.552 1612.42 9.928C1612.42 11.32 1611.89 12.44 1610.84 13.288ZM1607.31 8.296H1604V11.992H1607.31C1607.82 11.992 1608.25 11.816 1608.58 11.464C1608.93 11.112 1609.11 10.672 1609.11 10.144C1609.11 9.616 1608.94 9.176 1608.61 8.824C1608.27 8.472 1607.84 8.296 1607.31 8.296ZM1607.81 18.904C1608.37 18.904 1608.84 18.72 1609.21 18.352C1609.57 17.968 1609.76 17.488 1609.76 16.912C1609.76 16.352 1609.57 15.888 1609.21 15.52C1608.84 15.136 1608.37 14.944 1607.81 14.944H1604V18.904H1607.81ZM1623.09 2.128L1622.03 3.688H1618.96L1621.5 0.207999H1624.65L1627.19 3.688H1624.12L1623.09 2.128ZM1616.97 7.408C1618.66 5.712 1620.73 4.864 1623.16 4.864C1625.59 4.864 1627.66 5.712 1629.35 7.408C1631.05 9.088 1631.9 11.152 1631.9 13.6C1631.9 16.048 1631.05 18.12 1629.35 19.816C1627.66 21.496 1625.59 22.336 1623.16 22.336C1620.73 22.336 1618.66 21.496 1616.97 19.816C1615.29 18.12 1614.45 16.048 1614.45 13.6C1614.45 11.152 1615.29 9.088 1616.97 7.408ZM1619.3 17.56C1620.34 18.584 1621.62 19.096 1623.16 19.096C1624.7 19.096 1625.98 18.584 1627.02 17.56C1628.06 16.52 1628.58 15.2 1628.58 13.6C1628.58 12 1628.06 10.68 1627.02 9.64C1625.98 8.6 1624.7 8.08 1623.16 8.08C1621.62 8.08 1620.34 8.6 1619.3 9.64C1618.26 10.68 1617.74 12 1617.74 13.6C1617.74 15.2 1618.26 16.52 1619.3 17.56ZM1643.94 5.2H1647.26V22H1644.74L1637.54 11.728V22H1634.22V5.2H1636.74L1643.94 15.448V5.2ZM1656.64 22.336C1654.76 22.336 1653.23 21.808 1652.03 20.752C1650.83 19.696 1650.23 18.28 1650.23 16.504V5.2H1653.52V16.24C1653.52 17.12 1653.76 17.816 1654.26 18.328C1654.77 18.84 1655.56 19.096 1656.64 19.096C1657.71 19.096 1658.49 18.84 1658.99 18.328C1659.5 17.816 1659.76 17.12 1659.76 16.24V5.2H1663.07V16.504C1663.07 18.28 1662.47 19.696 1661.27 20.752C1660.07 21.808 1658.52 22.336 1656.64 22.336ZM1671.79 22.336C1670.12 22.336 1668.72 21.968 1667.59 21.232C1666.45 20.48 1665.65 19.464 1665.19 18.184L1668.02 16.528C1668.68 18.24 1669.96 19.096 1671.88 19.096C1672.81 19.096 1673.49 18.928 1673.92 18.592C1674.36 18.256 1674.57 17.832 1674.57 17.32C1674.57 16.728 1674.31 16.272 1673.78 15.952C1673.25 15.616 1672.31 15.256 1670.95 14.872C1670.2 14.648 1669.56 14.424 1669.03 14.2C1668.52 13.976 1668 13.68 1667.47 13.312C1666.96 12.928 1666.56 12.448 1666.29 11.872C1666.02 11.296 1665.88 10.624 1665.88 9.856C1665.88 8.336 1666.42 7.128 1667.49 6.232C1668.58 5.32 1669.88 4.864 1671.4 4.864C1672.76 4.864 1673.96 5.2 1674.98 5.872C1676.02 6.528 1676.83 7.448 1677.4 8.632L1674.62 10.24C1673.95 8.8 1672.88 8.08 1671.4 8.08C1670.72 8.08 1670.17 8.24 1669.77 8.56C1669.39 8.864 1669.2 9.264 1669.2 9.76C1669.2 10.288 1669.41 10.72 1669.84 11.056C1670.29 11.376 1671.14 11.728 1672.39 12.112C1672.9 12.272 1673.28 12.4 1673.54 12.496C1673.81 12.576 1674.17 12.712 1674.62 12.904C1675.08 13.08 1675.44 13.248 1675.68 13.408C1675.93 13.568 1676.22 13.784 1676.54 14.056C1676.86 14.328 1677.1 14.608 1677.26 14.896C1677.44 15.184 1677.58 15.536 1677.69 15.952C1677.82 16.352 1677.88 16.792 1677.88 17.272C1677.88 18.824 1677.32 20.056 1676.18 20.968C1675.06 21.88 1673.6 22.336 1671.79 22.336ZM1688.85 16.888C1687.92 16.888 1687.13 16.568 1686.48 15.928C1685.84 15.272 1685.52 14.48 1685.52 13.552C1685.52 12.656 1685.84 11.888 1686.48 11.248C1687.13 10.608 1687.92 10.288 1688.85 10.288C1689.75 10.288 1690.52 10.608 1691.16 11.248C1691.8 11.888 1692.12 12.656 1692.12 13.552C1692.12 14.48 1691.8 15.272 1691.16 15.928C1690.52 16.568 1689.75 16.888 1688.85 16.888ZM1710.84 13.288C1712.32 14.136 1713.05 15.416 1713.05 17.128C1713.05 18.552 1712.55 19.72 1711.54 20.632C1710.53 21.544 1709.29 22 1707.82 22H1700.69V5.2H1707.32C1708.76 5.2 1709.96 5.648 1710.94 6.544C1711.93 7.424 1712.43 8.552 1712.43 9.928C1712.43 11.32 1711.9 12.44 1710.84 13.288ZM1707.32 8.296H1704V11.992H1707.32C1707.83 11.992 1708.25 11.816 1708.59 11.464C1708.94 11.112 1709.12 10.672 1709.12 10.144C1709.12 9.616 1708.95 9.176 1708.61 8.824C1708.28 8.472 1707.84 8.296 1707.32 8.296ZM1707.82 18.904C1708.38 18.904 1708.84 18.72 1709.21 18.352C1709.58 17.968 1709.76 17.488 1709.76 16.912C1709.76 16.352 1709.58 15.888 1709.21 15.52C1708.84 15.136 1708.38 14.944 1707.82 14.944H1704V18.904H1707.82ZM1723.1 2.128L1722.04 3.688H1718.97L1721.51 0.207999H1724.66L1727.2 3.688H1724.13L1723.1 2.128ZM1716.98 7.408C1718.67 5.712 1720.74 4.864 1723.17 4.864C1725.6 4.864 1727.66 5.712 1729.36 7.408C1731.06 9.088 1731.9 11.152 1731.9 13.6C1731.9 16.048 1731.06 18.12 1729.36 19.816C1727.66 21.496 1725.6 22.336 1723.17 22.336C1720.74 22.336 1718.67 21.496 1716.98 19.816C1715.3 18.12 1714.46 16.048 1714.46 13.6C1714.46 11.152 1715.3 9.088 1716.98 7.408ZM1719.3 17.56C1720.34 18.584 1721.63 19.096 1723.17 19.096C1724.7 19.096 1725.99 18.584 1727.03 17.56C1728.07 16.52 1728.59 15.2 1728.59 13.6C1728.59 12 1728.07 10.68 1727.03 9.64C1725.99 8.6 1724.7 8.08 1723.17 8.08C1721.63 8.08 1720.34 8.6 1719.3 9.64C1718.26 10.68 1717.74 12 1717.74 13.6C1717.74 15.2 1718.26 16.52 1719.3 17.56ZM1743.95 5.2H1747.26V22H1744.74L1737.54 11.728V22H1734.23V5.2H1736.75L1743.95 15.448V5.2ZM1756.64 22.336C1754.77 22.336 1753.24 21.808 1752.04 20.752C1750.84 19.696 1750.24 18.28 1750.24 16.504V5.2H1753.52V16.24C1753.52 17.12 1753.77 17.816 1754.27 18.328C1754.78 18.84 1755.57 19.096 1756.64 19.096C1757.72 19.096 1758.5 18.84 1759 18.328C1759.51 17.816 1759.76 17.12 1759.76 16.24V5.2H1763.08V16.504C1763.08 18.28 1762.48 19.696 1761.28 20.752C1760.08 21.808 1758.53 22.336 1756.64 22.336ZM1771.8 22.336C1770.13 22.336 1768.73 21.968 1767.6 21.232C1766.46 20.48 1765.66 19.464 1765.2 18.184L1768.03 16.528C1768.68 18.24 1769.97 19.096 1771.89 19.096C1772.82 19.096 1773.5 18.928 1773.93 18.592C1774.36 18.256 1774.58 17.832 1774.58 17.32C1774.58 16.728 1774.32 16.272 1773.79 15.952C1773.26 15.616 1772.32 15.256 1770.96 14.872C1770.2 14.648 1769.56 14.424 1769.04 14.2C1768.52 13.976 1768 13.68 1767.48 13.312C1766.96 12.928 1766.57 12.448 1766.3 11.872C1766.03 11.296 1765.89 10.624 1765.89 9.856C1765.89 8.336 1766.43 7.128 1767.5 6.232C1768.59 5.32 1769.89 4.864 1771.41 4.864C1772.77 4.864 1773.96 5.2 1774.99 5.872C1776.03 6.528 1776.84 7.448 1777.41 8.632L1774.63 10.24C1773.96 8.8 1772.88 8.08 1771.41 8.08C1770.72 8.08 1770.18 8.24 1769.78 8.56C1769.4 8.864 1769.2 9.264 1769.2 9.76C1769.2 10.288 1769.42 10.72 1769.85 11.056C1770.3 11.376 1771.15 11.728 1772.4 12.112C1772.91 12.272 1773.29 12.4 1773.55 12.496C1773.82 12.576 1774.18 12.712 1774.63 12.904C1775.09 13.08 1775.44 13.248 1775.68 13.408C1775.94 13.568 1776.23 13.784 1776.55 14.056C1776.87 14.328 1777.11 14.608 1777.27 14.896C1777.44 15.184 1777.59 15.536 1777.7 15.952C1777.83 16.352 1777.89 16.792 1777.89 17.272C1777.89 18.824 1777.32 20.056 1776.19 20.968C1775.07 21.88 1773.6 22.336 1771.8 22.336ZM1794.86 16.888C1793.93 16.888 1793.14 16.568 1792.48 15.928C1791.84 15.272 1791.52 14.48 1791.52 13.552C1791.52 12.656 1791.84 11.888 1792.48 11.248C1793.14 10.608 1793.93 10.288 1794.86 10.288C1795.76 10.288 1796.52 10.608 1797.16 11.248C1797.8 11.888 1798.12 12.656 1798.12 13.552C1798.12 14.48 1797.8 15.272 1797.16 15.928C1796.52 16.568 1795.76 16.888 1794.86 16.888ZM1816.85 13.288C1818.32 14.136 1819.06 15.416 1819.06 17.128C1819.06 18.552 1818.56 19.72 1817.55 20.632C1816.54 21.544 1815.3 22 1813.83 22H1806.7V5.2H1813.32C1814.76 5.2 1815.97 5.648 1816.95 6.544C1817.94 7.424 1818.44 8.552 1818.44 9.928C1818.44 11.32 1817.91 12.44 1816.85 13.288ZM1813.32 8.296H1810.01V11.992H1813.32C1813.84 11.992 1814.26 11.816 1814.6 11.464C1814.95 11.112 1815.12 10.672 1815.12 10.144C1815.12 9.616 1814.96 9.176 1814.62 8.824C1814.28 8.472 1813.85 8.296 1813.32 8.296ZM1813.83 18.904C1814.39 18.904 1814.85 18.72 1815.22 18.352C1815.59 17.968 1815.77 17.488 1815.77 16.912C1815.77 16.352 1815.59 15.888 1815.22 15.52C1814.85 15.136 1814.39 14.944 1813.83 14.944H1810.01V18.904H1813.83ZM1829.1 2.128L1828.05 3.688H1824.98L1827.52 0.207999H1830.66L1833.21 3.688H1830.14L1829.1 2.128ZM1822.98 7.408C1824.68 5.712 1826.74 4.864 1829.18 4.864C1831.61 4.864 1833.67 5.712 1835.37 7.408C1837.06 9.088 1837.91 11.152 1837.91 13.6C1837.91 16.048 1837.06 18.12 1835.37 19.816C1833.67 21.496 1831.61 22.336 1829.18 22.336C1826.74 22.336 1824.68 21.496 1822.98 19.816C1821.3 18.12 1820.46 16.048 1820.46 13.6C1820.46 11.152 1821.3 9.088 1822.98 7.408ZM1825.31 17.56C1826.35 18.584 1827.64 19.096 1829.18 19.096C1830.71 19.096 1832 18.584 1833.04 17.56C1834.08 16.52 1834.6 15.2 1834.6 13.6C1834.6 12 1834.08 10.68 1833.04 9.64C1832 8.6 1830.71 8.08 1829.18 8.08C1827.64 8.08 1826.35 8.6 1825.31 9.64C1824.27 10.68 1823.75 12 1823.75 13.6C1823.75 15.2 1824.27 16.52 1825.31 17.56ZM1849.96 5.2H1853.27V22H1850.75L1843.55 11.728V22H1840.24V5.2H1842.76L1849.96 15.448V5.2ZM1862.65 22.336C1860.78 22.336 1859.24 21.808 1858.04 20.752C1856.84 19.696 1856.24 18.28 1856.24 16.504V5.2H1859.53V16.24C1859.53 17.12 1859.78 17.816 1860.28 18.328C1860.79 18.84 1861.58 19.096 1862.65 19.096C1863.72 19.096 1864.51 18.84 1865 18.328C1865.52 17.816 1865.77 17.12 1865.77 16.24V5.2H1869.08V16.504C1869.08 18.28 1868.48 19.696 1867.28 20.752C1866.08 21.808 1864.54 22.336 1862.65 22.336ZM1877.8 22.336C1876.14 22.336 1874.74 21.968 1873.6 21.232C1872.47 20.48 1871.67 19.464 1871.2 18.184L1874.04 16.528C1874.69 18.24 1875.98 19.096 1877.9 19.096C1878.83 19.096 1879.51 18.928 1879.94 18.592C1880.37 18.256 1880.59 17.832 1880.59 17.32C1880.59 16.728 1880.32 16.272 1879.8 15.952C1879.27 15.616 1878.32 15.256 1876.96 14.872C1876.21 14.648 1875.57 14.424 1875.04 14.2C1874.53 13.976 1874.01 13.68 1873.48 13.312C1872.97 12.928 1872.58 12.448 1872.31 11.872C1872.04 11.296 1871.9 10.624 1871.9 9.856C1871.9 8.336 1872.44 7.128 1873.51 6.232C1874.6 5.32 1875.9 4.864 1877.42 4.864C1878.78 4.864 1879.97 5.2 1881 5.872C1882.04 6.528 1882.84 7.448 1883.42 8.632L1880.64 10.24C1879.96 8.8 1878.89 8.08 1877.42 8.08C1876.73 8.08 1876.19 8.24 1875.79 8.56C1875.4 8.864 1875.21 9.264 1875.21 9.76C1875.21 10.288 1875.43 10.72 1875.86 11.056C1876.31 11.376 1877.16 11.728 1878.4 12.112C1878.92 12.272 1879.3 12.4 1879.56 12.496C1879.83 12.576 1880.19 12.712 1880.64 12.904C1881.1 13.08 1881.45 13.248 1881.69 13.408C1881.95 13.568 1882.24 13.784 1882.56 14.056C1882.88 14.328 1883.12 14.608 1883.28 14.896C1883.45 15.184 1883.6 15.536 1883.71 15.952C1883.84 16.352 1883.9 16.792 1883.9 17.272C1883.9 18.824 1883.33 20.056 1882.2 20.968C1881.08 21.88 1879.61 22.336 1877.8 22.336ZM1894.87 16.888C1893.94 16.888 1893.15 16.568 1892.49 15.928C1891.85 15.272 1891.53 14.48 1891.53 13.552C1891.53 12.656 1891.85 11.888 1892.49 11.248C1893.15 10.608 1893.94 10.288 1894.87 10.288C1895.76 10.288 1896.53 10.608 1897.17 11.248C1897.81 11.888 1898.13 12.656 1898.13 13.552C1898.13 14.48 1897.81 15.272 1897.17 15.928C1896.53 16.568 1895.76 16.888 1894.87 16.888ZM1916.86 13.288C1918.33 14.136 1919.07 15.416 1919.07 17.128C1919.07 18.552 1918.56 19.72 1917.56 20.632C1916.55 21.544 1915.31 22 1913.84 22H1906.71V5.2H1913.33C1914.77 5.2 1915.98 5.648 1916.96 6.544C1917.95 7.424 1918.44 8.552 1918.44 9.928C1918.44 11.32 1917.92 12.44 1916.86 13.288ZM1913.33 8.296H1910.02V11.992H1913.33C1913.84 11.992 1914.27 11.816 1914.6 11.464C1914.96 11.112 1915.13 10.672 1915.13 10.144C1915.13 9.616 1914.96 9.176 1914.63 8.824C1914.29 8.472 1913.86 8.296 1913.33 8.296ZM1913.84 18.904C1914.4 18.904 1914.86 18.72 1915.23 18.352C1915.6 17.968 1915.78 17.488 1915.78 16.912C1915.78 16.352 1915.6 15.888 1915.23 15.52C1914.86 15.136 1914.4 14.944 1913.84 14.944H1910.02V18.904H1913.84ZM1929.11 2.128L1928.06 3.688H1924.98L1927.53 0.207999H1930.67L1933.22 3.688H1930.14L1929.11 2.128ZM1922.99 7.408C1924.69 5.712 1926.75 4.864 1929.18 4.864C1931.62 4.864 1933.68 5.712 1935.38 7.408C1937.07 9.088 1937.92 11.152 1937.92 13.6C1937.92 16.048 1937.07 18.12 1935.38 19.816C1933.68 21.496 1931.62 22.336 1929.18 22.336C1926.75 22.336 1924.69 21.496 1922.99 19.816C1921.31 18.12 1920.47 16.048 1920.47 13.6C1920.47 11.152 1921.31 9.088 1922.99 7.408ZM1925.32 17.56C1926.36 18.584 1927.65 19.096 1929.18 19.096C1930.72 19.096 1932.01 18.584 1933.05 17.56C1934.09 16.52 1934.61 15.2 1934.61 13.6C1934.61 12 1934.09 10.68 1933.05 9.64C1932.01 8.6 1930.72 8.08 1929.18 8.08C1927.65 8.08 1926.36 8.6 1925.32 9.64C1924.28 10.68 1923.76 12 1923.76 13.6C1923.76 15.2 1924.28 16.52 1925.32 17.56ZM1949.97 5.2H1953.28V22H1950.76L1943.56 11.728V22H1940.25V5.2H1942.77L1949.97 15.448V5.2ZM1962.66 22.336C1960.79 22.336 1959.25 21.808 1958.05 20.752C1956.85 19.696 1956.25 18.28 1956.25 16.504V5.2H1959.54V16.24C1959.54 17.12 1959.79 17.816 1960.28 18.328C1960.8 18.84 1961.59 19.096 1962.66 19.096C1963.73 19.096 1964.52 18.84 1965.01 18.328C1965.52 17.816 1965.78 17.12 1965.78 16.24V5.2H1969.09V16.504C1969.09 18.28 1968.49 19.696 1967.29 20.752C1966.09 21.808 1964.55 22.336 1962.66 22.336ZM1977.81 22.336C1976.15 22.336 1974.75 21.968 1973.61 21.232C1972.48 20.48 1971.68 19.464 1971.21 18.184L1974.04 16.528C1974.7 18.24 1975.99 19.096 1977.91 19.096C1978.84 19.096 1979.52 18.928 1979.95 18.592C1980.38 18.256 1980.6 17.832 1980.6 17.32C1980.6 16.728 1980.33 16.272 1979.8 15.952C1979.28 15.616 1978.33 15.256 1976.97 14.872C1976.22 14.648 1975.58 14.424 1975.05 14.2C1974.54 13.976 1974.02 13.68 1973.49 13.312C1972.98 12.928 1972.59 12.448 1972.32 11.872C1972.04 11.296 1971.91 10.624 1971.91 9.856C1971.91 8.336 1972.44 7.128 1973.52 6.232C1974.6 5.32 1975.91 4.864 1977.43 4.864C1978.79 4.864 1979.98 5.2 1981 5.872C1982.04 6.528 1982.85 7.448 1983.43 8.632L1980.64 10.24C1979.97 8.8 1978.9 8.08 1977.43 8.08C1976.74 8.08 1976.2 8.24 1975.8 8.56C1975.41 8.864 1975.22 9.264 1975.22 9.76C1975.22 10.288 1975.44 10.72 1975.87 11.056C1976.32 11.376 1977.16 11.728 1978.41 12.112C1978.92 12.272 1979.31 12.4 1979.56 12.496C1979.84 12.576 1980.2 12.712 1980.64 12.904C1981.11 13.08 1981.46 13.248 1981.7 13.408C1981.96 13.568 1982.24 13.784 1982.56 14.056C1982.88 14.328 1983.12 14.608 1983.28 14.896C1983.46 15.184 1983.6 15.536 1983.72 15.952C1983.84 16.352 1983.91 16.792 1983.91 17.272C1983.91 18.824 1983.34 20.056 1982.2 20.968C1981.08 21.88 1979.62 22.336 1977.81 22.336ZM1994.88 16.888C1993.95 16.888 1993.16 16.568 1992.5 15.928C1991.86 15.272 1991.54 14.48 1991.54 13.552C1991.54 12.656 1991.86 11.888 1992.5 11.248C1993.16 10.608 1993.95 10.288 1994.88 10.288C1995.77 10.288 1996.54 10.608 1997.18 11.248C1997.82 11.888 1998.14 12.656 1998.14 13.552C1998.14 14.48 1997.82 15.272 1997.18 15.928C1996.54 16.568 1995.77 16.888 1994.88 16.888Z" fill="white"/>
</svg>
