<svg width="138" height="34" viewBox="0 0 138 34" fill="none" xmlns="http://www.w3.org/2000/svg">
<g id="Vector">
<path d="M138 2.65904e-05C138 0.548387 124.396 -1.46328 109 9.04839C96.7957 17.3811 87.2999 34 69 34C50.7001 34 40.3834 17.4338 28.5 9.04839C13.7462 -1.36257 0 0.274194 0 3.07743e-05L56.7148 2.65904e-05C58.0884 0.000145291 58.7302 -0.000112425 61.2977 0.000145291C64.1861 0.000145291 65.4208 2.66891e-05 68.6791 2.65904e-05C71.9373 2.64917e-05 73.814 2.65822e-05 76.3814 0C78.307 2.04875e-05 79.2698 1.27314e-05 81.2852 2.65904e-05H138Z" fill="#140A29"/>
<path fill-rule="evenodd" clip-rule="evenodd" d="M71.0707 22.3411C70.6576 22.763 70.0975 23 69.5136 23C68.9297 23 68.3697 22.763 67.9565 22.3411L59.6451 13.846C59.2319 13.4233 58.9999 12.8502 59 12.2526C59.0001 11.655 59.2324 11.082 59.6458 10.6595C60.0592 10.2371 60.6197 9.99983 61.2042 9.99997C61.7886 10.0001 62.3491 10.2376 62.7622 10.6603L69.5136 17.5633L76.265 10.6603C76.6804 10.2497 77.2369 10.0223 77.8146 10.0272C78.3924 10.032 78.9452 10.2687 79.3539 10.6862C79.7626 11.1037 79.9946 11.6687 79.9999 12.2594C80.0052 12.8501 79.7834 13.4193 79.3822 13.8445L71.0722 22.3426L71.0707 22.3411Z" fill="url(#paint0_linear_133_1644)"/>
</g>
<defs>
<linearGradient id="paint0_linear_133_1644" x1="0" y1="0" x2="15.7949" y2="64.1085" gradientUnits="userSpaceOnUse">
<stop stop-color="#FD5309"/>
<stop offset="1" stop-color="#FF9101"/>
</linearGradient>
</defs>
</svg>
