<svg width="28" height="28" viewBox="0 0 28 28" fill="none" xmlns="http://www.w3.org/2000/svg">
<g id="Point">
<g id="Group" filter="url(#filter0_d_133_2494)">
<g id="Group_2">
<path id="Vector" d="M14 6C9.58172 6 6 9.58172 6 14C6 18.4183 9.58172 22 14 22C18.4183 22 22 18.4183 22 14C21.9953 9.58369 18.4163 6.00472 14 6ZM14 20.8571C10.2129 20.8571 7.14285 17.7871 7.14285 14C7.14285 10.2129 10.2129 7.14285 14 7.14285C17.7871 7.14285 20.8571 10.2129 20.8571 14C20.853 17.7854 17.7854 20.853 14 20.8571Z" fill="url(#paint0_linear_133_2494)"/>
</g>
</g>
<g id="Group_3" filter="url(#filter1_d_133_2494)">
<g id="Group_4">
<path id="Vector_2" d="M14.0001 18.5715C16.5248 18.5715 18.5715 16.5248 18.5715 14.0001C18.5715 11.4754 16.5248 9.42871 14.0001 9.42871C11.4754 9.42871 9.42871 11.4754 9.42871 14.0001C9.42871 16.5248 11.4754 18.5715 14.0001 18.5715Z" fill="url(#paint1_linear_133_2494)"/>
</g>
</g>
</g>
<defs>
<filter id="filter0_d_133_2494" x="0" y="0" width="28" height="28" filterUnits="userSpaceOnUse" color-interpolation-filters="sRGB">
<feFlood flood-opacity="0" result="BackgroundImageFix"/>
<feColorMatrix in="SourceAlpha" type="matrix" values="0 0 0 0 0 0 0 0 0 0 0 0 0 0 0 0 0 0 127 0" result="hardAlpha"/>
<feOffset/>
<feGaussianBlur stdDeviation="3"/>
<feComposite in2="hardAlpha" operator="out"/>
<feColorMatrix type="matrix" values="0 0 0 0 1 0 0 0 0 0.568627 0 0 0 0 0.00392157 0 0 0 0.42 0"/>
<feBlend mode="normal" in2="BackgroundImageFix" result="effect1_dropShadow_133_2494"/>
<feBlend mode="normal" in="SourceGraphic" in2="effect1_dropShadow_133_2494" result="shape"/>
</filter>
<filter id="filter1_d_133_2494" x="3.42871" y="3.42871" width="21.1431" height="21.1426" filterUnits="userSpaceOnUse" color-interpolation-filters="sRGB">
<feFlood flood-opacity="0" result="BackgroundImageFix"/>
<feColorMatrix in="SourceAlpha" type="matrix" values="0 0 0 0 0 0 0 0 0 0 0 0 0 0 0 0 0 0 127 0" result="hardAlpha"/>
<feOffset/>
<feGaussianBlur stdDeviation="3"/>
<feComposite in2="hardAlpha" operator="out"/>
<feColorMatrix type="matrix" values="0 0 0 0 1 0 0 0 0 0.568627 0 0 0 0 0.00392157 0 0 0 0.42 0"/>
<feBlend mode="normal" in2="BackgroundImageFix" result="effect1_dropShadow_133_2494"/>
<feBlend mode="normal" in="SourceGraphic" in2="effect1_dropShadow_133_2494" result="shape"/>
</filter>
<linearGradient id="paint0_linear_133_2494" x1="14" y1="6" x2="14" y2="22" gradientUnits="userSpaceOnUse">
<stop stop-color="#FF5900"/>
<stop offset="0.0001" stop-color="#FF5900"/>
<stop offset="1" stop-color="#FF9100"/>
</linearGradient>
<linearGradient id="paint1_linear_133_2494" x1="14.0001" y1="9.42871" x2="14.0001" y2="18.5715" gradientUnits="userSpaceOnUse">
<stop stop-color="#FF5900"/>
<stop offset="0.0001" stop-color="#FF5900"/>
<stop offset="1" stop-color="#FF9100"/>
</linearGradient>
</defs>
</svg>
