<svg width="135" height="33" viewBox="0 0 135 33" fill="none" xmlns="http://www.w3.org/2000/svg">
<g clip-path="url(#clip0_133_2471)">
<path d="M14.6529 18.3242C11.9351 18.3242 3.93606 18.3242 3.93606 18.3242C3.08691 18.3242 2.39209 19.0189 2.39209 19.8681V31.4563C2.39209 32.3054 3.08691 33.0001 3.93606 33.0001C3.93606 33.0001 12.1025 33.0001 14.8331 33.0001C15.1963 33.0001 15.1963 32.6099 15.1963 32.6099V18.8488C15.1963 18.8488 15.1962 18.3242 14.6529 18.3242Z" fill="url(#paint0_linear_133_2471)"/>
<path d="M29.0644 18.3242C29.0644 18.3242 21.0348 18.3242 18.3585 18.3242C17.7064 18.3242 17.804 19.0033 17.804 19.0033V32.6225C17.804 32.6225 17.7987 32.9998 18.191 32.9998C20.9093 32.9998 29.0642 32.9998 29.0642 32.9998C29.9133 32.9998 30.6082 32.3051 30.6082 31.4559V19.8681C30.6084 19.0189 29.9136 18.3242 29.0644 18.3242Z" fill="url(#paint1_linear_133_2471)"/>
<path d="M15.1961 9.20676C15.1961 9.20676 15.1961 8.68359 14.6791 8.68359C11.5834 8.68359 2.1924 8.68359 2.1924 8.68359C1.34326 8.68359 0.648438 9.37841 0.648438 10.2274V15.0469C0.648438 15.896 1.34326 16.5907 2.1924 16.5907C2.1924 16.5907 11.6255 16.5907 14.7214 16.5907C15.1961 16.5907 15.1961 16.179 15.1961 16.179V9.20676Z" fill="url(#paint2_linear_133_2471)"/>
<path d="M30.8073 8.68359C30.8073 8.68359 21.4124 8.68359 18.2808 8.68359C17.8037 8.68359 17.8037 9.13814 17.8037 9.13814V16.1886C17.8037 16.1886 17.8037 16.5907 18.3837 16.5907C21.4895 16.5907 30.8073 16.5907 30.8073 16.5907C31.6564 16.5907 32.3513 15.896 32.3513 15.0469V10.2274C32.3513 9.37841 31.6564 8.68359 30.8073 8.68359Z" fill="url(#paint3_linear_133_2471)"/>
<path d="M9.94453 7.54098C9.23813 7.54098 8.59292 7.48496 8.02712 7.37439C6.59001 7.09363 5.60228 6.54718 5.00746 5.70399C4.47451 4.94832 4.31141 4.01672 4.52254 2.93495C4.89239 1.04228 6.16347 0 8.10136 0C8.51148 0 8.96187 0.0473561 9.44015 0.140831C10.6568 0.378511 12.2129 1.07614 13.6029 2.00695C15.9611 3.58635 16.0778 4.56823 15.9603 5.16946C15.7877 6.05292 14.9619 6.68418 13.4358 7.09948C12.4048 7.38001 11.1323 7.54098 9.94453 7.54098ZM8.10147 2.47455C7.35097 2.47455 7.09304 2.68422 6.95142 3.40941C6.83557 4.00232 6.98168 4.20941 7.0296 4.27746C7.23027 4.56205 7.75299 4.79939 8.50158 4.94551C8.90551 5.02447 9.40461 5.0662 9.94442 5.0662C11.1315 5.0662 12.1772 4.88634 12.8712 4.6896C12.9217 4.67532 13.0001 4.61559 12.916 4.56553C12.0089 3.82651 10.3491 2.83968 8.96569 2.56938C8.64342 2.50661 8.35254 2.47455 8.10147 2.47455Z" fill="url(#paint4_linear_133_2471)"/>
<path d="M23.0911 7.54087C23.0911 7.54087 23.0911 7.54087 23.0909 7.54087C21.9031 7.54087 20.6307 7.3799 19.5997 7.09937C18.0735 6.68418 17.2478 6.05281 17.0752 5.16946C16.9578 4.56823 17.0743 3.58635 19.4327 2.00695C20.8225 1.07614 22.3786 0.378511 23.5955 0.140831C24.0737 0.0473561 24.5241 0 24.9339 0C26.8723 0 28.1432 1.0424 28.5127 2.93507C28.7241 4.01672 28.5611 4.94832 28.028 5.70399C27.4332 6.54729 26.4456 7.09363 25.0082 7.37439C24.4426 7.48474 23.7974 7.54087 23.0911 7.54087ZM20.1393 4.55012C20.0588 4.5968 20.0977 4.67048 20.1395 4.68252C20.8331 4.88195 21.8899 5.0662 23.0909 5.0662C23.6309 5.0662 24.1298 5.02447 24.5338 4.94551C25.2823 4.79928 25.8052 4.56205 26.0058 4.27746C26.0539 4.20941 26.2002 4.00232 26.084 3.40941C25.9425 2.68422 25.6844 2.47455 24.9338 2.47455C24.6828 2.47455 24.3922 2.5065 24.0697 2.56949C22.6861 2.83968 21.0464 3.81098 20.1393 4.55012Z" fill="url(#paint5_linear_133_2471)"/>
</g>
<path d="M57.784 17.966C58.888 18.602 59.44 19.562 59.44 20.846C59.44 21.914 59.062 22.79 58.306 23.474C57.55 24.158 56.62 24.5 55.516 24.5H50.17V11.9H55.138C56.218 11.9 57.124 12.236 57.856 12.908C58.6 13.568 58.972 14.414 58.972 15.446C58.972 16.49 58.576 17.33 57.784 17.966ZM55.138 14.222H52.654V16.994H55.138C55.522 16.994 55.84 16.862 56.092 16.598C56.356 16.334 56.488 16.004 56.488 15.608C56.488 15.212 56.362 14.882 56.11 14.618C55.858 14.354 55.534 14.222 55.138 14.222ZM55.516 22.178C55.936 22.178 56.284 22.04 56.56 21.764C56.836 21.476 56.974 21.116 56.974 20.684C56.974 20.264 56.836 19.916 56.56 19.64C56.284 19.352 55.936 19.208 55.516 19.208H52.654V22.178H55.516ZM73.5424 9.596L72.7504 10.766H70.4464L72.3544 8.156H74.7124L76.6204 10.766H74.3164L73.5424 9.596ZM68.9524 13.556C70.2244 12.284 71.7724 11.648 73.5964 11.648C75.4204 11.648 76.9684 12.284 78.2404 13.556C79.5124 14.816 80.1484 16.364 80.1484 18.2C80.1484 20.036 79.5124 21.59 78.2404 22.862C76.9684 24.122 75.4204 24.752 73.5964 24.752C71.7724 24.752 70.2244 24.122 68.9524 22.862C67.6924 21.59 67.0624 20.036 67.0624 18.2C67.0624 16.364 67.6924 14.816 68.9524 13.556ZM70.6984 21.17C71.4784 21.938 72.4444 22.322 73.5964 22.322C74.7484 22.322 75.7144 21.938 76.4944 21.17C77.2744 20.39 77.6644 19.4 77.6644 18.2C77.6644 17 77.2744 16.01 76.4944 15.23C75.7144 14.45 74.7484 14.06 73.5964 14.06C72.4444 14.06 71.4784 14.45 70.6984 15.23C69.9184 16.01 69.5284 17 69.5284 18.2C69.5284 19.4 69.9184 20.39 70.6984 21.17ZM95.7543 11.9H98.2383V24.5H96.3483L90.9483 16.796V24.5H88.4643V11.9H90.3543L95.7543 19.586V11.9ZM111.844 24.752C110.44 24.752 109.288 24.356 108.388 23.564C107.488 22.772 107.038 21.71 107.038 20.378V11.9H109.504V20.18C109.504 20.84 109.69 21.362 110.062 21.746C110.446 22.13 111.04 22.322 111.844 22.322C112.648 22.322 113.236 22.13 113.608 21.746C113.992 21.362 114.184 20.84 114.184 20.18V11.9H116.668V20.378C116.668 21.71 116.218 22.772 115.318 23.564C114.418 24.356 113.26 24.752 111.844 24.752ZM129.777 24.752C128.529 24.752 127.479 24.476 126.627 23.924C125.775 23.36 125.175 22.598 124.827 21.638L126.951 20.396C127.443 21.68 128.409 22.322 129.849 22.322C130.545 22.322 131.055 22.196 131.379 21.944C131.703 21.692 131.865 21.374 131.865 20.99C131.865 20.546 131.667 20.204 131.271 19.964C130.875 19.712 130.167 19.442 129.147 19.154C128.583 18.986 128.103 18.818 127.707 18.65C127.323 18.482 126.933 18.26 126.537 17.984C126.153 17.696 125.859 17.336 125.655 16.904C125.451 16.472 125.349 15.968 125.349 15.392C125.349 14.252 125.751 13.346 126.555 12.674C127.371 11.99 128.349 11.648 129.489 11.648C130.509 11.648 131.403 11.9 132.171 12.404C132.951 12.896 133.557 13.586 133.989 14.474L131.901 15.68C131.397 14.6 130.593 14.06 129.489 14.06C128.973 14.06 128.565 14.18 128.265 14.42C127.977 14.648 127.833 14.948 127.833 15.32C127.833 15.716 127.995 16.04 128.319 16.292C128.655 16.532 129.291 16.796 130.227 17.084C130.611 17.204 130.899 17.3 131.091 17.372C131.295 17.432 131.565 17.534 131.901 17.678C132.249 17.81 132.513 17.936 132.693 18.056C132.885 18.176 133.101 18.338 133.341 18.542C133.581 18.746 133.761 18.956 133.881 19.172C134.013 19.388 134.121 19.652 134.205 19.964C134.301 20.264 134.349 20.594 134.349 20.954C134.349 22.118 133.923 23.042 133.071 23.726C132.231 24.41 131.133 24.752 129.777 24.752Z" fill="url(#paint6_linear_133_2471)"/>
<defs>
<linearGradient id="paint0_linear_133_2471" x1="8.79422" y1="18.3242" x2="8.79422" y2="33.0001" gradientUnits="userSpaceOnUse">
<stop stop-color="#FF5900"/>
<stop offset="0.0001" stop-color="#FF5900"/>
<stop offset="1" stop-color="#FF9100"/>
</linearGradient>
<linearGradient id="paint1_linear_133_2471" x1="24.2035" y1="18.3242" x2="24.2035" y2="32.9998" gradientUnits="userSpaceOnUse">
<stop stop-color="#FF5900"/>
<stop offset="0.0001" stop-color="#FF5900"/>
<stop offset="1" stop-color="#FF9100"/>
</linearGradient>
<linearGradient id="paint2_linear_133_2471" x1="7.92227" y1="8.68359" x2="7.92227" y2="16.5907" gradientUnits="userSpaceOnUse">
<stop stop-color="#FF5900"/>
<stop offset="0.0001" stop-color="#FF5900"/>
<stop offset="1" stop-color="#FF9100"/>
</linearGradient>
<linearGradient id="paint3_linear_133_2471" x1="25.0775" y1="8.68359" x2="25.0775" y2="16.5907" gradientUnits="userSpaceOnUse">
<stop stop-color="#FF5900"/>
<stop offset="0.0001" stop-color="#FF5900"/>
<stop offset="1" stop-color="#FF9100"/>
</linearGradient>
<linearGradient id="paint4_linear_133_2471" x1="10.2119" y1="0" x2="10.2119" y2="7.54098" gradientUnits="userSpaceOnUse">
<stop stop-color="#FF5900"/>
<stop offset="0.0001" stop-color="#FF5900"/>
<stop offset="1" stop-color="#FF9100"/>
</linearGradient>
<linearGradient id="paint5_linear_133_2471" x1="22.8236" y1="0" x2="22.8236" y2="7.54087" gradientUnits="userSpaceOnUse">
<stop stop-color="#FF5900"/>
<stop offset="0.0001" stop-color="#FF5900"/>
<stop offset="1" stop-color="#FF9100"/>
</linearGradient>
<linearGradient id="paint6_linear_133_2471" x1="92" y1="8.5" x2="92" y2="24.5" gradientUnits="userSpaceOnUse">
<stop stop-color="#FF5900"/>
<stop offset="0.0001" stop-color="#FF5900"/>
<stop offset="1" stop-color="#FF9100"/>
</linearGradient>
<clipPath id="clip0_133_2471">
<rect width="33" height="33" fill="white"/>
</clipPath>
</defs>
</svg>
