<svg width="44" height="45" viewBox="0 0 44 45" fill="none" xmlns="http://www.w3.org/2000/svg">
<g id="Certificado" clip-path="url(#clip0_133_2407)">
<path id="Vector" d="M34.0309 18.8077V3.48577C34.0309 1.83936 32.6915 0.5 31.0451 0.5H6.768C5.12159 0.5 3.78223 1.83936 3.78223 3.48577V35.3251C3.78223 36.9715 5.12159 38.3109 6.768 38.3109H25.0938V43.1232C25.0938 44.1747 26.2324 44.8417 27.1509 44.317L31.281 41.9569C35.8428 44.5636 35.6043 44.4981 36.0933 44.4981C36.8526 44.4981 37.4683 43.8816 37.4683 43.1232V33.7542C42.362 29.0527 40.4236 20.8799 34.0309 18.8077ZM6.768 35.561C6.63789 35.561 6.53211 35.4552 6.53211 35.3251V3.48577C6.53211 3.35567 6.63789 3.24988 6.768 3.24988H31.0452C31.1753 3.24988 31.281 3.35567 31.281 3.48577V18.3742C26.3531 18.3742 22.3439 22.3834 22.3439 27.3113C22.3439 29.8402 23.3999 32.1268 25.0938 33.7542V35.561H6.768ZM34.7184 40.7539L31.9632 39.1795C31.5404 38.9379 31.0216 38.9379 30.5988 39.1795L27.8436 40.7539V35.5606C30.036 36.4776 32.523 36.4788 34.7183 35.5606L34.7184 40.7539ZM31.281 33.4986C27.8694 33.4986 25.0938 30.723 25.0938 27.3113C25.0938 23.8997 27.8694 21.1241 31.281 21.1241C34.6927 21.1241 37.4683 23.8997 37.4683 27.3113C37.4683 30.723 34.6927 33.4986 31.281 33.4986Z" fill="url(#paint0_linear_133_2407)"/>
<path id="Vector_2" d="M30.592 30.835C30.0549 30.835 29.9865 30.7079 27.7682 29.229C27.1363 28.8077 26.9656 27.954 27.3868 27.3223C27.8081 26.6904 28.6618 26.5197 29.2935 26.9409L30.212 27.5532L32.1992 24.5724C32.6204 23.9405 33.4742 23.7698 34.1059 24.191C34.7378 24.6123 34.9085 25.4659 34.4873 26.0977L31.7374 30.2225C31.4723 30.62 31.0363 30.835 30.592 30.835Z" fill="url(#paint1_linear_133_2407)"/>
<path id="Vector_3" d="M23.7187 10.1249H12.0317C11.2724 10.1249 10.6567 9.50925 10.6567 8.74994C10.6567 7.99063 11.2724 7.375 12.0317 7.375H23.7187C24.4781 7.375 25.0936 7.99063 25.0936 8.74994C25.0936 9.50925 24.478 10.1249 23.7187 10.1249Z" fill="url(#paint2_linear_133_2407)"/>
<path id="Vector_4" d="M23.7187 15.6239H12.0317C11.2724 15.6239 10.6567 15.0083 10.6567 14.249C10.6567 13.4897 11.2724 12.874 12.0317 12.874H23.7187C24.4781 12.874 25.0936 13.4897 25.0936 14.249C25.0936 15.0083 24.478 15.6239 23.7187 15.6239Z" fill="url(#paint3_linear_133_2407)"/>
<path id="Vector_5" d="M18.9064 21.1239H12.0317C11.2724 21.1239 10.6567 20.5083 10.6567 19.749C10.6567 18.9897 11.2724 18.374 12.0317 18.374H18.9064C19.6657 18.374 20.2813 18.9897 20.2813 19.749C20.2813 20.5083 19.6657 21.1239 18.9064 21.1239Z" fill="url(#paint4_linear_133_2407)"/>
</g>
<defs>
<linearGradient id="paint0_linear_133_2407" x1="3.78223" y1="0.5" x2="47.0108" y2="36.2972" gradientUnits="userSpaceOnUse">
<stop stop-color="#FD5309"/>
<stop offset="1" stop-color="#FF9101"/>
</linearGradient>
<linearGradient id="paint1_linear_133_2407" x1="27.1558" y1="23.96" x2="33.9997" y2="31.4883" gradientUnits="userSpaceOnUse">
<stop stop-color="#FD5309"/>
<stop offset="1" stop-color="#FF9101"/>
</linearGradient>
<linearGradient id="paint2_linear_133_2407" x1="10.6567" y1="7.375" x2="11.6676" y2="12.6822" gradientUnits="userSpaceOnUse">
<stop stop-color="#FD5309"/>
<stop offset="1" stop-color="#FF9101"/>
</linearGradient>
<linearGradient id="paint3_linear_133_2407" x1="10.6567" y1="12.874" x2="11.6676" y2="18.1812" gradientUnits="userSpaceOnUse">
<stop stop-color="#FD5309"/>
<stop offset="1" stop-color="#FF9101"/>
</linearGradient>
<linearGradient id="paint4_linear_133_2407" x1="10.6567" y1="18.374" x2="12.1095" y2="23.4587" gradientUnits="userSpaceOnUse">
<stop stop-color="#FD5309"/>
<stop offset="1" stop-color="#FF9101"/>
</linearGradient>
<clipPath id="clip0_133_2407">
<rect width="44" height="44" fill="white" transform="translate(0 0.5)"/>
</clipPath>
</defs>
</svg>
