<svg width="228" height="58" viewBox="0 0 228 58" fill="none" xmlns="http://www.w3.org/2000/svg">
<rect y="10.6094" width="225.574" height="47.1464" rx="13" transform="rotate(-2.69582 0 10.6094)" fill="white"/>
<rect x="0.522963" y="11.0853" width="224.574" height="46.1464" rx="12.5" transform="rotate(-2.69582 0.522963 11.0853)" stroke="black" stroke-opacity="0.09"/>
<g clip-path="url(#clip0_436_82)">
<path d="M10.9652 40.4191L11.0212 41.6084L24.4231 40.9774L24.3671 39.788L10.9652 40.4191Z" fill="#939393"/>
<path d="M11.107 43.4318L11.135 44.0264L24.5369 43.3953L24.5089 42.8008L11.107 43.4318Z" fill="#939393"/>
<path d="M10.7944 36.7929L10.8224 37.3877L24.2244 36.7567L24.1964 36.1618L10.7944 36.7929Z" fill="#939393"/>
<path d="M10.8514 38.0019L10.8794 38.5967L24.2813 37.9656L24.2533 37.3708L10.8514 38.0019Z" fill="#939393"/>
<path d="M11.3338 48.2464L11.3627 48.8604L24.7646 48.2293L24.7357 47.6154L11.3338 48.2464Z" fill="#939393"/>
<path d="M11.2489 46.4433L11.2769 47.0381L24.6788 46.407L24.6508 45.8123L11.2489 46.4433Z" fill="#939393"/>
<path d="M11.3907 49.4554L11.4476 50.6641L24.8591 50.0326L24.8022 48.8239L11.3907 49.4554Z" fill="#939393"/>
<path d="M10.7376 35.5849L10.7656 36.1797L24.1675 35.5486L24.1395 34.9538L10.7376 35.5849Z" fill="#939393"/>
<path d="M10.1413 22.9223L10.1982 24.1309L23.6002 23.4998L23.5433 22.2912L10.1413 22.9223Z" fill="#939393"/>
<path d="M9.97063 19.2962L10.0555 21.0996L23.4575 20.4686L23.3725 18.6652L9.97063 19.2962Z" fill="#939393"/>
<path d="M9.91373 18.0884L9.94263 18.7021L23.3445 18.0711L23.3156 17.4573L9.91373 18.0884Z" fill="#939393"/>
<path d="M9.82877 16.2846L9.88568 17.4932L23.2972 16.8617L23.2403 15.6531L9.82877 16.2846Z" fill="#939393"/>
<path d="M10.3401 27.1429L10.397 28.3516L23.7989 27.7205L23.742 26.5119L10.3401 27.1429Z" fill="#939393"/>
<path d="M10.2262 24.7259L10.2831 25.9346L23.6851 25.3035L23.6282 24.0949L10.2262 24.7259Z" fill="#939393"/>
<path d="M10.4539 29.56L10.5108 30.7686L23.9127 30.1375L23.8558 28.9289L10.4539 29.56Z" fill="#939393"/>
<path d="M10.5957 32.5724L10.6526 33.7812L24.0546 33.1502L23.9977 31.9414L10.5957 32.5724Z" fill="#939393"/>
</g>
<path d="M50.8797 31.8961C50.958 33.5597 50.7093 34.9899 50.1336 36.1866C49.5628 37.3831 48.7506 38.3148 47.697 38.9815C46.6481 39.6431 45.4508 40.0056 44.105 40.069C42.7492 40.1328 41.518 39.8822 40.4114 39.3171C39.3048 38.7521 38.4111 37.9008 37.7304 36.7632C37.0497 35.6256 36.6704 34.2275 36.5923 32.5688C36.5139 30.9052 36.7601 29.4751 37.3309 28.2786C37.9017 27.0821 38.7115 26.1531 39.7604 25.4915C40.809 24.825 42.0112 24.4598 43.367 24.396C44.7128 24.3326 45.939 24.5835 47.0457 25.1485C48.157 25.7084 49.053 26.5571 49.7337 27.6946C50.4194 28.832 50.8014 30.2325 50.8797 31.8961ZM47.6095 32.0501C47.5588 30.9724 47.3546 30.0712 46.997 29.3465C46.6443 28.6215 46.1684 28.0815 45.5694 27.7265C44.9704 27.3714 44.281 27.2123 43.5013 27.249C42.7216 27.2857 42.0503 27.5089 41.4873 27.9187C40.9242 28.3284 40.4987 28.9109 40.2108 29.666C39.9278 30.4209 39.8117 31.3372 39.8624 32.4149C39.9132 33.4925 40.1149 34.3938 40.4675 35.1188C40.8252 35.8435 41.3035 36.3834 41.9025 36.7385C42.5016 37.0935 43.1909 37.2526 43.9706 37.2159C44.7503 37.1792 45.4216 36.956 45.9847 36.5462C46.5477 36.1365 46.9707 35.5542 47.2537 34.7993C47.5417 34.0441 47.6603 33.1277 47.6095 32.0501ZM52.5793 39.4609L51.861 24.2051L61.962 23.7295L62.0872 26.3888L55.2117 26.7125L55.3829 30.3477L61.588 30.0555L61.7132 32.7149L55.5081 33.0071L55.8048 39.309L52.5793 39.4609ZM63.8011 38.9325L63.0827 23.6767L73.3625 23.1927L73.4878 25.852L66.4334 26.1841L66.6046 29.8193L73.13 29.5121L73.2553 32.1714L66.7298 32.4787L66.9013 36.1213L73.9855 35.7877L74.1107 38.4471L63.8011 38.9325ZM75.5964 38.3771L74.8781 23.1213L80.897 22.8379C82.0491 22.7836 83.0421 22.9434 83.8759 23.3173C84.7145 23.6859 85.365 24.2351 85.8274 24.9649C86.2945 25.6894 86.5518 26.5558 86.5993 27.5639C86.647 28.577 86.4695 29.4588 86.0669 30.2094C85.664 30.955 85.057 31.5411 84.2459 31.9675C83.4398 32.3936 82.4507 32.6343 81.2787 32.6895L77.2487 32.8793L77.1267 30.287L80.6352 30.1218C81.251 30.0928 81.7585 29.9843 82.1578 29.7962C82.5571 29.6082 82.8481 29.3407 83.0308 28.9936C83.2185 28.6463 83.3006 28.2219 83.277 27.7203C83.2531 27.2138 83.1312 26.7915 82.9112 26.4535C82.6962 26.1152 82.3784 25.8664 81.9578 25.707C81.5419 25.5424 81.0236 25.4748 80.4029 25.504L78.2277 25.6064L78.8219 38.2252L75.5964 38.3771ZM83.5082 31.0466L87.6268 37.8107L84.0661 37.9783L80.0295 31.2104L83.5082 31.0466ZM87.1394 25.2092L87.0142 22.5499L99.5436 21.9599L99.6689 24.6192L94.9983 24.8392L95.5914 37.4356L92.4031 37.5858L91.81 24.9893L87.1394 25.2092ZM102.042 37.1319L98.5855 37.2947L103.134 21.7909L107.29 21.5951L113.268 36.6033L109.811 36.7661L105.436 25.1764L105.317 25.182L102.042 37.1319ZM101.544 31.1455L109.708 30.7611L109.826 33.2789L101.662 33.6633L101.544 31.1455ZM117.988 36.3811L117.201 19.6723L128.46 19.1422L128.597 22.0548L120.871 22.4186L121.058 26.4L128.205 26.0635L128.342 28.9761L121.195 29.3126L121.383 33.3021L129.142 32.9368L129.279 35.8494L117.988 36.3811ZM139.41 23.4427C139.314 22.7876 139.01 22.2895 138.497 21.9484C137.985 21.6073 137.305 21.4567 136.457 21.4967C135.88 21.5238 135.397 21.6283 135.008 21.8102C134.618 21.9866 134.324 22.2212 134.125 22.5141C133.932 22.8066 133.843 23.1324 133.86 23.4914C133.864 23.791 133.938 24.0492 134.085 24.2658C134.237 24.4821 134.439 24.6661 134.691 24.8177C134.944 24.964 135.233 25.0893 135.559 25.1939C135.886 25.293 136.233 25.3748 136.601 25.4392L138.119 25.7275C138.856 25.8563 139.535 26.0424 140.157 26.2857C140.779 26.5289 141.322 26.8386 141.787 27.2146C142.252 27.5907 142.619 28.0422 142.889 28.5691C143.165 29.0958 143.322 29.7071 143.36 30.4031C143.403 31.4259 143.183 32.3247 142.702 33.0996C142.226 33.8689 141.513 34.483 140.565 34.9419C139.621 35.3952 138.47 35.6538 137.11 35.7178C135.761 35.7814 134.576 35.63 133.556 35.2637C132.541 34.8972 131.735 34.322 131.136 33.5379C130.543 32.7482 130.205 31.753 130.121 30.5522L133.539 30.3912C133.604 30.9497 133.786 31.4099 134.087 31.7719C134.392 32.1281 134.789 32.3902 135.277 32.558C135.769 32.7202 136.32 32.7869 136.93 32.7582C137.528 32.73 138.043 32.6185 138.476 32.4237C138.913 32.2287 139.247 31.9704 139.477 31.6488C139.708 31.3273 139.813 30.9653 139.794 30.5628C139.777 30.1875 139.65 29.8773 139.415 29.6321C139.186 29.3868 138.854 29.1843 138.422 29.0248C137.995 28.865 137.473 28.726 136.857 28.6079L135.016 28.2367C133.591 27.9603 132.454 27.477 131.603 26.7865C130.753 26.0961 130.302 25.1335 130.249 23.8985C130.196 22.8871 130.424 21.9906 130.932 21.209C131.446 20.4271 132.171 19.8015 133.108 19.3321C134.046 18.8628 135.124 18.5995 136.342 18.5421C137.582 18.4837 138.674 18.6449 139.619 19.0256C140.569 19.406 141.32 19.9621 141.873 20.6938C142.425 21.4255 142.733 22.2887 142.796 23.2832L139.41 23.4427ZM144.812 35.118L144.025 18.4093L150.618 18.0989C151.885 18.0392 152.976 18.2304 153.891 18.6725C154.805 19.1091 155.516 19.7434 156.024 20.5753C156.538 21.4015 156.82 22.3694 156.873 23.479C156.925 24.5885 156.732 25.5788 156.293 26.4499C155.854 27.3209 155.192 28.0144 154.306 28.5304C153.425 29.0461 152.343 29.3341 151.059 29.3946L146.858 29.5924L146.724 26.7614L150.355 26.5904C151.035 26.5584 151.59 26.4151 152.019 26.1605C152.454 25.9002 152.77 25.5555 152.968 25.1264C153.171 24.6917 153.26 24.1996 153.234 23.6503C153.208 23.0955 153.073 22.6167 152.831 22.2138C152.594 21.8053 152.247 21.4973 151.79 21.2898C151.333 21.0769 150.762 20.9866 150.076 21.0189L147.694 21.1311L148.345 34.9517L144.812 35.118ZM158.539 34.4717L157.752 17.763L169.011 17.2328L169.148 20.1454L161.422 20.5092L161.609 24.4906L168.756 24.1541L168.893 27.0667L161.746 27.4032L161.934 31.3928L169.693 31.0274L169.83 33.9401L158.539 34.4717ZM185.688 22.3102L182.115 22.4785C182.028 22.0192 181.875 21.6148 181.657 21.2653C181.439 20.9104 181.166 20.6125 180.838 20.3718C180.511 20.131 180.137 19.9523 179.717 19.8358C179.303 19.7191 178.857 19.6719 178.378 19.6945C177.513 19.7352 176.77 19.9855 176.148 20.4454C175.527 20.8999 175.058 21.5434 174.743 22.3759C174.428 23.2029 174.297 24.1957 174.352 25.3542C174.408 26.5454 174.632 27.5379 175.023 28.3316C175.421 29.1251 175.95 29.7135 176.611 30.0966C177.272 30.4798 178.025 30.6515 178.868 30.6118C179.341 30.5895 179.776 30.5064 180.172 30.3623C180.574 30.218 180.927 30.0188 181.232 29.7646C181.536 29.505 181.783 29.1963 181.973 28.8384C182.169 28.4803 182.297 28.0764 182.357 27.6265L185.932 27.4746C185.875 28.2458 185.679 28.9964 185.343 29.7264C185.012 30.4506 184.549 31.1074 183.955 31.6969C183.367 32.2806 182.653 32.7557 181.815 33.1223C180.982 33.4831 180.029 33.6888 178.958 33.7392C177.467 33.8094 176.119 33.5349 174.912 32.9158C173.711 32.2964 172.74 31.3636 172 30.1175C171.266 28.8711 170.856 27.3395 170.77 25.5229C170.684 23.7008 170.954 22.1345 171.579 20.8241C172.204 19.5136 173.089 18.4963 174.232 17.7719C175.375 17.0422 176.681 16.6427 178.149 16.5736C179.117 16.528 180.021 16.6217 180.861 16.8547C181.706 17.0875 182.462 17.4499 183.128 17.9418C183.794 18.4283 184.346 19.0373 184.784 19.769C185.227 20.5004 185.529 21.3474 185.688 22.3102ZM190.33 16.229L191.117 32.9377L187.584 33.1041L186.798 16.3953L190.33 16.229ZM195.755 32.7194L191.969 32.8976L196.95 15.9173L201.503 15.7029L208.05 32.1405L204.264 32.3187L199.472 19.6252L199.341 19.6314L195.755 32.7194ZM195.209 26.1629L204.151 25.7418L204.281 28.4994L195.339 28.9205L195.209 26.1629ZM208.912 32.0998L208.125 15.3911L211.658 15.2248L212.308 29.0209L219.471 28.6836L219.608 31.5962L208.912 32.0998Z" fill="#FF4E48"/>
<defs>
<clipPath id="clip0_436_82">
<rect width="34.4177" height="17.088" fill="white" transform="translate(9.61877 50.75) rotate(-92.6958)"/>
</clipPath>
</defs>
</svg>
