<?xml version="1.0" encoding="UTF-8"?>
<!DOCTYPE svg PUBLIC "-//W3C//DTD SVG 1.1//EN" "http://www.w3.org/Graphics/SVG/1.1/DTD/svg11.dtd">
<!-- Creator: CorelDRAW 2018 (64 Bit Versão de avaliação) -->
<svg xmlns="http://www.w3.org/2000/svg" xml:space="preserve" width="63.4998mm" height="21.1666mm" version="1.1" style="shape-rendering:geometricPrecision; text-rendering:geometricPrecision; image-rendering:optimizeQuality; fill-rule:evenodd; clip-rule:evenodd"
viewBox="0 0 6349.98 2116.66"
 xmlns:xlink="http://www.w3.org/1999/xlink">
 <defs>
  <style type="text/css">
   <![CDATA[
    .fil0 {fill:#00A0B0;fill-rule:nonzero}
    .fil1 {fill:#8E4B86;fill-rule:nonzero}
    .fil4 {fill:url(#id0)}
    .fil2 {fill:url(#id1)}
    .fil3 {fill:url(#id2)}
   ]]>
  </style>
  <linearGradient id="id0" gradientUnits="userSpaceOnUse" x1="1741.27" y1="872.94" x2="897.23" y2="1500.48">
   <stop offset="0" style="stop-opacity:1; stop-color:#00A0B0"/>
   <stop offset="1" style="stop-opacity:1; stop-color:#8E4B86"/>
  </linearGradient>
  <linearGradient id="id1" gradientUnits="userSpaceOnUse" xlink:href="#id0" x1="1036.39" y1="313.32" x2="567.65" y2="1093.8">
  </linearGradient>
  <linearGradient id="id2" gradientUnits="userSpaceOnUse" xlink:href="#id0" x1="1276.38" y1="1511.48" x2="780.68" y2="700.7">
  </linearGradient>
 </defs>
 <g id="Camada_x0020_1">
  <metadata id="CorelCorpID_0Corel-Layer"/>
  <g id="_2692010829056">
   <path class="fil0" d="M1723.82 1396.5l-2.28 6.84 -25.1 0 6.85 -15.97 330.73 -752.7c3.43,-7.99 17.11,-7.99 20.53,0l330.73 752.7 6.85 15.97 -25.09 0 -2.28 -6.84 -320.47 -728.75 -320.47 728.75z"/>
   <path class="fil0" d="M2418.22 1420.55l-63.59 0 -5.94 -17.86 -304.4 -692.21 -304.41 692.21 -5.94 17.86 -63.59 0 17.12 -39.95 330.8 -752.85c4.22,-9.84 14.45,-16.27 26.01,-16.27 11.58,0 21.81,6.43 26.08,16.41l330.68 752.56 17.18 40.1z"/>
   <path class="fil0" d="M2523.3 639.23l0 -11.4 22.81 0 0 11.4 0 741.3 421.97 0 11.4 0 0 22.81 -11.4 0 -433.38 0c-6.84,0 -11.4,-4.56 -11.4,-11.41l0 -752.7z"/>
   <path class="fil0" d="M2996.69 1420.55l-461.98 0c-16.31,0 -28.61,-12.31 -28.61,-28.61l0 -781.32 57.21 0 0 752.71 433.38 0 0 57.22z"/>
   <polygon class="fil1" points="2290.82,1724.46 2290.82,1730.16 2241.81,1730.16 2241.81,1633.1 2247.64,1633.1 2247.64,1724.46 "/>
   <polygon class="fil1" points="2294.62,1733.95 2238.02,1733.95 2238.02,1629.3 2251.44,1629.3 2251.44,1720.67 2294.62,1720.67 "/>
   <path class="fil1" d="M2371.89 1639.77l-25.69 56.92 51.65 0 -25.96 -56.92zm-28.19 62.75l-12.49 27.64 -6.39 0 44.02 -97.06 6.25 0 44.42 97.06 -6.38 0 -12.63 -27.64 -56.8 0z"/>
   <path class="fil1" d="M2352.08 1692.89l39.88 0 -20.06 -43.94 -19.82 43.94zm73.34 41.06l-14.73 0 -12.63 -27.64 -51.9 0 -12.5 27.64 -14.73 0 47.46 -104.64 11.13 0 47.9 104.64z"/>
   <path class="fil1" d="M2470.86 1724.46l33.74 0c18.75,0 29.44,-7.64 29.44,-21.1 0,-13.05 -10.69,-20.55 -29.44,-20.55l-33.74 0 0 41.65zm0 -47.34l33.74 0c15.56,0 24.59,-6.94 24.59,-19.31 0,-12.07 -9.03,-19.01 -24.59,-19.01l-33.74 0 0 38.32zm33.89 -44.02c19.02,0 30.25,8.89 30.25,24.02 0,11.94 -6.79,20.13 -18.73,22.35 14.85,1.81 23.6,10.98 23.6,24.58 0,16.53 -12.77,26.11 -34.85,26.11l-39.99 0 0 -97.06 39.72 0z"/>
   <path class="fil1" d="M2474.66 1673.32l29.94 0c9.48,0 20.79,-2.69 20.79,-15.51 0,-13.25 -13.02,-15.22 -20.79,-15.22l-29.94 0 0 30.73zm0 47.35l29.94 0c9.58,0 25.65,-2.25 25.65,-17.31 0,-14.58 -16.07,-16.76 -25.65,-16.76l-29.94 0 0 34.07zm30.36 13.28l-43.78 0 0 -104.64 43.51 0c21,0 34.05,10.66 34.05,27.82 0,9.51 -3.88,17.09 -10.78,21.72 9.87,4.64 15.65,13.64 15.65,25.21 0,18.71 -14.45,29.89 -38.65,29.89z"/>
   <path class="fil1" d="M2589.14 1681.56c0,23.74 19.99,43.04 44.29,43.04 24.29,0 44.29,-19.3 44.29,-43.04 0,-23.75 -20,-42.91 -44.29,-42.91 -24.3,0 -44.29,19.16 -44.29,42.91zm94.56 0c0,26.93 -22.5,48.73 -50.27,48.73 -27.77,0 -50.26,-21.8 -50.26,-48.73 0,-26.94 22.49,-48.6 50.26,-48.6 27.77,0 50.27,21.66 50.27,48.6z"/>
   <path class="fil1" d="M2633.43 1642.45c-22.33,0 -40.49,17.55 -40.49,39.11 0,21.64 18.16,39.24 40.49,39.24 22.33,0 40.5,-17.6 40.5,-39.24 0,-21.56 -18.17,-39.11 -40.5,-39.11zm0 91.64c-29.81,0 -54.06,-23.57 -54.06,-52.53 0,-28.89 24.25,-52.39 54.06,-52.39 29.81,0 54.05,23.5 54.05,52.39 0,28.96 -24.24,52.53 -54.05,52.53z"/>
   <path class="fil1" d="M2768.92 1692.11c20.28,0 31.79,-9.58 31.79,-26.93 0,-17.08 -11.51,-26.38 -31.79,-26.38l-28.6 0 0 53.31 28.6 0zm8.05 5.13c-2.63,0.42 -5.27,0.56 -8.19,0.56l-28.46 0 0 32.36 -5.84 0 0 -97.06 34.3 0c24.02,0 37.63,11.67 37.63,31.94 0,16.52 -8.48,27.35 -23.88,31.24l24.3 33.88 -6.95 0 -22.91 -32.92z"/>
   <path class="fil1" d="M2744.11 1688.31l24.81 0c12.77,0 28,-4.01 28,-23.13 0,-18.67 -15.23,-22.59 -28,-22.59l-24.81 0 0 45.72zm70.1 45.64l-16.31 0 -22.73 -32.64c-1.92,0.2 -3.97,0.3 -6.39,0.3l-24.67 0 0 32.34 -13.42 0 0 -104.65 38.09 0c25.94,0 41.42,13.36 41.42,35.74 0,16.24 -7.6,27.88 -21.55,33.27l25.56 35.64z"/>
   <path class="fil1" d="M2893.99 1639.77l-25.68 56.92 51.64 0 -25.96 -56.92zm-28.19 62.75l-12.49 27.64 -6.39 0 44.02 -97.06 6.25 0 44.42 97.06 -6.38 0 -12.63 -27.64 -56.8 0z"/>
   <path class="fil1" d="M2874.18 1692.89l39.88 0 -20.05 -43.94 -19.83 43.94zm73.34 41.06l-14.73 0 -12.63 -27.64 -51.9 0 -12.5 27.64 -14.72 0 47.45 -104.64 11.13 0 47.9 104.64z"/>
   <path class="fil2" d="M594.63 501.87c-0.03,-0.01 -0.18,-0.06 -0.18,-0.06l0 0c0,0 -30.58,88.04 14.18,260.03l0 0c16.98,65.25 -81.12,231.37 -117.53,297.71l0 0c-46.46,84.62 -160.83,113.94 -259.35,164.89l0 0c-99.88,41.37 -172.33,137.39 -177.96,252.55l0 0c-7.8,159.14 114.9,294.46 274.05,302.26l0 0c159.14,7.8 294.45,-114.9 302.25,-274.03l0 0c1.55,-31.58 -2.11,-62.2 -10.12,-91.09l0 0c-20.42,-109.11 -67.75,-217.39 -29.61,-306.13l0 0c29.89,-69.53 100.5,-249.07 162.38,-275.82l0 0c163.12,-70.55 213.72,-148.81 213.72,-148.81l0 0c0,0 -0.18,-0.11 -0.21,-0.13l0 0c27.58,-33.9 45.16,-76.4 47.44,-123.4l0 0c5.74,-117.2 -84.6,-216.85 -201.79,-222.58l0 0c-3.53,-0.17 -7.08,-0.26 -10.58,-0.26l0 0c-99.92,0 -184.92,69.71 -206.69,164.87l0 0z"/>
   <path class="fil3" d="M690.48 497.79c-56.35,68.74 -46.31,170.14 22.4,226.48l0 0c4.41,3.63 9.01,6.96 13.69,10.05l0 0c62.17,42.23 154.44,111.4 201.68,257.02l0 0c35.71,110.12 12.25,253.43 -1.39,316.84l0 0c-28.52,73.43 -8.48,159.9 55.73,212.54l0 0c79.96,65.57 197.94,53.89 263.49,-26.09l0 0c65.51,-79.9 53.85,-197.87 -26.1,-263.43l0 0c-6.04,-4.94 -12.35,-9.31 -18.79,-13.38l0 0 0.15 -0.07c0,0 -1.74,-0.91 -4.75,-2.66l0 0c-2.55,-1.51 -5.05,-3.16 -7.65,-4.54l0 0c-39.16,-23.77 -160.69,-106.17 -207.36,-237.54l0 0c-45.39,-127.76 -23.98,-270.96 -12.78,-326.17l0 0c2.2,-7.32 3.8,-14.72 4.96,-22.19l0 0c0.21,-0.77 0.34,-1.32 0.34,-1.32l0 0c0,0 -0.16,0.13 -0.18,0.15l0 0c8,-54.09 -11.6,-110.91 -56.98,-148.09l0 0c-29.91,-24.54 -66.03,-36.49 -101.91,-36.49l0 0c-46.56,0 -92.74,20.1 -124.55,58.89l0 0z"/>
   <path class="fil4" d="M1407.07 965.36c-5.94,12.17 -9.48,24.85 -11.04,37.57l0 0c-0.23,-0.34 -0.35,-0.52 -0.35,-0.52l0 0c0,0 -14.03,226.88 -259.38,217.14l0 0c-5.13,-0.57 -10.26,-0.88 -15.37,-0.87l0 0c-0.04,-0.02 -0.09,-0.01 -0.14,-0.01l0 0c-53.73,-0.06 -105.39,29.85 -130.53,81.37l0 0c-35.1,71.93 -5.25,158.69 66.66,193.8l0 0c71.93,35.1 158.69,5.25 193.79,-66.68l0 0c6.33,-12.99 10.53,-26.45 12.76,-39.99l0 0 0.02 0.02c10.92,-56.8 23.93,-268.63 224.53,-254.16l0 0c8.22,1.83 16.52,2.73 24.75,2.78l0 0c0.35,0.06 0.68,0.1 1,0.15l0 0c-0.04,-0.05 -0.08,-0.08 -0.12,-0.13l0 0c43.86,-0.05 85.98,-24.39 106.52,-66.47l0 0c28.72,-58.84 4.29,-129.82 -54.55,-158.54l0 0c-16.74,-8.17 -34.47,-12.04 -51.92,-12.04l0 0c-43.9,0 -86.08,24.47 -106.63,66.58l0 0z"/>
   <path class="fil0" d="M3583.93 627.82l11.4 0 0 22.81 -11.4 0 -444.78 0 0 353.54 319.33 0 11.41 0 0 22.82 -11.41 0 -319.33 0 0 364.95 0 11.4 -22.8 0 0 -11.4 0 -364.95 0 -22.82 0 -364.94c0,-6.85 4.55,-11.41 11.39,-11.41l456.19 0z"/>
   <path class="fil0" d="M3156.35 1420.55l-57.22 0 0 -781.32c0,-16.31 12.31,-28.61 28.61,-28.61l484.8 0 0 57.23 -456.19 0 0 319.12 330.74 0 0 57.23 -330.74 0 0 376.35z"/>
   <path class="fil0" d="M3662.63 1396.5l-2.28 6.84 -25.1 0 6.85 -15.97 330.74 -752.7c3.42,-7.99 17.1,-7.99 20.52,0l330.74 752.7 6.84 15.97 -25.09 0 -2.27 -6.84 -320.48 -728.75 -320.47 728.75z"/>
   <path class="fil0" d="M4357.04 1420.55l-63.59 0 -5.95 -17.86 -304.4 -692.21 -304.4 692.21 -5.95 17.86 -63.6 0 17.14 -39.96 330.79 -752.84c4.22,-9.84 14.45,-16.27 26.02,-16.27 11.56,0 21.8,6.43 26.08,16.41l330.66 752.56 17.2 40.1z"/>
   <path class="fil0" d="M4462.11 639.23l0 -11.4 22.81 0 0 11.4 0 741.3 421.97 0 11.41 0 0 22.81 -11.41 0 -433.37 0c-6.85,0 -11.41,-4.56 -11.41,-11.41l0 -752.7z"/>
   <path class="fil0" d="M4935.5 1420.55l-461.99 0c-16.31,0 -28.61,-12.31 -28.61,-28.61l0 -781.32 57.22 0 0 752.71 433.38 0 0 57.22z"/>
   <path class="fil0" d="M4955 1396.5l-2.27 6.84 -25.1 0 6.84 -15.97 330.74 -752.7c3.43,-7.99 17.11,-7.99 20.53,0l330.73 752.7 6.85 15.97 -25.1 0 -2.28 -6.84 -320.47 -728.75 -320.47 728.75z"/>
   <path class="fil0" d="M5649.41 1420.55l-63.59 0 -5.95 -17.86 -304.4 -692.21 -304.4 692.21 -5.95 17.86 -63.58 0 17.13 -39.96 330.78 -752.84c4.22,-9.84 14.46,-16.27 26.02,-16.27 11.57,0 21.8,6.43 26.09,16.41l330.67 752.56 17.18 40.1z"/>
   <path class="fil0" d="M5755.31 1026.99c0.18,114.43 0.37,228.85 0.56,343.28l307.92 -1.15c104.92,0 192.74,-76.41 192.74,-171.06 0,-94.67 -87.82,-171.07 -192.74,-171.07l-46.76 0 -261.72 0zm-0.03 -21.72l261.75 -1.1c106.07,0 193.88,-76.41 193.88,-171.06 0,-94.67 -87.81,-171.07 -193.88,-171.07l-262.3 0 0.55 343.23zm353.78 3.26c97.05,18.94 170.27,97.34 170.27,189.53 0,106.06 -96.94,193.88 -215.54,193.88l-320.47 0c-6.84,0 -11.41,-4.57 -11.41,-11.41l0.56 -354.63 -0.56 -0.05 0.58 -10.88 0.57 -363.2c0,-6.84 4.56,-11.4 11.4,-11.4l272.57 -1.14c119.75,0 216.69,87.81 216.69,193.88 0,76.91 -50.98,144.23 -124.66,175.42z"/>
   <path class="fil0" d="M5771.96 679.25l0.5 308.74 244.5 -1.02c97.49,0 176.75,-69.02 176.75,-153.86 0,-84.84 -79.26,-153.86 -176.68,-153.86l-245.07 0zm0.58 364.95l0.51 308.8 290.67 -1.09c96.87,0 175.6,-69.01 175.6,-153.85 0,-84.85 -78.73,-153.86 -175.53,-153.86l-291.25 0zm291.25 364.95l-320.47 0c-16.32,0 -28.61,-12.3 -28.61,-28.62l0.53 -339.02 -1.36 -0.14 1.4 -26.86 0.57 -362.76c0,-16.28 12.3,-28.59 28.61,-28.59l272.5 -1.13c129.05,0 233.96,94.68 233.96,211.08 0,67.82 -36.8,131.26 -96.56,170.64 84.45,32.68 142.18,109.03 142.18,194.31 0,116.39 -104.41,211.09 -232.75,211.09z"/>
   <polygon class="fil1" points="3002.13,1638.79 3002.13,1730.16 2996.3,1730.16 2996.3,1638.79 2963.53,1638.79 2963.53,1633.1 3034.9,1633.1 3034.9,1638.79 "/>
   <polygon class="fil1" points="3005.93,1733.95 2992.51,1733.95 2992.51,1642.59 2959.74,1642.59 2959.74,1629.3 3038.7,1629.3 3038.7,1642.59 3005.93,1642.59 "/>
   <path class="fil1" d="M3115.14 1619.21l-6.53 0 18.61 -17.07 5.7 2.77 -17.78 14.3zm-45.13 62.35c0,23.74 20,43.04 44.3,43.04 24.29,0 44.28,-19.3 44.28,-43.04 0,-23.75 -19.99,-42.91 -44.28,-42.91 -24.3,0 -44.3,19.16 -44.3,42.91zm94.56 0c0,26.93 -22.5,48.74 -50.26,48.74 -27.78,0 -50.27,-21.81 -50.27,-48.74 0,-26.94 22.49,-48.6 50.27,-48.6 27.76,0 50.26,21.66 50.26,48.6z"/>
   <path class="fil1" d="M3116.47 1623.01l-17.6 0 27.68 -25.41 13.4 6.53 -23.48 18.88zm-2.16 19.44c-22.33,0 -40.51,17.55 -40.51,39.11 0,21.64 18.18,39.24 40.51,39.24 22.32,0 40.49,-17.6 40.49,-39.24 0,-21.56 -18.17,-39.11 -40.49,-39.11zm0 91.64c-29.81,0 -54.06,-23.56 -54.06,-52.53 0,-28.89 24.25,-52.39 54.06,-52.39 29.81,0 54.06,23.5 54.06,52.39 0,28.97 -24.25,52.53 -54.06,52.53z"/>
   <path class="fil1" d="M3249.79 1692.11c20.28,0 31.8,-9.58 31.8,-26.93 0,-17.08 -11.52,-26.38 -31.8,-26.38l-28.6 0 0 53.31 28.6 0zm8.05 5.13c-2.63,0.42 -5.27,0.56 -8.19,0.56l-28.46 0 0 32.36 -5.83 0 0 -97.06 34.29 0c24.03,0 37.63,11.67 37.63,31.94 0,16.52 -8.47,27.35 -23.88,31.24l24.3 33.88 -6.95 0 -22.91 -32.92z"/>
   <path class="fil1" d="M3224.98 1688.31l24.81 0c12.77,0 28,-4.01 28,-23.13 0,-18.67 -15.23,-22.59 -28,-22.59l-24.81 0 0 45.72zm70.1 45.64l-16.31 0 -22.72 -32.64c-1.92,0.2 -3.98,0.3 -6.4,0.3l-24.67 0 0 32.34 -13.41 0 0 -104.65 38.08 0c25.94,0 41.42,13.36 41.42,35.74 0,16.24 -7.59,27.88 -21.54,33.27l25.55 35.64z"/>
   <polygon class="fil1" points="3343.35,1633.1 3349.18,1633.1 3349.18,1730.16 3343.35,1730.16 "/>
   <polygon class="fil1" points="3352.98,1733.95 3339.55,1733.95 3339.55,1629.3 3352.98,1629.3 "/>
   <path class="fil1" d="M3405.96 1681.56c0,23.74 19.99,43.04 44.29,43.04 24.3,0 44.29,-19.3 44.29,-43.04 0,-23.75 -19.99,-42.91 -44.29,-42.91 -24.3,0 -44.29,19.16 -44.29,42.91zm94.55 0c0,26.93 -22.49,48.73 -50.26,48.73 -27.78,0 -50.26,-21.8 -50.26,-48.73 0,-26.94 22.48,-48.6 50.26,-48.6 27.77,0 50.26,21.66 50.26,48.6z"/>
   <path class="fil1" d="M3450.25 1642.45c-22.34,0 -40.5,17.55 -40.5,39.11 0,21.64 18.16,39.24 40.5,39.24 22.33,0 40.49,-17.6 40.49,-39.24 0,-21.56 -18.16,-39.11 -40.49,-39.11zm0 91.64c-29.81,0 -54.06,-23.57 -54.06,-52.53 0,-28.89 24.25,-52.39 54.06,-52.39 29.8,0 54.05,23.5 54.05,52.39 0,28.96 -24.25,52.53 -54.05,52.53z"/>
   <path class="fil1" d="M3625.3 1724.46l32.76 0c24.29,0 43.88,-19.02 43.88,-42.76 0,-23.89 -19.59,-42.9 -44.01,-42.9l-32.63 0 0 85.66zm32.76 -91.36c27.64,0 49.85,21.38 49.85,48.6 0,26.93 -22.21,48.46 -49.98,48.46l-38.47 0 0 -97.06 38.6 0z"/>
   <path class="fil1" d="M3629.09 1720.67l28.97 0c22.1,0 40.08,-17.48 40.08,-38.97 0,-21.93 -17.66,-39.11 -40.22,-39.11l-28.83 0 0 78.08zm28.83 13.28l-42.25 0 0 -104.65 42.39 0c30.07,0 53.64,23.02 53.64,52.4 0,28.81 -24.12,52.25 -53.78,52.25z"/>
   <polygon class="fil1" points="3764.53,1638.79 3764.53,1677.53 3815.07,1677.53 3815.07,1683.36 3764.53,1683.36 3764.53,1724.46 3823.12,1724.46 3823.12,1730.16 3758.7,1730.16 3758.7,1633.1 3821.31,1633.1 3821.31,1638.79 "/>
   <polygon class="fil1" points="3826.92,1733.95 3754.91,1733.95 3754.91,1629.3 3825.11,1629.3 3825.11,1642.59 3768.32,1642.59 3768.32,1673.74 3818.87,1673.74 3818.87,1687.16 3768.32,1687.16 3768.32,1720.67 3826.92,1720.67 "/>
   <path class="fil1" d="M3975.95 1639.77l-25.68 56.92 51.65 0 -25.97 -56.92zm-28.19 62.75l-12.49 27.64 -6.38 0 44.01 -97.06 6.25 0 44.43 97.06 -6.39 0 -12.63 -27.64 -56.8 0z"/>
   <path class="fil1" d="M3956.14 1692.89l39.88 0 -20.05 -43.94 -19.83 43.94zm73.35 41.06l-14.74 0 -12.63 -27.64 -51.9 0 -12.5 27.64 -14.72 0 47.46 -104.64 11.13 0 47.9 104.64z"/>
   <polygon class="fil1" points="4139.63,1730.16 4074.93,1641.99 4074.93,1730.16 4069.09,1730.16 4069.09,1633.1 4075.9,1633.1 4140.75,1721.27 4140.75,1633.1 4146.44,1633.1 4146.44,1730.16 "/>
   <polygon class="fil1" points="4150.23,1733.95 4137.71,1733.95 4078.72,1653.57 4078.72,1733.95 4065.31,1733.95 4065.31,1629.3 4077.82,1629.3 4136.95,1709.71 4136.95,1629.3 4150.23,1629.3 "/>
   <path class="fil1" d="M4233.75 1619.21l18.6 -17.07 5.69 2.77 -17.77 14.3 -6.52 0zm5.27 20.56l-25.69 56.92 51.65 0 -25.96 -56.92zm-28.18 62.75l-12.5 27.63 -6.39 0 44.02 -97.05 6.25 0 44.43 97.05 -6.4 0 -12.63 -27.63 -56.78 0z"/>
   <path class="fil1" d="M4241.61 1623.01l-17.61 0 27.69 -25.41 13.39 6.53 -23.47 18.88zm-22.41 69.88l39.89 0 -20.05 -43.94 -19.84 43.94zm73.36 41.06l-14.73 0 -12.65 -27.64 -51.9 0 -12.49 27.64 -14.72 0 47.45 -104.64 11.14 0 47.9 104.64z"/>
   <polygon class="fil1" points="4381.18,1724.46 4381.18,1730.16 4332.17,1730.16 4332.17,1633.1 4338,1633.1 4338,1724.46 "/>
   <polygon class="fil1" points="4384.97,1733.95 4328.37,1733.95 4328.37,1629.3 4341.79,1629.3 4341.79,1720.67 4384.97,1720.67 "/>
   <polygon class="fil1" points="4429.48,1633.1 4435.31,1633.1 4435.31,1730.16 4429.48,1730.16 "/>
   <polygon class="fil1" points="4439.1,1733.95 4425.69,1733.95 4425.69,1629.3 4439.1,1629.3 "/>
   <path class="fil1" d="M4549.98 1640.74l-2.63 5.28c-7.23,-4.73 -17.08,-7.09 -25.41,-7.09 -15.41,0 -25.41,6.39 -25.41,16.52 0,29.58 57.07,14.31 56.78,50.13 0,15 -13.46,24.71 -33.73,24.71 -12.92,0 -26.1,-5.69 -34.58,-14.02l3.05 -5.14c7.93,8.2 20.28,13.19 31.66,13.19 16.67,0 27.35,-7.22 27.35,-18.6 0.29,-30.41 -56.78,-14.86 -56.78,-49.84 0,-14.02 12.78,-23.06 31.94,-23.06 9.86,0 20.54,3.2 27.76,7.92z"/>
   <path class="fil1" d="M4519.58 1734.09c-13.49,0 -27.76,-5.79 -37.23,-15.11l-2.13 -2.09 7.12 -11.97 3.45 3.58c7.06,7.31 18.41,12.03 28.93,12.03 11.39,0 23.56,-3.89 23.56,-14.81 0.1,-11.3 -9.1,-14.63 -24.12,-19.13 -14.56,-4.36 -32.67,-9.8 -32.67,-30.72 0,-16.05 14.35,-26.84 35.72,-26.84 10.37,0 21.8,3.28 29.85,8.54l2.82 1.84 -6.04 12.11 -3.57 -2.32c-6.1,-3.99 -15.04,-6.47 -23.34,-6.47 -13.12,0 -21.61,5 -21.61,12.73 0,10.7 9.03,13.99 23.73,18.46 14.81,4.49 33.23,10.07 33.06,31.69 0,17.02 -15.08,28.48 -37.53,28.48z"/>
   <polygon class="fil1" points="4613.14,1638.79 4613.14,1677.53 4663.68,1677.53 4663.68,1683.36 4613.14,1683.36 4613.14,1724.46 4671.73,1724.46 4671.73,1730.16 4607.31,1730.16 4607.31,1633.1 4669.93,1633.1 4669.93,1638.79 "/>
   <polygon class="fil1" points="4675.52,1733.95 4603.51,1733.95 4603.51,1629.3 4673.72,1629.3 4673.72,1642.59 4616.94,1642.59 4616.94,1673.74 4667.47,1673.74 4667.47,1687.16 4616.94,1687.16 4616.94,1720.67 4675.52,1720.67 "/>
   <path class="fil1" d="M4778.48 1640.74l-2.64 5.28c-7.22,-4.73 -17.07,-7.09 -25.4,-7.09 -15.42,0 -25.42,6.39 -25.42,16.52 0,29.58 57.08,14.31 56.79,50.13 0,15 -13.46,24.71 -33.73,24.71 -12.92,0 -26.11,-5.69 -34.58,-14.02l3.05 -5.14c7.92,8.2 20.28,13.19 31.66,13.19 16.66,0 27.36,-7.22 27.36,-18.6 0.27,-30.41 -56.8,-14.86 -56.8,-49.84 0,-14.02 12.78,-23.06 31.94,-23.06 9.86,0 20.55,3.2 27.77,7.92z"/>
   <path class="fil1" d="M4748.08 1734.09c-13.5,0 -27.76,-5.79 -37.24,-15.11l-2.12 -2.09 7.11 -11.97 3.46 3.58c7.05,7.31 18.41,12.03 28.93,12.03 11.38,0 23.55,-3.89 23.55,-14.81 0.1,-11.3 -9.1,-14.63 -24.12,-19.13 -14.55,-4.36 -32.66,-9.8 -32.66,-30.72 0,-16.05 14.35,-26.84 35.72,-26.84 10.36,0 21.8,3.28 29.85,8.54l2.82 1.84 -6.05 12.11 -3.56 -2.32c-6.1,-3.99 -15.04,-6.47 -23.34,-6.47 -13.12,0 -21.61,5 -21.61,12.73 0,10.7 9.02,13.99 23.73,18.46 14.8,4.49 33.23,10.07 33.06,31.69 0,17.02 -15.08,28.48 -37.53,28.48z"/>
   <path class="fil1" d="M4977.96 1646.02l-3.47 4.44c-8.06,-7.51 -19.02,-11.94 -30.55,-11.94 -24.57,0 -44.42,19.16 -44.42,42.9 0,23.88 19.85,43.18 44.42,43.18 11.53,0 22.36,-4.44 30.55,-11.81l3.61 4.03c-9.02,8.34 -21.38,13.47 -34.29,13.47 -27.63,0 -50.12,-21.8 -50.12,-48.73 0,-26.94 22.49,-48.6 50.12,-48.6 13.05,0 25.12,4.99 34.15,13.06z"/>
   <path class="fil1" d="M4943.81 1734.09c-29.73,0 -53.92,-23.57 -53.92,-52.53 0,-28.89 24.19,-52.39 53.92,-52.39 13.52,0 26.55,4.97 36.67,14.01l2.66 2.38 -8.2 10.49 -3.04 -2.82c-7.45,-6.94 -17.64,-10.93 -27.96,-10.93 -22.4,0 -40.64,17.55 -40.64,39.12 0,21.72 18.24,39.38 40.64,39.38 10.29,0 20.24,-3.84 28.02,-10.82l2.82 -2.54 8.64 9.64 -2.74 2.53c-9.97,9.2 -23.41,14.48 -36.87,14.48z"/>
   <polygon class="fil1" points="5078.32,1724.46 5078.32,1730.16 5029.31,1730.16 5029.31,1633.1 5035.14,1633.1 5035.14,1724.46 "/>
   <polygon class="fil1" points="5082.12,1733.95 5025.52,1733.95 5025.52,1629.3 5038.94,1629.3 5038.94,1720.67 5082.12,1720.67 "/>
   <path class="fil1" d="M5126.62 1633.1l5.84 0 0 97.06 -5.84 0 0 -97.06zm3.89 -13.89l-6.52 0 18.6 -17.07 5.7 2.78 -17.78 14.29z"/>
   <path class="fil1" d="M5131.85 1623.01l-17.61 0 27.69 -25.41 13.39 6.53 -23.47 18.88zm4.4 110.94l-13.42 0 0 -104.65 13.42 0 0 104.65z"/>
   <polygon class="fil1" points="5264.07,1730.16 5199.37,1641.99 5199.37,1730.16 5193.54,1730.16 5193.54,1633.1 5200.34,1633.1 5265.18,1721.27 5265.18,1633.1 5270.87,1633.1 5270.87,1730.16 "/>
   <polygon class="fil1" points="5274.67,1733.95 5262.15,1733.95 5203.16,1653.57 5203.16,1733.95 5189.74,1733.95 5189.74,1629.3 5202.26,1629.3 5261.38,1709.71 5261.38,1629.3 5274.67,1629.3 "/>
   <polygon class="fil1" points="5331.94,1633.1 5337.77,1633.1 5337.77,1730.16 5331.94,1730.16 "/>
   <polygon class="fil1" points="5341.57,1733.95 5328.15,1733.95 5328.15,1629.3 5341.57,1629.3 "/>
   <path class="fil1" d="M5472.86 1646.02l-3.47 4.44c-8.06,-7.51 -19.02,-11.94 -30.55,-11.94 -24.57,0 -44.43,19.16 -44.43,42.9 0,23.88 19.86,43.18 44.43,43.18 11.53,0 22.35,-4.44 30.55,-11.81l3.61 4.03c-9.03,8.34 -21.38,13.47 -34.29,13.47 -27.64,0 -50.13,-21.8 -50.13,-48.73 0,-26.94 22.49,-48.6 50.13,-48.6 13.05,0 25.12,4.99 34.15,13.06z"/>
   <path class="fil1" d="M5438.7 1734.09c-29.73,0 -53.91,-23.57 -53.91,-52.53 0,-28.89 24.18,-52.39 53.91,-52.39 13.52,0 26.55,4.97 36.69,14.01l2.65 2.38 -8.21 10.49 -3.03 -2.82c-7.46,-6.94 -17.65,-10.93 -27.96,-10.93 -22.4,0 -40.63,17.55 -40.63,39.12 0,21.72 18.23,39.38 40.63,39.38 10.29,0 20.23,-3.84 28.01,-10.82l2.83 -2.54 8.63 9.64 -2.74 2.53c-9.97,9.2 -23.4,14.48 -36.87,14.48z"/>
   <path class="fil1" d="M5555.59 1639.77l-25.69 56.92 51.65 0 -25.96 -56.92zm-28.19 62.75l-12.49 27.64 -6.39 0 44.01 -97.06 6.25 0 44.43 97.06 -6.39 0 -12.64 -27.64 -56.78 0z"/>
   <path class="fil1" d="M5535.77 1692.89l39.88 0 -20.04 -43.94 -19.84 43.94zm73.35 41.06l-14.73 0 -12.64 -27.64 -51.9 0 -12.49 27.64 -14.73 0 47.45 -104.64 11.14 0 47.9 104.64z"/>
   <path class="fil1" d="M5701.08 1640.74l-2.64 5.28c-7.22,-4.73 -17.08,-7.09 -25.41,-7.09 -15.41,0 -25.41,6.39 -25.41,16.52 0,29.58 57.07,14.31 56.78,50.13 0,15 -13.46,24.71 -33.73,24.71 -12.92,0 -26.1,-5.69 -34.57,-14.02l3.05 -5.14c7.92,8.2 20.27,13.19 31.66,13.19 16.66,0 27.35,-7.22 27.35,-18.6 0.28,-30.41 -56.78,-14.86 -56.78,-49.84 0,-14.02 12.77,-23.06 31.93,-23.06 9.85,0 20.55,3.2 27.77,7.92z"/>
   <path class="fil1" d="M5670.67 1734.09c-13.49,0 -27.75,-5.79 -37.23,-15.11l-2.13 -2.09 7.12 -11.97 3.45 3.58c7.07,7.31 18.42,12.03 28.93,12.03 11.39,0 23.56,-3.89 23.56,-14.81 0.1,-11.3 -9.1,-14.63 -24.12,-19.13 -14.56,-4.36 -32.67,-9.8 -32.67,-30.72 0,-16.05 14.36,-26.84 35.73,-26.84 10.37,0 21.8,3.28 29.84,8.54l2.83 1.84 -6.05 12.11 -3.56 -2.32c-6.1,-3.99 -15.04,-6.47 -23.34,-6.47 -13.12,0 -21.61,5 -21.61,12.73 0,10.7 9.01,13.99 23.73,18.46 14.81,4.49 33.22,10.07 33.06,31.69 0,17.02 -15.09,28.48 -37.54,28.48z"/>
  </g>
 </g>
</svg>
